<svg xmlns="http://www.w3.org/2000/svg" width="67.236" height="67" viewBox="0 0 67.236 67"><defs><style>.a{fill:#f2f2f2;}.b{fill:#9f652e;stroke:rgba(0,0,0,0);stroke-miterlimit:10;}.c{fill:#96be4b;}.d,.f{fill:none;}.d{stroke:#eaeaea;stroke-width:4px;}.e{stroke:none;}</style></defs><g transform="translate(-1477 -512)"><circle class="a" cx="33.5" cy="33.5" r="33.5" transform="translate(1477 512)"/><path class="b" d="M143.323,126.234a65.16,65.16,0,0,1-15.972,2.213c-6.626,0-12.917-1.364-17.892-4.871-5.082-3.58-8.7-9.271-9.793-17.818a53.331,53.331,0,0,1,.191-13.481,33.7,33.7,0,0,1,8.5-7.859,97.327,97.327,0,0,0,35.7,35.719c1.774-.557,3.483-1.145,5.084-1.724a19.845,19.845,0,0,1,10.524-1.134,33.291,33.291,0,0,1-1.219,5.4,17.487,17.487,0,0,0-7.341,1.146q2.907,1.371,5.925,2.557a33.461,33.461,0,0,1-3.014,5.31A92.267,92.267,0,0,1,143.323,126.234ZM104.707,105.7c.863,6.744,3.593,11.144,7.4,13.829,3.917,2.76,9.065,3.836,14.58,3.834a47.848,47.848,0,0,0,10.211-1.28A116.09,116.09,0,0,1,112.632,98.93a101.468,101.468,0,0,1-6.522-9.271C104.908,95.255,104.072,100.737,104.707,105.7Z" transform="translate(1384 432.911)"/><path class="c" d="M114.923,130.669a8.6,8.6,0,0,1-3.956.049c-5.53-1.263-9.493-8.145-12.793-16.281-1.018,4.378-5.612,4.841-7.511,4.841-.486,0-.8-.03-.823-.033l-.01.011c.01-.065.02-.13.031-.193a7.827,7.827,0,0,1,.274-1.2,6.483,6.483,0,0,1,3.811-4.391,8.579,8.579,0,0,1-4.2-3.314l-.012,0,.12-.051a7.4,7.4,0,0,1,1.093-.378,6.193,6.193,0,0,1,5.853,1.152c-.968-2.6-1.88-5.239-2.768-7.808-.147-.423-.4-1.293-.752-2.437-1.219,1.692-4.211,4.838-8.68,3.041.12.122.234.242.345.363,3.1,3.275,3.178,6.922,1.039,10.027a8.832,8.832,0,0,1-.936,1.171l-.131.141a.1.1,0,0,1,0-.016c-.132-.137-6.358-6.618-.565-11.815.093-.189.189-.371.287-.544a7.013,7.013,0,0,1,7.933-3.7c.109.021.212.041.311.064a69.446,69.446,0,0,0-3.08-8.15q.373-.355.757-.7a93.591,93.591,0,0,1,4.474,12.316c1.108,3.208,2.254,6.524,3.468,9.657,3.339,8.61,7.286,16.144,12.741,17.39,4.055.926,9.047-1.629,15.406-9.815a9.637,9.637,0,0,1-2.867-1.1,12.359,12.359,0,0,1,.257,2.855l.011.012-.132-.04a8.239,8.239,0,0,1-1.3-.492,8.521,8.521,0,0,1-3.075-2.332,10.39,10.39,0,0,1-2.142,4.093s0,.009,0,.014c-.04-.05-.079-.1-.118-.148a9.151,9.151,0,0,1-1.649-3.235,12.5,12.5,0,0,1-4.923,2.295.091.091,0,0,1-.006.014l-.022-.148a8.883,8.883,0,0,1-.106-1.61,7.588,7.588,0,0,1,1.651-4.859,10.39,10.39,0,0,1-4.413-1.414l-.014,0,.093-.1a8.255,8.255,0,0,1,.981-.958,7.033,7.033,0,0,1,8.716-.66c.081.049.164.1.246.151,4.6-4.874,11.063-.458,11.2-.361l.015,0-.112.1a8.456,8.456,0,0,1-1.1.845,8.956,8.956,0,0,1-2.077,1.035,11.724,11.724,0,0,1,3.241,2.831c1.469-2.1,3.005-4.483,4.615-7.173a52.985,52.985,0,0,1,5.221-7.358,5.32,5.32,0,0,1-.576.032,6.811,6.811,0,0,1-2.773-.652l-.094-.044.011,0c.072-.1,2.746-3.953,6.545-2.533l.106-.095q.276.487.535.984a5.726,5.726,0,0,1-1.981,1.772,49.8,49.8,0,0,0-6.061,8.283c-1.715,2.866-3.357,5.394-4.929,7.607a14.485,14.485,0,0,1,1.4,2.421l.018.007-.184.031a10.211,10.211,0,0,1-1.663.157c-.1,0-.2,0-.3,0a11.2,11.2,0,0,1-1.158-.059c-4.8,6.214-8.928,9.389-12.526,10.358a6.61,6.61,0,0,1,.692.72,5.1,5.1,0,0,1,.144,6.791c-.1.14-.21.281-.327.423C111.815,135.684,114.281,131.6,114.923,130.669ZM137.66,109h-.021c.064-.042.128-.083.192-.123a12.021,12.021,0,0,1,1.845-1,10.69,10.69,0,0,1,5.589-.979,33.481,33.481,0,0,1,1.107,7.834C141.351,114.087,137.768,109.146,137.66,109Zm-29.216,1.9c-.192.021-.379.037-.562.047a7.032,7.032,0,0,1-7.415-4.627,8.19,8.19,0,0,1-.416-1.263c-.012-.043-.022-.088-.034-.132l.01.01c.12-.01,4.142-.338,6.644,2.156a7.264,7.264,0,0,1,2.2-6.85,8.9,8.9,0,0,1,1.143-.99l.148-.111a.1.1,0,0,1,0,.015c.1.145,5.119,7.742-1.66,11.816Z" transform="translate(1397.619 430)"/><g class="d" transform="translate(1477 512)"><circle class="e" cx="33.5" cy="33.5" r="33.5"/><circle class="f" cx="33.5" cy="33.5" r="31.5"/></g></g></svg>