<svg xmlns="http://www.w3.org/2000/svg" width="67" height="67.976" viewBox="0 0 67 67.976"><defs><style>.a{fill:#f2f2f2;}.a,.d{stroke:#eaeaea;stroke-width:4px;}.b{fill:#96be4b;stroke:rgba(0,0,0,0);stroke-miterlimit:10;}.c{fill:#afd755;}.d,.f{fill:none;}.e{stroke:none;}</style></defs><g transform="translate(-1495 -776.5)"><g class="a" transform="translate(1495 777)"><circle class="e" cx="33.5" cy="33.5" r="33.5"/><circle class="f" cx="33.5" cy="33.5" r="31.5"/></g><path class="b" d="M46.009,72.17a6.827,6.827,0,0,1-1.218-.553c-.177-.186-.353-.376-.538-.553a5.841,5.841,0,0,0-2.844-2.925.133.133,0,0,1,.029-.242,19.433,19.433,0,0,1,8.819.188,5.874,5.874,0,0,1,1.872,1.886.139.139,0,0,0,.253-.037,3.724,3.724,0,0,0,.031-1.031c.169.082.338.164.5.253a8.7,8.7,0,0,1,1.448.966,33.247,33.247,0,0,1-8.321,2.3A.138.138,0,0,0,46.009,72.17ZM34.768,66.729a13.811,13.811,0,0,0-.872-3.957,4.381,4.381,0,0,1-4.471,2.344c-1.313-.176-2.57-.626-3.882-.84.171-.176.341-.355.533-.518a.181.181,0,0,0-.137-.319,37.655,37.655,0,0,0-6.194,1.323.26.26,0,0,1,.131-.321c.011-.006.022-.011.033-.016.46-.877.93-1.8,1.434-2.706,1.111-1.338,2.174-2.715,3.9-3.308.184-.064.109-.31-.05-.343a11.117,11.117,0,0,0-1.24-.229A11.053,11.053,0,0,1,26.089,55.9a6.876,6.876,0,0,1,5.2-1.083,9.042,9.042,0,0,0-1.2-1.272,7.031,7.031,0,0,0-2.523-1.56,9.294,9.294,0,0,0-1.16-.355.184.184,0,0,1,.139-.188c.743-.265,1.527-.515,2.33-.715a13.012,13.012,0,0,1,1.462-.111,8.342,8.342,0,0,1,2.248.428c.157.043.335-.128.209-.277a2.644,2.644,0,0,0-.557-.491,7.306,7.306,0,0,1,4.365,1.328c1.2.873,2.1,2.138,1.565,3.652-.014.04-.028.079-.043.12.048.052.094.106.14.16a10,10,0,0,0,2.136-2.246c.136-.2.265-.406.386-.612-.389.019-.773.028-1.15.028-.247,0-.492,0-.733-.011a.309.309,0,0,1-.074-.012,6.544,6.544,0,0,0,1.49-1.913A9.79,9.79,0,0,0,41.5,48.1a15.5,15.5,0,0,0-4.709,1.066,7.171,7.171,0,0,0-2.321,1.305.311.311,0,0,1,0-.082,24.539,24.539,0,0,1,1.154-5.108c-.143-.129-.283-.26-.42-.394a10.811,10.811,0,0,1-8.532,1.627,9.6,9.6,0,0,1-7.144-7.095,8.985,8.985,0,0,1-.212-1.967,5.892,5.892,0,0,1-4.291-6.215c.022-.251.4-.2.385.052a5.524,5.524,0,0,0,3.921,5.691A7.829,7.829,0,0,1,20,34.189c.678-1.487,2.1-2.956,3.893-2.494a2.454,2.454,0,0,1,1.45,3.41,4.823,4.823,0,0,1-4.266,2.535,5.914,5.914,0,0,1-1.1-.057,8.364,8.364,0,0,0,1.891,5.1,9.543,9.543,0,0,0,8.142,3.082,10.8,10.8,0,0,0,4.532-1.552c-.723-.762-1.414-1.557-2.194-2.267.3-.068.6-.139.907-.18a.225.225,0,0,0,.075-.426c-2.3-1.33-4.9-1.9-7.362-2.827a.324.324,0,0,1,.355-.247l.046.006c1.076-.6,2.19-1.242,3.334-1.849,2.069-.642,4.113-1.356,6.313-.8.237.059.325-.25.181-.392a13.873,13.873,0,0,0-1.139-1.081,13.857,13.857,0,0,1,3.549-.568,8.56,8.56,0,0,1,6.159,2.4,11.3,11.3,0,0,0-.393-2.146A8.748,8.748,0,0,0,42.807,30.5a11.833,11.833,0,0,0-.969-1.159.228.228,0,0,1,.272-.1c.715.171,1.449.366,2.182.595a4.893,4.893,0,0,0-3.113-3.813,8.977,8.977,0,0,0-2.5-.63,3.511,3.511,0,0,1-.223,4.269,5.651,5.651,0,0,1-.746.779c0-.149,0-.3,0-.457-.007-.192-.3-.318-.393-.112A4.428,4.428,0,0,1,35.648,31.7a13.484,13.484,0,0,1-3.65.958l-.025,0-.022,0a4.127,4.127,0,0,0,.745-1.338A10.864,10.864,0,0,0,33.35,28.2a3.444,3.444,0,0,1-3.962.236c-.885-.551-1.64-1.28-2.511-1.855.18-.072.359-.145.549-.2a.142.142,0,0,0,.006-.273,29.7,29.7,0,0,0-4.867-1.053.205.205,0,0,1,.2-.188h.029c.613-.48,1.247-.986,1.9-1.476a7.248,7.248,0,0,1,3.862-1.112c.153.014.178-.187.075-.262a8.653,8.653,0,0,0-.815-.564,8.733,8.733,0,0,1,2.159-.7,5.4,5.4,0,0,1,4.075.9,7.158,7.158,0,0,0-.453-1.3,5.527,5.527,0,0,0-1.3-1.932,7.478,7.478,0,0,0-.717-.63.145.145,0,0,1,.16-.09c.618.05,1.261.124,1.9.24a10.225,10.225,0,0,1,1.083.393,6.551,6.551,0,0,1,1.473,1.032c.1.082.282.017.239-.13a2.11,2.11,0,0,0-.24-.531,5.738,5.738,0,0,1,2.7,2.362,2.51,2.51,0,0,1-.058,3.123c-.144.15-.309.311-.489.466l.03.061a8.484,8.484,0,0,1,4.043,1.063,6.187,6.187,0,0,1,2.714,3.112,27.321,27.321,0,0,0,.619-8.861c-1.441,1.677-3.987,1.474-5.647.156a6.889,6.889,0,0,1-.938-.91c.18.005.363,0,.553,0,.233-.007.388-.357.139-.476a5.361,5.361,0,0,1-2.2-2.029,16.328,16.328,0,0,1-1.13-4.428.247.247,0,0,1,0-.058,4.994,4.994,0,0,0,1.615.913,13.167,13.167,0,0,0,3.771.816,4.161,4.161,0,0,1-.529-4.288c-.676-.032-1.355-.106-2.034-.179a12.98,12.98,0,0,0-5.249.145.261.261,0,0,1-.245-.453,19.244,19.244,0,0,0,3.014-3.2,33.816,33.816,0,0,1,4.477-.3A33.357,33.357,0,0,1,56.97,9.61c-1.579.831-3.262,1.495-4.888,2.226a.223.223,0,0,1-.094.021.269.269,0,0,1-.256-.3q.123-.728.245-1.454a7.4,7.4,0,0,1-.95.563,6.444,6.444,0,0,1-1.2,4.253,8.635,8.635,0,0,0,1.579-.537,6.707,6.707,0,0,0,2.352-1.564,9,9,0,0,0,.768-.863.176.176,0,0,1,.108.194c-.066.749-.161,1.526-.306,2.3a12.142,12.142,0,0,1-.485,1.309,7.958,7.958,0,0,1-1.262,1.777c-.1.118-.023.339.156.29a2.514,2.514,0,0,0,.646-.287,6.951,6.951,0,0,1-2.882,3.25,4.268,4.268,0,0,1-2.041.613,2.423,2.423,0,0,1-1.741-.707c-.128-.123-.262-.26-.4-.408.271,3.448.577,6.916-.627,10.132.318.167.631.342.932.539a10.41,10.41,0,0,1,2.056,1.973c.134.152.436.094.405-.147a3.3,3.3,0,0,0-.248-.89,9.092,9.092,0,0,1,3.652,4.352,6.957,6.957,0,0,1,.375,1.361,7.4,7.4,0,0,1,1.693.712,9.982,9.982,0,0,1,4.128,4.675,3.645,3.645,0,0,0-.926-.414c-.257-.072-.368.246-.225.417a11.456,11.456,0,0,1,1.807,2.554,17.621,17.621,0,0,1,.692,1.881c.206,1.111.34,2.228.432,3.3a.253.253,0,0,1-.155.279,12.88,12.88,0,0,0-1.1-1.242,9.621,9.621,0,0,0-3.371-2.253,12.314,12.314,0,0,0-2.266-.776,9.4,9.4,0,0,1,1.6,7.078,15.186,15.186,0,0,1-1.2,3.76A15.135,15.135,0,0,0,53,56.16c-.131-.18-.481-.134-.455.132.239,2.48-.87,4.582-1.9,6.724-.847,1.143-1.723,2.248-2.552,3.318,0,.017,0,.033,0,.05a.355.355,0,0,1-.325.346c-.6-2.828-.8-5.746-1.868-8.455a.247.247,0,0,0-.474.012c-.095.331-.22.644-.343.957-1.008-1.51-2.282-2.818-3.245-4.351a5.81,5.81,0,0,1-.534-1.085c-.065.086-.13.172-.2.256a12.466,12.466,0,0,1-2.728,2.552,4.4,4.4,0,0,1,2.213,5.178,7.119,7.119,0,0,1-.458,1.294c-.073-.174-.155-.348-.243-.527-.109-.219-.51-.214-.516.076a5.63,5.63,0,0,1-.972,2.992,17.133,17.133,0,0,1-3.732,3.018.244.244,0,0,1-.055.024A5.256,5.256,0,0,0,34.768,66.729ZM21.894,32.655a4.553,4.553,0,0,0-1.453,2.119,7.505,7.505,0,0,0-.456,2.351,5.236,5.236,0,0,0,2.437-.19c1.564-.5,3.47-2.256,2.329-4.011a1.647,1.647,0,0,0-1.433-.751A2.454,2.454,0,0,0,21.894,32.655Z" transform="translate(1487.158 771.251)"/><path class="c" d="M74.346,147.775a5.6,5.6,0,0,1-.661-1.4,1.846,1.846,0,0,1,.147-1.469,4.449,4.449,0,0,1,.583-.774c.02-.025.092-.078.069-.119a.044.044,0,0,0-.027-.023c-.136.087-.261.187-.4.281a1.406,1.406,0,0,1-.98.333c-.516-.046-1.111-.449-1.615-.282.02-.008.041-.014.06-.023a.6.6,0,0,0,.159-.089c.432-.326.465-1.148.606-1.583a1.915,1.915,0,0,1,1.376-1.184l-.034-.01c-1.415-.4,0-1.946-.464-2.621l.027.013c.769.286,1.668-.008,2.5.386a2.276,2.276,0,0,1,.786.519,1.6,1.6,0,0,1,.329.742,2.784,2.784,0,0,1,.032.85,1.976,1.976,0,0,1-.035.2c0,.021-.01.065-.02.1a.116.116,0,0,1-.035.071h0c.013.012.024.023.038.034a.56.56,0,0,0,.085-.112,2.571,2.571,0,0,0,.181-.908c.046-.311.047-.644.082-.953a11.177,11.177,0,0,0-.278-3.242c-.037-.1-.075-.209-.112-.312-.18-.137-.355-.284-.54-.415a2.539,2.539,0,0,0-.286-.179l-.1-.059c-.392.082-.793.008-.727-.3.159-.757.324-1.516.489-2.276a25.9,25.9,0,0,1-1.363-4.5q-.138-.718-.231-1.445a19.867,19.867,0,0,1-3.4,6.375c-.263.328-.578.556-.863.856a4.559,4.559,0,0,1-.843.771l-.017.009a.276.276,0,0,0,.086,0,.554.554,0,0,0,.3-.157,1.371,1.371,0,0,1,.352-.25,2.442,2.442,0,0,1,.452-.131,1.635,1.635,0,0,1,.508.012,2.156,2.156,0,0,1,.938.411,3.332,3.332,0,0,1,.773.933c.177.287.293.735.6.887a.794.794,0,0,0,.1.038c-.056-.016-.194.107-.237.139a2.006,2.006,0,0,0-.223.186c-.146.138-.278.289-.417.428a1.144,1.144,0,0,1-.914.438.98.98,0,0,1-.607-.305c-.045-.046-.105-.154-.185-.132-.162.05.019.465.049.562a2.191,2.191,0,0,1,.023.838,3.708,3.708,0,0,1-.2.787,4.014,4.014,0,0,1-.32.746c-.148.259-.4.562-.552.835-.012.042-.023.085-.039.125a.767.767,0,0,0-.021-.265.365.365,0,0,0-.118-.232c-.073-.075-.156-.141-.233-.213a2.6,2.6,0,0,1-.609-.7,2.01,2.01,0,0,1-.186-1.2c.03-.17.136-.289.175-.443.057-.225-.194-.137-.281-.066a5.166,5.166,0,0,0-.417.446c-.257.265-.467.553-.725.815a4.073,4.073,0,0,1-.907.768,1.522,1.522,0,0,1-.988.263c-.235-.043-.465-.157-.7-.211a5.953,5.953,0,0,0-.675-.12c-.268-.032-1.037-.167-1.157.2.014-.047.027-.093.042-.14a7.034,7.034,0,0,0,.352-1.69,5.9,5.9,0,0,1,.285-1.618,1.977,1.977,0,0,1,1.031-1.188,4.834,4.834,0,0,1,.984-.313c.032-.008.125-.009.132-.059a.042.042,0,0,0-.009-.037c-.1-.005-.205,0-.307,0-.069,0-.14,0-.21,0a1.5,1.5,0,0,1-1.057-.312c-.419-.358-.69-1.073-1.231-1.238.024.007.045.013.068.017a.658.658,0,0,0,.194.022c.575-.02,1.111-.713,1.5-1a2.034,2.034,0,0,1,1.925-.185.3.3,0,0,0-.024-.028c-.982-1.22,1.2-1.691,1.209-2.562.005.008.01.016.014.024.492.721,1.456,1.021,1.934,1.876a2.418,2.418,0,0,1,.363.934,1.684,1.684,0,0,1-.169.849,2.99,2.99,0,0,1-.5.756,2.127,2.127,0,0,1-.157.156c-.015.014-.048.049-.079.077a.127.127,0,0,1-.074.039l0,0c0,.018.007.036.012.054a.559.559,0,0,0,.141-.045,2.775,2.775,0,0,0,.715-.678c.231-.242.437-.53.658-.779a10.373,10.373,0,0,0,1.491-2.422c.867-1.8,1.4-3.756,2.1-5.635q-.04-.841-.006-1.685a16.78,16.78,0,0,1,2.021-7.348c.368-.676.759-1.327,1.162-1.959-.444-3.119-1.079-6.2-1.246-9.383a24.818,24.818,0,0,1,4.3-16.034,5.878,5.878,0,0,0-.031-2.634l-.014-.007a2.716,2.716,0,0,0-.336-.157c-.236-.094-.482-.165-.718-.25a1.442,1.442,0,0,1-1-.817,1.229,1.229,0,0,1,.023-.862c.031-.077.121-.205.051-.285-.145-.16-.524.271-.62.359a2.791,2.791,0,0,1-.953.48,4.7,4.7,0,0,1-1.015.2A4.92,4.92,0,0,1,74.425,85c-.379-.028-.865-.158-1.264-.183a1.474,1.474,0,0,1-.163.022,1.12,1.12,0,0,0,.294-.166.469.469,0,0,0,.2-.263c.049-.126.083-.255.124-.384A3.274,3.274,0,0,1,74.1,82.94c.019-.024.04-.049.06-.074A5.069,5.069,0,0,0,71.643,84.8c-1.027,1.482-1.436,3.554.09,4.906,2.281,2.019,5.112-1.4,2.5-2.432-.3-.119.342-.435.561-.348,2.349.932.772,3.366-.968,3.91-2.861.891-4.326-2.807-3.479-4.966a6.543,6.543,0,0,1,3.315-3.288,33.352,33.352,0,0,1,6.4,1.328,4.645,4.645,0,0,0-.093.555l0,0a4.844,4.844,0,0,1,.093-.559c.47.147.937.3,1.4.471a6.068,6.068,0,0,1-.462.81c-.111.17-.269.342-.407.522a5.7,5.7,0,0,1,.316,2.147,21.069,21.069,0,0,1,2.627-2.649c.364.16.726.328,1.084.5a21.655,21.655,0,0,0-4.3,5.19,6.963,6.963,0,0,1,1.734.757,7.71,7.71,0,0,1,1.852,1.316,31.854,31.854,0,0,1,2.548-2.065c.577-.352,1.18-.527,1.777-.817l.146-.073h-.058a4.148,4.148,0,0,1-.755-.048,2.77,2.77,0,0,1-.762-.3,3.45,3.45,0,0,1-1.192-1.137,5.318,5.318,0,0,1-.656-1.84c-.055-.262-.067-.575-.109-.873q1.036.511,2.03,1.089.054.083.106.168l.009.007q-.053-.086-.107-.17a33.66,33.66,0,0,1,9.494,8.251c-.353.146-.684.3-.957.38a3.277,3.277,0,0,1-3.012-.778l.019.055a11.747,11.747,0,0,1-.692-1.341L91.7,93.4c.012.028.023.056.036.084a11.747,11.747,0,0,0,.692,1.341c.814,2.386-2.744,1.9-3.239,3.209,0-.014,0-.027-.007-.04-.346-1.367-1.642-2.346-1.9-3.9a3.971,3.971,0,0,1-.036-1.615,2.752,2.752,0,0,1,.725-1.19,4.774,4.774,0,0,1,1.165-.871,3.461,3.461,0,0,1,.322-.15c.032-.014.1-.05.164-.074a.4.4,0,0,1,.05-.015c.016-.058.031-.116.044-.175l0,0c-.055-.053-.035-.1.008-.125a.394.394,0,0,0-.2-.112.471.471,0,0,0-.1-.019,11.071,11.071,0,0,0-1.043.536c-.482.239-.951.561-1.422.816a9.361,9.361,0,0,0-2.8,2.144,4.946,4.946,0,0,1,.359.45,8.9,8.9,0,0,1,.967,7.813,6.168,6.168,0,0,1,1,.376c.245.091.478.176.715.282.492.217.986.3,1.461.553a5.768,5.768,0,0,0,1.817.508c.376.054.768.149,1.149.19a3.376,3.376,0,0,0,1.138.066.734.734,0,0,0,.164-.06.589.589,0,0,0-.027-.053l0,0a.148.148,0,0,1-.1.022c-.05,0-.1-.01-.128-.011-.086,0-.169-.01-.253-.019a3.442,3.442,0,0,1-.986-.286,1.755,1.755,0,0,1-.743-.584,2.386,2.386,0,0,1-.308-1.027c-.139-1.039.553-1.952.518-2.893,0-.011,0-.022,0-.032.24.282.755.277,1.284.274.811-.006,1.658-.012,1.612,1.011,0,.014,0,.025,0,.041a2.56,2.56,0,0,1,1.925-1.18c.162-.009.358,0,.568.012a2.588,2.588,0,0,0,1.527-.22,2.154,2.154,0,0,1-.329.2,8.891,8.891,0,0,0-1.05.557,8.891,8.891,0,0,1,1.05-.557,2.154,2.154,0,0,0,.329-.2.882.882,0,0,0,.166-.152c.018-.02.033-.041.05-.061-.391.509-.151,1.293-.3,1.879a1.764,1.764,0,0,1-.769.993c-.162.122-.328.231-.483.358a.042.042,0,0,0,.016.038c.04.036.129-.028.165-.043a6.331,6.331,0,0,1,1.135-.421,2.369,2.369,0,0,1,1.786.269,5.5,5.5,0,0,1,1.012.773q.478,1.058.884,2.153l-.1.1c-.19.18-.376.369-.548.568s-.318.46-.508.66a1.959,1.959,0,0,1-1.105.468,5.133,5.133,0,0,1-1.38-.008c-.421-.041-.815-.131-1.239-.173a6.541,6.541,0,0,0-.7-.085c-.13,0-.426.1-.215.252.141.1.322.125.468.247a1.982,1.982,0,0,1,.65,1.117,2.593,2.593,0,0,1-.085,1.007c-.022.114-.052.226-.068.34a.358.358,0,0,0,.05.274c.034.058.1.2.161.234-.04-.022-.078-.049-.117-.076-.33-.124-.779-.2-1.1-.312a4.351,4.351,0,0,1-.813-.4,3.9,3.9,0,0,1-.73-.513,2.2,2.2,0,0,1-.556-.711c-.038-.1-.156-.573-.342-.5-.089.035-.074.167-.081.238a1.1,1.1,0,0,1-.357.671,1.447,1.447,0,0,1-1.157.271c-.228-.02-.456-.052-.686-.067a2.8,2.8,0,0,0-.337,0c-.063,0-.274,0-.318.05a.769.769,0,0,0,.069-.1c.179-.336-.021-.787-.051-1.147a3.37,3.37,0,0,1,.076-1.312,2.463,2.463,0,0,1,.594-.991,2.135,2.135,0,0,1,.464-.36,3.03,3.03,0,0,1,.515-.2.95.95,0,0,1,.352-.038c.05,0,.1,0,.151,0a.726.726,0,0,0,.385-.075.408.408,0,0,0,.076-.063l-.022,0a5.622,5.622,0,0,1-1.323-.058c-.471-.049-.922-.018-1.395-.109-.362-.07-.722-.191-1.066-.265a11.3,11.3,0,0,1-1.971-.567c-.422-.181-.872-.372-1.307-.533-.081-.03-.27-.1-.447-.189a24.8,24.8,0,0,1-2.8,5.772c.17.274.286.633.439.885a11.6,11.6,0,0,0,.706,1.028,16.39,16.39,0,0,0,3.142,3.473c.3.212.59.471.9.672a3.009,3.009,0,0,0,.934.552.641.641,0,0,0,.163.014c0-.02,0-.04,0-.059l0,0a.14.14,0,0,1-.09-.022c-.04-.022-.083-.051-.1-.065a2,2,0,0,1-.205-.13,3.256,3.256,0,0,1-.717-.69,1.855,1.855,0,0,1-.389-.865,2.718,2.718,0,0,1,.159-1.094c.306-1.036,1.271-1.592,1.62-2.491,0-.007,0-.015.007-.023.224.931,2.678.9,1.923,2.451l-.017.035a2.247,2.247,0,0,1,2.109-.273c.491.218,1.234.83,1.856.709a1.777,1.777,0,0,1-.36.05,1.777,1.777,0,0,0,.36-.05.741.741,0,0,0,.2-.071l.067-.033c-.539.309-.654,1.144-1.017,1.628a1.65,1.65,0,0,1-1.057.6c-.187.044-.371.075-.554.126a.048.048,0,0,0,0,.042c.014.039.076.036.121.032a.269.269,0,0,1,.037,0,5.184,5.184,0,0,1,1.132.1,2.169,2.169,0,0,1,1.4,1.02,6.471,6.471,0,0,1,.7,1.668,7.866,7.866,0,0,0,.794,1.73l-.032-.024.032.024.081.138c-.222-.367-1.013-.034-1.292.067-.234.086-.469.184-.694.293s-.457.3-.7.4a1.668,1.668,0,0,1-1.123-.04,4.532,4.532,0,0,1-1.163-.6c-.341-.219-.636-.474-.977-.7a5.485,5.485,0,0,0-.556-.376c-.111-.056-.4-.091-.285.139.08.155.222.257.3.434A2.213,2.213,0,0,1,90.5,119.7a2.863,2.863,0,0,1-.482.9c-.067.1-.136.189-.2.287a.422.422,0,0,0-.07.278.919.919,0,0,0,.043.291,1.439,1.439,0,0,1-.075-.132c-.23-.256-.572-.517-.793-.755a4.286,4.286,0,0,1-.526-.723,4.021,4.021,0,0,1-.408-.8,2.42,2.42,0,0,1-.18-.9c.008-.112.1-.6-.086-.615-.091,0-.13.126-.166.189a1.082,1.082,0,0,1-.577.473,1.247,1.247,0,0,1-1.088-.246c-.185-.118-.363-.245-.552-.358a3.053,3.053,0,0,0-.286-.146c-.054-.023-.232-.118-.289-.09a.572.572,0,0,0,.1-.066c.289-.237.3-.745.426-1.1a3.6,3.6,0,0,1,.6-1.192,2.359,2.359,0,0,1,.9-.671,1.822,1.822,0,0,1,.544-.137,2.683,2.683,0,0,1,.516.031,1.538,1.538,0,0,1,.441.182.611.611,0,0,0,.355.1.3.3,0,0,0,.091-.026l-.021-.005a4.926,4.926,0,0,1-1.093-.625c-.379-.248-.773-.415-1.136-.7a16.6,16.6,0,0,1-2.57-2.694A10.111,10.111,0,0,1,82.973,109a7.6,7.6,0,0,1-.572-1.069c-.715,1.109-1.433,2.107-2.044,2.941-.636.869-1.282,1.752-1.91,2.669a38.859,38.859,0,0,1,.424,6.773q.154.185.321.358c.243.25.471.544.723.787a2.883,2.883,0,0,0,.78.681.582.582,0,0,0,.152.041c0-.019.006-.038.009-.058l0,0c-.019,0-.049-.014-.079-.037a1.058,1.058,0,0,1-.086-.079,2.1,2.1,0,0,1-.17-.155,3.168,3.168,0,0,1-.553-.772,1.776,1.776,0,0,1-.215-.882,2.559,2.559,0,0,1,.341-1c.467-.92,1.468-1.274,1.953-2.057l.011-.02c.049.912,2.356,1.312,1.379,2.634-.007.008-.014.02-.023.032a2.138,2.138,0,0,1,2.028.111c.421.289,1.012.993,1.616.986-.026,0-.052,0-.079,0,.027,0,.053,0,.079,0a.657.657,0,0,0,.2-.028l.069-.022c-.56.2-.814.96-1.238,1.35a1.551,1.551,0,0,1-1.1.376c-.183.011-.362.007-.542.022a.041.041,0,0,0-.008.039c.008.051.108.049.143.057a5.04,5.04,0,0,1,1.044.287,2.076,2.076,0,0,1,1.134,1.2,6.239,6.239,0,0,1,.368,1.688,7.375,7.375,0,0,0,.442,1.759c.019.049.036.1.051.145-.141-.382-.942-.208-1.223-.161a6.692,6.692,0,0,0-.7.152c-.244.068-.479.2-.725.255a1.6,1.6,0,0,1-1.048-.237,4.221,4.221,0,0,1-.987-.765c-.281-.266-.513-.556-.8-.824a5.378,5.378,0,0,0-.455-.451c-.094-.069-.362-.153-.293.082a4.909,4.909,0,0,1,.205.457,2.129,2.129,0,0,1-.144,1.261,1.718,1.718,0,0,1-.3.446c.311.847,2.669,1.181,1.748,2.516q-.2.186-.394.392.19-.2.394-.391c-.008.011-.014.022-.022.034a2.56,2.56,0,0,1,2.258.021c.5.273,1.217.965,1.887.933a.912.912,0,0,0,.221-.04l.076-.026c-.6.226-.814,1.017-1.249,1.436a1.768,1.768,0,0,1-1.177.435c-.2.018-.4.022-.6.047a.041.041,0,0,0,0,.04c.013.052.123.044.162.051a6.314,6.314,0,0,1,1.185.244,2.364,2.364,0,0,1,1.371,1.174,6.1,6.1,0,0,1,.564,1.7,7.419,7.419,0,0,0,.656,1.775c.023.049.048.1.071.146-.194-.383-1.066-.169-1.373-.11-.258.051-.516.113-.767.189s-.512.223-.78.292a1.95,1.95,0,0,1-1.184-.19,5.129,5.129,0,0,1-1.166-.738c-.337-.258-.621-.544-.959-.8a6.546,6.546,0,0,0-.546-.442c-.113-.066-.416-.138-.317.1.067.16.207.277.266.457a1.979,1.979,0,0,1-.041,1.291,2.647,2.647,0,0,1-.607.81c-.079.085-.165.162-.239.251a.368.368,0,0,0-.1.259.765.765,0,0,0,.015.284,1.253,1.253,0,0,1-.064-.13c-.215-.279-.553-.581-.761-.842a4.325,4.325,0,0,1-.479-.767,3.918,3.918,0,0,1-.347-.824,2.2,2.2,0,0,1-.094-.9c.022-.107.169-.569-.027-.606-.094-.017-.15.1-.194.16a1.106,1.106,0,0,1-.66.381,1.119,1.119,0,0,1-.722-.127,13.92,13.92,0,0,1,.239,3.108c-.022.4-.14.741-.2,1.123a4.275,4.275,0,0,1-.224,1.049l-.008.016a.294.294,0,0,0,.068-.042.518.518,0,0,0,.141-.28,1.3,1.3,0,0,1,.134-.383,2.346,2.346,0,0,1,.274-.347,1.618,1.618,0,0,1,.4-.267,2.024,2.024,0,0,1,.94-.194,3.126,3.126,0,0,1,1.1.3c.292.125.624.4.94.356l-.021.016.021-.016c.032-.008.067-.016.1-.026-.05.018-.09.185-.106.234a2.019,2.019,0,0,0-.07.263c-.036.185-.057.371-.086.554a1.073,1.073,0,0,1-.463.833.928.928,0,0,1-.63.1c-.06-.013-.165-.063-.213,0-.1.126.265.343.341.4a2.059,2.059,0,0,1,.472.628,3.36,3.36,0,0,1,.274.712,3.648,3.648,0,0,1,.16.744c.028.276,0,.643.03.935.015.041.031.082.041.122-.015-.054-.121-.148-.161-.191a.35.35,0,0,0-.215-.114c-.1-.018-.2-.026-.3-.037a2.429,2.429,0,0,1-.85-.209,1.915,1.915,0,0,1-.791-.815c-.068-.145-.051-.3-.105-.433-.077-.206-.223,0-.251.1a4.747,4.747,0,0,0-.076.572c-.053.34-.059.674-.112,1.017a3.889,3.889,0,0,1-.281,1.081,1.44,1.44,0,0,1-.614.737c-.2.094-.443.132-.652.217a6.271,6.271,0,0,0-.582.276A2.928,2.928,0,0,0,75.2,149l-.28.042A6.109,6.109,0,0,0,74.346,147.775Zm.189-6.222-.028-.005Zm4.615-.155a2.611,2.611,0,0,0,1.782-.473,2.611,2.611,0,0,1-1.777.472Zm-3.534-.583-.027-.02a.209.209,0,0,0-.048-.022Zm-2.879-4.056A2.82,2.82,0,0,1,71,136.076l-.008,0A2.822,2.822,0,0,0,72.737,136.759Zm3.55-1.391h0c.05-.012.1-.025.152-.04h0C76.387,135.343,76.337,135.356,76.287,135.368Zm1.506-.826a3.722,3.722,0,0,1-.965.643,0,0,0,0,0,0,0,3.716,3.716,0,0,0,.973-.648Zm-13.685-.811a4.1,4.1,0,0,0-.721.113,4.021,4.021,0,0,1,.721-.112l.071,0Zm12.71-.119a2.225,2.225,0,0,1,.242-.246,2.446,2.446,0,0,1,1.028-.527,2.22,2.22,0,0,1,.586-.059,3.128,3.128,0,0,1,.544.1,1.683,1.683,0,0,1,.447.234.731.731,0,0,0,.365.142.356.356,0,0,0,.1-.013l-.022-.009a5.653,5.653,0,0,1-1.09-.75c-.373-.291-.774-.506-1.126-.833-.193-.178-.37-.377-.547-.566Q77.086,132.349,76.818,133.612Zm-8.537-.22c0-.012-.008-.023-.013-.033a.185.185,0,0,0-.028-.05Q68.259,133.351,68.28,133.393Zm10.759-8.223a1.028,1.028,0,0,1-.622.346l-.074.008c-.26,1.759-.585,3.507-.937,5.252a7.808,7.808,0,0,0,.877.848c.292.246.572.534.874.77a3.42,3.42,0,0,0,.931.659.761.761,0,0,0,.172.036c0-.02,0-.039,0-.059l0,0a.152.152,0,0,1-.091-.033c-.042-.027-.085-.064-.1-.077-.07-.046-.137-.1-.2-.15a3.42,3.42,0,0,1-.684-.765,1.747,1.747,0,0,1-.32-.888,2.374,2.374,0,0,1,.284-1.032,3.976,3.976,0,0,1,1.184-1.323c-.164-.23-.369-.47-.5-.683a4.132,4.132,0,0,1-.368-.767,3.929,3.929,0,0,1-.243-.818,2.3,2.3,0,0,1-.012-.881c.028-.1.2-.545.027-.59l-.02,0C79.135,125.019,79.081,125.12,79.04,125.169Zm-3.19,6.541c.127-.594.253-1.189.373-1.785a6.767,6.767,0,0,1-.464-.588c-.262-.376-.541-.775-.823-1.139C75.173,129.389,75.5,130.549,75.849,131.711Zm10.788-.224c-.226-.017-.448-.05-.673-.071C86.189,131.436,86.412,131.469,86.638,131.486Zm-6.07-.1a.2.2,0,0,0-.008.033c.011-.03.023-.06.033-.091A.173.173,0,0,0,80.568,131.387Zm5.171.013-.131,0Zm-11.068-4.911q.049.458.121.907c.331.172.607.7.818.972.16.207.313.4.458.617.086.128.178.245.272.359.3-1.516.571-3.038.769-4.567-.042-.04-.084-.078-.127-.116a2.426,2.426,0,0,0-.242-.185c-.046-.032-.2-.152-.256-.137a.424.424,0,0,0,.105-.043c.312-.172.416-.646.59-.955.037-.066.075-.131.114-.2.091-.972.149-1.947.164-2.922.007-.517,0-1.03-.022-1.542-.185-.318-.364-.642-.54-.971a7.629,7.629,0,0,1-.458-.913A16.751,16.751,0,0,0,74.671,126.489Zm2.507-2.257v0a2.341,2.341,0,0,1-.588.066A2.387,2.387,0,0,0,77.178,124.232Zm2.272-2.411a2.768,2.768,0,0,1,.48.119,1.485,1.485,0,0,1,.382.248.58.58,0,0,0,.316.153.294.294,0,0,0,.089-.008l-.017-.01a4.837,4.837,0,0,1-.917-.774c-.308-.3-.643-.519-.928-.842-.008.156-.017.311-.028.468q-.026.36-.056.719c.049-.013.1-.025.148-.036a1.852,1.852,0,0,1,.386-.042C79.353,121.814,79.4,121.816,79.45,121.82Zm7.5-.924h0Zm-.24-.017.066.008-.066-.008-.032,0Zm-.152-.022L86.2,120.8Zm-.842-.109h0Zm-4.449-.213c0,.014-.009.027-.013.041.014-.031.027-.062.04-.093A.206.206,0,0,0,81.264,120.535Zm1.445-.044.027-.031Zm-5.989-4.2c.242.5.445,1.139.677,1.652-.051-.81-.132-1.615-.23-2.415Q76.938,115.9,76.72,116.287Zm8.455.928.021-.006ZM86.7,116.1a3.227,3.227,0,0,1-1.5,1.1,3.2,3.2,0,0,0,1.5-1.106Zm2.261-3.581c0,.013,0,.026,0,.039.007-.033.015-.067.022-.1A.217.217,0,0,0,88.961,112.521ZM77.4,106.778c.276,1.908.611,3.8.894,5.682.486-.689.978-1.362,1.464-2.027,3.711-5.07,8.973-12.853,2.286-17.806a11.678,11.678,0,0,0-2.048-1.15A24.235,24.235,0,0,0,77.4,106.778Zm14.211-.82a3.2,3.2,0,0,1-1.272,1.852,3.209,3.209,0,0,0,1.278-1.86Zm.679-4.145c0,.012.008.024.013.036q-.009-.051-.022-.1A.205.205,0,0,0,92.288,101.813Zm-2.669-8.777c0,.042,0,.082-.005.122l0,.073,0,.014.011.043c0-.08.007-.16.012-.239a1.732,1.732,0,0,0,0-.181A.34.34,0,0,0,89.618,93.036ZM89.6,92.4l0,.051c0,.007,0,.015,0,.022,0-.028,0-.055-.006-.083Zm-8.542,48.481c.013-.012.014-.011,0,0l0,0S81.054,140.876,81.054,140.877Zm-8.092-4.084,0,0c.018,0,.02,0,0,0Zm3.519-12.454h0l0,0C76.462,124.34,76.464,124.339,76.481,124.339Zm8.269-6.98c-.008,0,0,0,.01,0h0l0,0Zm5.513-9.445h0l0,0-.013.006Z" transform="translate(1458.446 694.61)"/><g class="d" transform="translate(1495 777)"><circle class="e" cx="33.5" cy="33.5" r="33.5"/><circle class="f" cx="33.5" cy="33.5" r="31.5"/></g></g></svg>