<svg xmlns="http://www.w3.org/2000/svg" width="67" height="67" viewBox="0 0 67 67"><defs><style>.a{fill:#f2f2f2;}.b{fill:#658d47;}.c{fill:#87a850;}.d{fill:#40621b;}.e{fill:#809850;}.f{fill:#3a5d1b;}.g{fill:#446823;}.h{fill:#4c713e;}.i{fill:#2b5920;}.j{fill:#4e782d;}.k{fill:#446e24;}.l{fill:#4d7530;}.m{fill:#436520;}.n{fill:#466a26;}.o{fill:#375c17;}.p{fill:#486c23;}.q{fill:#517727;}.r{fill:#769047;}.s{fill:#446724;}.t{fill:#573;}.u{fill:#4d7329;}.v{fill:#7f984b;}.w{fill:#6b933b;}.x{fill:#51772c;}.y{fill:#6a9338;}.z{fill:#3f631c;}.aa{fill:#91b64e;}.ab{fill:#65755d;}.ac,.ae{fill:none;}.ac{stroke:#eaeaea;stroke-width:4px;}.ad{stroke:none;}</style></defs><g transform="translate(-1477 -512)"><circle class="a" cx="33.5" cy="33.5" r="33.5" transform="translate(1477 512)"/><g transform="translate(1370.793 -365.253) rotate(30)"><path class="b" d="M571.432,940.53l-.279.593a2.019,2.019,0,0,1,1.617-.59l-.2.819a4.884,4.884,0,0,0,1.359-.664,1.368,1.368,0,0,0-.156.964A4.139,4.139,0,0,0,576.977,939a.908.908,0,0,0,.07-.406.843.843,0,0,0-.342-.516,4.673,4.673,0,0,0-1.5-.718l-.279-.095-1.727-.586c.119.328-.255.663-.6.648a1.62,1.62,0,0,1-.911-.473l-.108.73c-.368.012-.66-.29-.99-.453s-.878-.048-.851.32a.763.763,0,0,1-.756-.171,1.748,1.748,0,0,0-.7-.41c-.269-.045-.6.186-.515.446a.985.985,0,0,1-.544-.448.943.943,0,0,0-.55-.438c-.238-.037-.506.23-.375.432a1.317,1.317,0,0,0-.6-.656c-.283-.108-.684.1-.636.4A17.459,17.459,0,0,1,562.811,935a1.185,1.185,0,0,0,.108,1.252,4.583,4.583,0,0,0,2.39,2.022l-.852,0a.838.838,0,0,0,.562.769,2.455,2.455,0,0,0,1,.11.729.729,0,0,0-.677.366,7.417,7.417,0,0,0,2.366.284l-.757.312,1.6-.194.054.92a3.119,3.119,0,0,0,1.538-.438l-.2.5A1.579,1.579,0,0,0,571.432,940.53Z" transform="translate(-1.665 -199.892)"/><path class="c" d="M565.02,894.445a2.265,2.265,0,0,0-.957.07,7.694,7.694,0,0,0,1.345,1,.8.8,0,0,0-.435.44,2.634,2.634,0,0,0,1.634.488,3.358,3.358,0,0,0-.895.329,3.977,3.977,0,0,0,1.56.256,2.142,2.142,0,0,0-.524.555,2.187,2.187,0,0,0,1.439-.142,1.334,1.334,0,0,0-.316.547l1.695.018-.312.593,1.555,0a2.563,2.563,0,0,1-.287.751,3.4,3.4,0,0,0,1.7-.262.885.885,0,0,1-.281.609l1.306-.154-.181.563a3.036,3.036,0,0,0,2.791-.616,1.425,1.425,0,0,0,.573-1.3,1.828,1.828,0,0,0-.336-.642l-.573-.81a.979.979,0,0,0-.554-.466c-.244-.045-.527.224-.4.434a2.852,2.852,0,0,1-1.657-1.026,1.318,1.318,0,0,1-.255.679,5.207,5.207,0,0,1-1.359-1.05l-.449.492a6.024,6.024,0,0,0-1.012-1.107,1.247,1.247,0,0,0-.38.507,7.537,7.537,0,0,0-1-1.422,1.918,1.918,0,0,0-.441.523c-.239-.2-.26-.564-.43-.828s-.7-.3-.7.017a6.512,6.512,0,0,1-1.195-.991.953.953,0,0,0-.4.367,5.76,5.76,0,0,1-.646-1.218,1.636,1.636,0,0,1-1.748-.585,2.478,2.478,0,0,0,.829,1.693l-.856.128A7,7,0,0,0,565.02,894.445Z" transform="translate(-1.825 -163.926)"/><path class="d" d="M571.432,878.832a4.425,4.425,0,0,0,1.523-.136,1.5,1.5,0,0,0,1.039-1.037c.2-.969-.868-1.694-1.243-2.61l-.345.676-.986-1.034-.483.448a4.076,4.076,0,0,1-1.3-1.245,2.47,2.47,0,0,1-.25.815l-.7-.842a.363.363,0,0,0-.2-.147c-.278-.05-.291.465-.55.576a5.464,5.464,0,0,1-1.2-1.057l-.3.742-.713-1.213a1.924,1.924,0,0,0-.347.634l-.807-.955a.919.919,0,0,0-.351.6q-1.737-1.137-3.522-2.2c-.214.44.223.926.666,1.133s.976.341,1.219.765a1.524,1.524,0,0,0-1.131.329,3.51,3.51,0,0,0,1.674.811c-.292-.009-.714.172-.573.427a4,4,0,0,1,1.107.065l-.2.427A3.876,3.876,0,0,0,564.6,875l-.48.456,1.531.241-.28.521a12.6,12.6,0,0,0,1.762.307l-.479.287,1.967.555a.5.5,0,0,0-.35.277,4.71,4.71,0,0,0,1.255.035l-.44.4,1.738.075-.438.382a1.383,1.383,0,0,0,1.147-.136A.6.6,0,0,0,571.432,878.832Z" transform="translate(0 -147.363)"/><path class="e" d="M568.038,851.811l-.259.531a4.663,4.663,0,0,0,1.283.036l-.449.861a16.651,16.651,0,0,0,1.838.169l-.371.715,1.373.04-.266.614,1.366-.015-.334.634,1.6.023-.14.574a1.716,1.716,0,0,0,1.3-.446q-.008.4-.016.8a3.065,3.065,0,0,0,2.753-1.211.675.675,0,0,0,.153-.339.758.758,0,0,0-.115-.383l-.429-.841a.746.746,0,0,0-.324-.382c-.157-.067-.388.039-.368.209a2.333,2.333,0,0,1-.981-.967.953.953,0,0,1-.371.433l-1.368-1.308a.836.836,0,0,0-.235.484,13.456,13.456,0,0,1-1.316-.953q.007.193.014.386-.916-.533-1.807-1.107a.749.749,0,0,1-.219.314,8.147,8.147,0,0,1-1.524-1.037q0,.342,0,.684l-1.461-.867-.044.493a6.445,6.445,0,0,0-2.464-.788,1.636,1.636,0,0,0,1.2.884l-.862.565,1.476.2a.189.189,0,0,1,.194.276l-.165.748A6.275,6.275,0,0,1,568.038,851.811Z" transform="translate(-3.453 -129.608)"/><path class="f" d="M579.189,820.589a1.078,1.078,0,0,1-.025-.733.879.879,0,0,0-.083-.721c-.158-.194-.563-.142-.566.108l-.515-1.19c-.263.3-.717.606-1,.332a.74.74,0,0,1-.157-.282l-.338-.9a1.212,1.212,0,0,1-.54.435,6.293,6.293,0,0,0-.869-1.675c.087.139-.072.327-.236.328a.642.642,0,0,1-.421-.228,4.89,4.89,0,0,1-.727-.892l-.289.564a9.558,9.558,0,0,0-1.326-1.3l-.134.426-.992-1.326-.213.45a3.957,3.957,0,0,1-1.637-1.777l-.211.581a3.546,3.546,0,0,0-1.327-1.12,1.947,1.947,0,0,0,.353,1.017l-1.636.2a27.624,27.624,0,0,0,2.681,1.11l-.643.433a.737.737,0,0,1,.731,1.191l1.574.218a1.59,1.59,0,0,1-.333.671,2.877,2.877,0,0,0,1.391.229l-.6.668,1.732.043-.309.883,1.55.23-.206.737a4.707,4.707,0,0,0,1.954.286l-.333.62a9.805,9.805,0,0,0,1.919.357l-.561.442,1.067.221a.3.3,0,0,0,.022.322.857.857,0,0,0,1.3-.749l1.806-.742Z" transform="translate(-4.635 -98.902)"/><path class="g" d="M580.426,791.612a1.878,1.878,0,0,0,1.287.351l-.495.642a3.638,3.638,0,0,1,1.65.333l-.854.67,1.182.252-.326.483a5.337,5.337,0,0,0,1.471.237,1.818,1.818,0,0,1-.26.707l.935.026a1.351,1.351,0,0,1-.277.595,4.757,4.757,0,0,0,1.118-.017,1.654,1.654,0,0,0-.753.507,3.435,3.435,0,0,0,1.844.229l-.318.753,1.341.051a1.854,1.854,0,0,1-.24.753,5.88,5.88,0,0,0,1.374.078l-.112.553a1.3,1.3,0,0,0,1.889-.287,2.038,2.038,0,0,0,0-2.07,1.72,1.72,0,0,0-.592.539,6.176,6.176,0,0,1-.628-1.258l-.327.395a8.284,8.284,0,0,0-1.1-1.277,1.553,1.553,0,0,1-.351.649,2.613,2.613,0,0,1-1.148-1.2.585.585,0,0,0-.1.332l-.632-1.278-.289.43a3.952,3.952,0,0,0-1-1.34l-.152.346-.931-.875-.173.31-.669-1.191a.58.58,0,0,1-.3.346l-.562-.783-.151.3a13.928,13.928,0,0,1-1.405-.842,1.235,1.235,0,0,0,.675,1.131A1.9,1.9,0,0,1,580.426,791.612Z" transform="translate(-16.163 -81.207)"/><path class="h" d="M595.327,781.032a.763.763,0,0,0,.679-.22l.162.547a1.458,1.458,0,0,0,2.1-1.932l-.758-.089-.218-.771a.949.949,0,0,0-.256.531,2.3,2.3,0,0,0-.627-.8c-.2.247-.614.007-.742-.286s-.16-.655-.416-.844a.449.449,0,0,0-.217.406,5.458,5.458,0,0,0-.567-1.177,1.028,1.028,0,0,0-.152.457l-.8-1.018-.216.4-1.3-1.154-.148.421a5.83,5.83,0,0,1-.584-1.046.424.424,0,0,1-.165.273l-.711-.669c0,.247-.42.148-.524-.076s-.185-.542-.432-.545a1.908,1.908,0,0,0,.177,1.192l-.773.127a3.561,3.561,0,0,0,.87.634l-.423.372,1.166.193a1.823,1.823,0,0,0-.3.645,3.952,3.952,0,0,1,1.112.212,1.667,1.667,0,0,0-.264.582,4.987,4.987,0,0,1,1.027.254l-.257.378,1.187.091a1.133,1.133,0,0,0-.464.514l1.141.157-.41.558a2.409,2.409,0,0,0,1.053.117l-.188.4.823.036-.132.589.679-.05A1.087,1.087,0,0,0,595.327,781.032Z" transform="translate(-23.094 -67.599)"/><path class="i" d="M600.171,747.078a2.611,2.611,0,0,1-.324-1.027,1.851,1.851,0,0,0-.8.442,6.588,6.588,0,0,0-.1-1.761l-.626.543a3.976,3.976,0,0,0-.211-1.543l-.272.348-.352-1.277a.87.87,0,0,0-.392.372,6.6,6.6,0,0,0-1.066-1.782,1.858,1.858,0,0,0,.278,1.561.359.359,0,0,1-.423-.1,2.63,2.63,0,0,0,.7,1.1.591.591,0,0,0-.471.008,4.119,4.119,0,0,0,.732.914l-.533-.027a2.643,2.643,0,0,0,.534.817l-.534.005a2.567,2.567,0,0,0,1.368,1.144l-.756.34a2.454,2.454,0,0,0,1.289.816.458.458,0,0,0-.395.324,5,5,0,0,1,1.307.511.461.461,0,0,0-.408.276,5.14,5.14,0,0,0,1.178.495c-.166.024-.175.288-.045.394a.8.8,0,0,0,.48.109.489.489,0,0,1,.434.2l-.672.469a4.7,4.7,0,0,0,1.724.508.79.79,0,0,0-.3.379l1.594.418a1.927,1.927,0,0,1,.826-.589q-.1-.957-.205-1.912a1.032,1.032,0,0,1-.256.248l-.186-.936a1.04,1.04,0,0,0-.734.525l-.569-1.675a1.7,1.7,0,0,1-.648.484,5.839,5.839,0,0,0-.711-1.624A1.092,1.092,0,0,0,600.171,747.078Z" transform="translate(-28.864 -41.354)"/><path class="j" d="M608.888,732.405a1.784,1.784,0,0,0,1.134,1.038c-.408-.041-.63.548-.423.9a1.7,1.7,0,0,0,1.023.631l-.447.35a4.249,4.249,0,0,0,1.287.75l-.323.239a8.82,8.82,0,0,0,1.186.7.787.787,0,0,1-.161.358c.114.223.46.149.672.282a.939.939,0,0,1,.24.278,1.848,1.848,0,0,0,1.513.769,3.111,3.111,0,0,0,.06-2.5l-.383.046c-.06-.243-.3-.551-.485-.388a1.172,1.172,0,0,0-.978-1.177.953.953,0,0,0-.6-.788.68.68,0,0,0-.119-.388.235.235,0,0,0-.356-.02,2.941,2.941,0,0,0-.37-.772l-.3.16-.456-1.539-.618.29a2.9,2.9,0,0,0-.457-1.911.466.466,0,0,0-.092.4,1,1,0,0,0-.589-.682,2.038,2.038,0,0,0,.323,1.57,1,1,0,0,0-.61-.227,1.7,1.7,0,0,0,.883,1.513A1.17,1.17,0,0,1,608.888,732.405Z" transform="translate(-39.247 -31.57)"/><path class="k" d="M622.266,725.03l-.154-.914a.818.818,0,0,0-.159-.426.282.282,0,0,0-.406-.033c-.219-.285-.26-.673-.454-.975s-.7-.463-.886-.153a1.783,1.783,0,0,0-.318-1.222l-.349.258a5.084,5.084,0,0,0-.354-.9l-.242.159a3.713,3.713,0,0,1-.871-.73,1.544,1.544,0,0,0,.352,1.125l-.676.131,1.387,1.334a.738.738,0,0,0-.7.434l1.085.806a.779.779,0,0,0-.474.449,4.5,4.5,0,0,1,.905.6l-.235.3a.8.8,0,0,1,.505.9,6.38,6.38,0,0,0,1.327.018.649.649,0,0,0-.239.684,8.963,8.963,0,0,1,1.745.293q-.074-1.177-.149-2.353Z" transform="translate(-46.767 -23.915)"/><path class="l" d="M638.237,717.084l-.289.2a1.3,1.3,0,0,0,1.409.082,2.566,2.566,0,0,0-.127-1.92l-.249.224a7.608,7.608,0,0,0-.289-1.12l-.17.313-.293-.984a.784.784,0,0,0-.242-.435c-.137-.1-.378-.063-.417.1l-.14-.617a.286.286,0,0,0-.086-.175c-.053-.04-.15-.021-.158.045a.342.342,0,0,0-.414-.416,3.258,3.258,0,0,0-.33-.978,2.6,2.6,0,0,0-.156,1.187c-.147-.035-.268.155-.227.3a.617.617,0,0,0,.3.322.787.787,0,0,1,.333.3.4.4,0,0,0-.474.181,7.064,7.064,0,0,0,.969.848,1.251,1.251,0,0,0-.608-.018,1.319,1.319,0,0,0,.474.466.317.317,0,0,0-.245.109l.669.487a.849.849,0,0,1-.44.161,1.045,1.045,0,0,0,.547.543c-.142.029-.17.24-.081.354a.725.725,0,0,0,.379.2A.539.539,0,0,1,638.237,717.084Z" transform="translate(-61.755 -16.801)"/><path class="m" d="M651.629,704.862a3.611,3.611,0,0,0,.129.778c-.085-.1-.267-.039-.317.082a.425.425,0,0,0,.065.372,2.374,2.374,0,0,1,.208.332c-.09.135-.364-.029-.445.112-.048.083.031.18.1.243l.529.465-.523.039.556.566a.774.774,0,0,0-.4.122,4.237,4.237,0,0,0,.57.542c-.144-.052-.267.162-.2.3a.565.565,0,0,0,.375.242.657.657,0,0,1,.392.221,2.229,2.229,0,0,0,.543-1.442l-.4.1a2.153,2.153,0,0,0,.4-1.1,2.412,2.412,0,0,0-.636.286l.223-1.219-.15.224.065-1.255-.19.162a2.147,2.147,0,0,0-.545-.952,2.53,2.53,0,0,0-.05.823Z" transform="translate(-74.203 -10.808)"/><path class="n" d="M664.239,700.328l.436-1.108-.281.117a3.641,3.641,0,0,0-.089-1.124,1.047,1.047,0,0,0-.4.724.4.4,0,0,0-.264.339,1.18,1.18,0,0,0,.052.45c-.192.04-.343-.218-.538-.2s-.247.278-.181.454a3.8,3.8,0,0,1,.243.508l-.365.084.494.623a.188.188,0,0,0-.255.122.429.429,0,0,0,.053.314,1.331,1.331,0,0,0,.806.672c.005-.2.222-.307.377-.43a.532.532,0,1,0,.083-.635,5,5,0,0,1,.364-1.062A1.6,1.6,0,0,0,664.239,700.328Z" transform="translate(-83.697 -5.996)"/><path class="o" d="M675,695.1c-.205.02-.324-.236-.322-.442a2.745,2.745,0,0,1,.452-1.2,6.868,6.868,0,0,0,.638-1.736,2.045,2.045,0,0,1,.191.683l.18.043a4.635,4.635,0,0,1-.865,2.439A.428.428,0,0,1,675,695.1Z" transform="translate(-93.38 -0.682)"/><path class="p" d="M684.182,692.23a.306.306,0,0,0,.158-.107l.473-.494.094.189a2.115,2.115,0,0,0,.857-.794l.035.413q.565-.253,1.133-.5c.145-.063.372-.088.407.066a.241.241,0,0,1-.05.177.957.957,0,0,1-.53.4c-.114.033-.247.054-.314.152a.661.661,0,0,0-.065.211.553.553,0,0,1-.6.391c.108.09.027.282-.1.333a.81.81,0,0,1-.415-.008.419.419,0,0,0-.391.091,1.646,1.646,0,0,1,.3.388,3.581,3.581,0,0,0-.79.08l.116.393-1.8.092.613-1.294.166.164a5.671,5.671,0,0,0,.469-.749C683.937,692,684,692.26,684.182,692.23Z" transform="translate(-99.953)"/><path class="q" d="M676.757,707.7a2.173,2.173,0,0,0,.935-.126,1.246,1.246,0,0,0,.036.438l-1.556.256a.555.555,0,0,1,.244.262,1.3,1.3,0,0,1-.788.088.385.385,0,0,0,.152.318,2.49,2.49,0,0,1-1.343.176,1.489,1.489,0,0,1,1.206-1.073l.475-.588a.592.592,0,0,0,.657-.086Q676.766,707.533,676.757,707.7Z" transform="translate(-93.187 -13.49)"/><path class="r" d="M665.283,721.977l.956-.082a3.061,3.061,0,0,1-1.149.536.367.367,0,0,0,.337.2.9.9,0,0,1-.86.357l.426.156a2.589,2.589,0,0,1-1.13.138l.4.206a2.725,2.725,0,0,1-1.055.153.678.678,0,0,0,.221.3,2.91,2.91,0,0,1-.831.061l.174.245a1.25,1.25,0,0,1-1.229-.157c.044.119-.153.164-.277.135l-.873-.206a.593.593,0,0,1,.565-.721.389.389,0,0,0,.215-.019c.075-.044.093-.141.126-.221.2-.465.988-.43,1.16-.9a.3.3,0,0,1,.126.177,5.2,5.2,0,0,1,.829-.357.873.873,0,0,0,.052.318,3.939,3.939,0,0,0,.77-.31c-.078.064.078.149.176.126a3.316,3.316,0,0,0,.852-.322A.233.233,0,0,0,665.283,721.977Z" transform="translate(-81.669 -25.294)"/><path class="s" d="M661.433,737.869a1.663,1.663,0,0,0,.045.389,1.907,1.907,0,0,0,1.034-.363l.047.374a8.345,8.345,0,0,1,1.808-.311,1.384,1.384,0,0,0-.9.306.8.8,0,0,1,.507.5,4.215,4.215,0,0,1-.954-.037l.124.362a1.475,1.475,0,0,1-.784.123.439.439,0,0,1,.369.241l-1.049,0,.106.28a5.73,5.73,0,0,1-1.131-.14c.21,0,.2.372,0,.45a.772.772,0,0,1-.575-.107c.019.106-.042.259-.026.366-.528-.015-.68.315-1.291.058-.378-.159-.645-.249-.5-.643.1-.268.706-.49.926-.643a4.3,4.3,0,0,0,1.036-.992C660.368,738.917,661.209,738.263,661.433,737.869Z" transform="translate(-79.911 -38.469)"/><path class="t" d="M653.752,749.465a.407.407,0,0,0,.092.34c.35,0,.536-.411.831-.6.473-.3,1.254-.035,1.545-.513a1.687,1.687,0,0,0,1.47.162,3.7,3.7,0,0,1-1.194.683c.279-.034.377.423.169.612a1.018,1.018,0,0,1-.8.139.447.447,0,0,1-.369.735.505.505,0,0,0,.072.352,2.087,2.087,0,0,1-.712.093l.328.5a5.986,5.986,0,0,1-1.446.105.666.666,0,0,1-.626.507,1.945,1.945,0,0,1-.842-.185l.208.418-1.66.027c.1-.068.231.08.191.194a.359.359,0,0,1-.283.194,1.277,1.277,0,0,1-.83-.1.391.391,0,0,1,.174.4,2.55,2.55,0,0,1-.982-.135l.107.425a1.119,1.119,0,0,1-1.486-.5,1.388,1.388,0,0,1,.358-1.6c.635-.565,1.76-.659,2-1.475l.209.408a2.225,2.225,0,0,0,1.138-.794l.033.4a1.816,1.816,0,0,0,1.2-.588c-.01.23.344.277.536.151S653.524,749.494,653.752,749.465Z" transform="translate(-71.198 -47.332)"/><path class="u" d="M636.254,781.611a1.724,1.724,0,0,1,.249-1.454c.146-.149.5-.134.456.069l.484-1.246.235.279.643-1.054.1.485a2.08,2.08,0,0,0,.772-.8.674.674,0,0,0,.116.569,2.563,2.563,0,0,0,.684-.767l.116.519a5.111,5.111,0,0,0,1.453-1.132l.066.4a3.362,3.362,0,0,0,1.358-.772q0,.231-.008.461a7.147,7.147,0,0,0,1.476-.717q0,.2-.009.41a10.681,10.681,0,0,1,1.831-.264,1.627,1.627,0,0,1-.907.72.428.428,0,0,1,.174.314,3.642,3.642,0,0,1-1.169.248c.27.034.291.469.074.634a1.053,1.053,0,0,1-.789.1,1.883,1.883,0,0,1,.565.533,2.421,2.421,0,0,1-1.491.25l.245.266a2.305,2.305,0,0,1-1.4.026l.407.314-1.047.114c.226-.1.4.291.239.477a.792.792,0,0,1-.686.168l-.041.415a5.877,5.877,0,0,1-1.073.032c.132.022.111.245-.012.3a.47.47,0,0,1-.382-.065.489.489,0,0,0-.381-.073.929.929,0,0,1,.368.5,1.744,1.744,0,0,0-.943.177,3.334,3.334,0,0,1-1.771-.439,1.916,1.916,0,0,0-1.523.512Z" transform="translate(-60.671 -70.061)"/><path class="v" d="M641.289,800.25a3.232,3.232,0,0,0,1.064-.885.551.551,0,0,0,.2.486,2.1,2.1,0,0,0,1.4-1.067q.029.32.058.641a2,2,0,0,0,1-.783l.175.549a1.839,1.839,0,0,0,.954-.845l.113.378a2.231,2.231,0,0,0,1.011-.6,1.394,1.394,0,0,0,1.31-.492l.137.431,1.64-.569-.116.5a3.3,3.3,0,0,1,1.137-.21,1.964,1.964,0,0,1-1.595.827.592.592,0,0,0,.4.259,3.61,3.61,0,0,1-1.214.627c-.034-.1.18-.093.182.014s-.11.174-.207.218l-.741.343c.215-.071.366.273.234.456a.824.824,0,0,1-.61.246l-1.5.16a.674.674,0,0,1,.312.446l-1.921.179a.535.535,0,0,1,.569.354l-1.687.037a1.21,1.21,0,0,1,.536.422l-1.61.1a1.225,1.225,0,0,1,.2.488l-1.525-.049.268.423a1.674,1.674,0,0,1-1.168-.039l.222.3a3.31,3.31,0,0,1-1.464-.229,1.132,1.132,0,0,1-.672-1.207c.125-.483.864-.719,1.152-.311a2.439,2.439,0,0,1,.416-1.2.528.528,0,0,0,.78.033,1.527,1.527,0,0,0,.372-.8Z" transform="translate(-63.648 -87.294)"/><path class="w" d="M633.24,826.8q.946-1.132,1.966-2.2a.534.534,0,0,1,.264-.182c.151-.029.294.073.445.1.65.108.767-1.046,1.39-1.262.008.272.349.433.612.361a1.334,1.334,0,0,0,.627-.5,1.443,1.443,0,0,1,.617-.519q.009.259.019.518a3.223,3.223,0,0,0,1.2-.683q.018.34.037.681l.848-.508a1.032,1.032,0,0,0,.292.486,1.932,1.932,0,0,0,.768-.748l.288.61.688-.551a.571.571,0,0,0,.766.359,1.652,1.652,0,0,0,.7-.645.7.7,0,0,1,.213.4l.66-.529a.861.861,0,0,0,.653.825,2.518,2.518,0,0,0,1.129-.009,2.748,2.748,0,0,1-1.461.645.266.266,0,0,1,.228.4l-1.048.045a1.227,1.227,0,0,1,.274.572,8.391,8.391,0,0,1-1.651.059l.216.517-1.584.039a.5.5,0,0,1,.209.356,6.941,6.941,0,0,1-1.379.055.612.612,0,0,1,.253.419l-1.6-.008.233.425-2.479-.064a2.734,2.734,0,0,0,.2.773,6.035,6.035,0,0,1-2.011-.345.98.98,0,0,1,.173.668,10.161,10.161,0,0,1-2.811-.538l-1.194.532Z" transform="translate(-58.428 -107.35)"/><path class="x" d="M644.846,852.576l-1.592-.308q.012.321.023.642a12.493,12.493,0,0,1-1.719.01.657.657,0,0,0-.022.46,4.145,4.145,0,0,1-2.207-.582c-.5-.3-.974-.836-.811-1.391a1.462,1.462,0,0,1,.493-.649,9.344,9.344,0,0,1,1.179-.874.828.828,0,0,0,.332.565l.647-.943a.72.72,0,0,0,.913.381,2.09,2.09,0,0,0,.858-.672c-.041.331.392.554.707.447a1.5,1.5,0,0,0,.7-.686.482.482,0,0,0,.619.255,1.4,1.4,0,0,0,.572-.469.594.594,0,0,0,.753.312,1.724,1.724,0,0,0,.706-.554c-.006.293.371.466.649.376a1.4,1.4,0,0,0,.637-.581c-.071.372.493.546.831.375s.584-.51.948-.613l.149.471,2.186.1a1.828,1.828,0,0,1-1.785.61l.142.487a6.837,6.837,0,0,0-1.674.1l.54.525-1.645.262a.458.458,0,0,1,.251.536l-2.215.045a.657.657,0,0,1,.224.632l-1.558-.041A1.6,1.6,0,0,1,644.846,852.576Z" transform="translate(-63.747 -128.715)"/><path class="y" d="M641.351,880.407c-.519.118-1.029-.281-1.561-.252a3.47,3.47,0,0,0-.623.142,4.608,4.608,0,0,1-2.711-.466c-.411-.161-.9-.441-.855-.88.031-.311.326-.518.592-.682a2.849,2.849,0,0,1,2.274-.615l.67-.455c.026.316.505.283.787.138a9.193,9.193,0,0,0,1.383-.879.459.459,0,0,0-.027.426,4.093,4.093,0,0,0,1.938-.441l.022.363a10.856,10.856,0,0,0,2.535-.82.648.648,0,0,0,.573.522,1.893,1.893,0,0,0,.82-.122c-.074.185.219.281.418.263l1.586-.147a3.017,3.017,0,0,1-.905.642,1.2,1.2,0,0,1,.335.382,1.432,1.432,0,0,0-.736.138c-.4.195-.832.587-1.223.371l.118.838-1.745-.1.1.642a17.417,17.417,0,0,1-2.182-.181l-.045.677-1.441-.248Z" transform="translate(-61.383 -151.567)"/><path class="z" d="M647.018,904.215l-.061.365,3.014.181c.028.307-.37.448-.676.484l-2.128.25a.842.842,0,0,1,.19.692l-1.552-.261a.988.988,0,0,1,.1.686,8.241,8.241,0,0,1-1.669-.225l.141.744a6.907,6.907,0,0,1-1.928-.16c.191.268-.191.622-.518.585a5.293,5.293,0,0,1-.913-.366.871.871,0,0,0-.821.137.592.592,0,0,0-.107.78,4.426,4.426,0,0,1-2.747-1.046,1.505,1.505,0,0,1-.441-.544,1.449,1.449,0,0,1,.542-1.53,3.235,3.235,0,0,1,2.155-.822.922.922,0,0,0,.131.548l1.676-.633a1.387,1.387,0,0,0-.008.609,8.512,8.512,0,0,1,1.931-.748.773.773,0,0,1-.005.6l1.762-.313-.077.636A6.344,6.344,0,0,1,647.018,904.215Z" transform="translate(-62.393 -174.462)"/><path class="aa" d="M644.072,929.652l.19.75a4.7,4.7,0,0,1-2.036-.311c.119.057.107.249.006.335a.546.546,0,0,1-.377.09,3.594,3.594,0,0,1-1.852-.578,1.427,1.427,0,0,1-.608-.677c-.245-.7.431-1.371,1.085-1.716a6.806,6.806,0,0,1,1.468-.567l.046.4a3.219,3.219,0,0,0,1.737-.811.9.9,0,0,0,.171.572,3.951,3.951,0,0,0,2.791-.726.488.488,0,0,0,.046.541,14.566,14.566,0,0,1,5.06-1.132c-.265.689-1.124.89-1.855.993a.86.86,0,0,1,.231.5,15.222,15.222,0,0,1-1.887.038,1.315,1.315,0,0,1,.245.8,5.322,5.322,0,0,1-1.265,0l.332.574a3.7,3.7,0,0,1-1.489.133,1.51,1.51,0,0,1,.257.615l-1.136-.138a.483.483,0,0,1,.192.517A3.651,3.651,0,0,1,644.072,929.652Z" transform="translate(-64.45 -192.376)"/><path class="ab" d="M638.153,734.841l-.348.489c-.056.08-.122.167-.188.268l-.21.331-.242.384-.249.451c-.185.313-.344.683-.536,1.074-.168.4-.362.833-.524,1.31a21.01,21.01,0,0,0-.867,3.262,29.078,29.078,0,0,0-.441,3.97c-.027.711-.035,1.437-.027,2.187,0,.377.005.763-.011,1.158s-.059.8-.112,1.189-.111.779-.141,1.154c-.037.4-.047.771-.054,1.172,0,.79.039,1.6.081,2.417s.08,1.661.046,2.513c-.006.213-.022.427-.038.641l-.053.623-.1,1.242c-.125,1.659-.22,3.321-.3,4.956q-.027.611-.054,1.217c-.01.406-.029.814-.032,1.211-.009.792,0,1.581.025,2.355.054,1.548.179,3.043.35,4.454s.386,2.74.606,3.963.458,2.339.682,3.326c.11.494.22.954.322,1.38s.2.815.291,1.156a8.336,8.336,0,0,0,.546,1.508c.081.161.148.281.2.36l.073.119.01.016a.453.453,0,0,1-.77.477l-.088-.141c-.058-.094-.139-.234-.235-.422a9.269,9.269,0,0,1-.624-1.667c-.1-.362-.2-.757-.3-1.187s-.217-.894-.329-1.392c-.229-1-.472-2.123-.7-3.362a56.12,56.12,0,0,1-.943-8.559c-.026-.789-.027-1.591-.014-2.408.005-.408.026-.808.038-1.216s.04-.82.06-1.233c.09-1.644.214-3.312.359-4.978l.115-1.25.061-.621c.018-.2.035-.4.043-.6.043-.808.016-1.625-.013-2.444s-.065-1.641-.05-2.461c.011-.4.03-.836.072-1.223.039-.416.105-.806.161-1.191s.1-.751.121-1.124.023-.748.025-1.123c0-.755.032-1.5.074-2.223a26.635,26.635,0,0,1,.572-4.039,19.593,19.593,0,0,1,1.041-3.286c.193-.476.412-.9.61-1.3.224-.384.412-.745.621-1.048l.284-.436.273-.37.235-.317c.074-.095.148-.175.211-.25Z" transform="translate(-59.126 -35.99)"/></g><g class="ac" transform="translate(1477 512)"><circle class="ad" cx="33.5" cy="33.5" r="33.5"/><circle class="ae" cx="33.5" cy="33.5" r="31.5"/></g></g></svg>