<svg xmlns="http://www.w3.org/2000/svg" width="67" height="67" viewBox="0 0 67 67"><defs><style>.a{fill:#f2f2f2;}.b{fill:#607f38;}.c,.d{fill:#65873d;}.c{opacity:0.18;mix-blend-mode:multiply;isolation:isolate;}.e{fill:#6b8e3f;}.f,.h{fill:none;}.f{stroke:#eaeaea;stroke-width:4px;}.g{stroke:none;}</style></defs><g transform="translate(-1477 -512)"><circle class="a" cx="33.5" cy="33.5" r="33.5" transform="translate(1477 512)"/><g transform="translate(-447.431 158.614)"><path class="b" d="M2002.255,780.892c-.4-.624-.81-1.2-1.215-1.725-2.645-3.459-5.162-5.083-5.324-7.28-.187-2.533,4.508-7.041,2.224-10.417s-5.842-8.326-10.311-10.591-5.485-5-5.485-5c.055.059,3.544,3.816,6.764,4.576,3.245.766,5.552,1.2,6.5,4.973s3.558,4.551,4.167,6.83-.671,2.823-1.42,4.894-2.063,5.229-1.331,5.989,2.252,1.114,3.41,2.372l.065.072a8.578,8.578,0,0,1,1.316,2.818C2002.018,779.7,2002.255,780.892,2002.255,780.892Z" transform="translate(-44.42 -365.425)"/><path class="c" d="M2002.651,777l-1.039,1.4-.572.768c-2.645-3.459-5.162-5.083-5.324-7.28-.187-2.533,4.508-7.041,2.224-10.417s-5.842-8.326-10.311-10.591-5.485-5-5.485-5c.042.052,2.444,3.042,4.276,3.957,1.848.924,5.542,2.507,6.433,3.827s4.091,4.619,4.85,6.136,2.012,3.2.693,6.07-2.618,5.047-2.348,5.509-.72,1.254,1.886,3.3c1.172.92,1.877,1.012,2.3.835a1.144,1.144,0,0,0,.6-.835Z" transform="translate(-44.42 -365.425)"/><g transform="translate(1961.716 371.052)"><path class="b" d="M2539.39,532.393s-.219,2.913-3.888,6.325-5.72,9.152-6.981,13.028c-1.229,3.775,4.2,6.75,4.966,9.2q.031.1.052.2c.521,2.486-2.5,5.138-6.337,11.775.051-.1,2.24-4.5,2.987-6.07.756-1.587,2.138-3.265,2.632-4.2s-1.642-3.6-2.935-5.388-2.672-1.953-2.717-4.311,2.249-3.828,2.116-7.715,1.964-4.942,4.87-6.576S2539.39,532.393,2539.39,532.393Z" transform="translate(-2527.168 -532.393)"/><path class="c" d="M2552.548,532.393s-.219,2.913-3.887,6.325-5.72,9.152-6.981,13.028c-1.229,3.775,4.2,6.75,4.965,9.2-.222.015-.417-.024-.468-.188a26.182,26.182,0,0,0-3.992-4.882c-.786-.429-1.253-2.144-1.253-3.219s1.651-4.105,2.012-4.8.561-4.817,2.375-6.466,3.348-3.726,4.718-4.586S2552.548,532.393,2552.548,532.393Z" transform="translate(-2540.326 -532.393)"/></g><g transform="translate(1959.666 380.45)"><path class="d" d="M2503.81,751.024c-1.158,1.91-3.051,2.951-5.27,4.034s-3.1,2.775-2.9,4.471.345,5.478-1.018,7.953-2.934,3.913-5.379,4.012-3.109-2.356-4.721-.375-.7,3.33-1.989,5.379c-.148.236-.288.447-.419.636-1.009,1.453-1.517,1.6-1.517,1.6.142-.529.271-1.046.4-1.55.161-.647.315-1.272.475-1.871.719-2.683,1.589-4.862,3.96-6.263,3.314-1.959,4.172,1.033,6.909-1.267s2.065-7.625,2.2-10.575,7.647-4.267,8.9-7.086a20.663,20.663,0,0,0,1.087-2.966,7.236,7.236,0,0,0,.257-1.278S2504.969,749.113,2503.81,751.024Z" transform="translate(-2480.594 -745.875)"/><path class="c" d="M2512.423,751.024c-1.159,1.91-3.052,2.951-5.271,4.034s-3.1,2.775-2.9,4.471.346,5.478-1.018,7.953-2.934,3.913-5.379,4.012-3.109-2.356-4.721-.375-.7,3.33-1.989,5.379c-.148.236-.288.447-.419.636l-1.121.047c.161-.647.314-1.272.475-1.871a8.4,8.4,0,0,0,1.653-2.516c.264-.94,1.168-3.317,2.653-3.218s3.842,1.069,5.989,0,3.921-5.973,3.613-7.72-.346-4.553.3-5.54,3.613-2.675,6.087-3.715c2.038-.856,2.4-3.345,2.769-5.447.08-.451.16-.883.258-1.278C2513.4,745.875,2513.582,749.113,2512.423,751.024Z" transform="translate(-2489.207 -745.875)"/></g><path class="e" d="M2410.555,397.228c3.62,17.752,9.228,19.152,6.943,24.6s-8.964,10.458-10.194,11.492a9.85,9.85,0,0,0-2.109,3.346,15.271,15.271,0,0,1-1.055-4.555c0-1.933,11.1-3.569,11.073-14.845-.013-5.449-9.579-13.365-6.591-23.119,2.975-9.713,14.4-11.149,14.5-11.161C2423.017,383.023,2408.716,388.209,2410.555,397.228Z" transform="translate(-447.84 -18.51)"/><path class="d" d="M1957.436,417.2a1.016,1.016,0,0,1-.21-.158c-.355-.324-1.09-1.245-1.661-3.614-.782-3.243,2.055-4.588.6-7.889s-4.729-.4-9.313-1.627-6.405-3.8-6.985-7.629,2.784-8.685,4.552-10.8,1.461-4.715-1.887-7.118-6.109-4.605-6.76-7.61c-.629-2.9,2.148-6.854,2.339-7.12l0-.005,0-.007,0,0c-.015.028-.993,1.925-.9,6.123.092,4.229,13.345,9.307,11.2,13.206s-7.78,10.526-4.436,14.744,7.425.71,12.147,4.743S1958.737,411.168,1957.436,417.2Z"/><path class="c" d="M2433.46,397.228c3.62,17.752,9.228,19.152,6.943,24.6s-8.964,10.458-10.194,11.492a9.844,9.844,0,0,0-2.109,3.346c.727-2.671,1.352-4.009,5.855-7.919a17.141,17.141,0,0,0,5.989-9.947c.446-2.128-3.167-8.116-4.553-11.531s-3.266-5.889-2.722-13.115c.542-7.2,13.26-11.138,13.359-11.168C2445.922,383.023,2431.622,388.209,2433.46,397.228Z" transform="translate(-470.745 -18.51)"/><path class="c" d="M1976.277,417.2a1.02,1.02,0,0,1-.21-.158c-.224-.911-.684-2.748-.926-3.444-.328-.942,2.06-7.323.229-9.6s-3.415-1.237-8.215-2.177-6.087-3.662-6.356-7.325,4.228-9.651,4.921-10.838,1.187-3.2-2.425-5.395-6.533-5.3-7.621-8.314c-1.047-2.9,1.112-6.078,1.278-6.315l0-.005,0-.007,0,0c-.015.028-.993,1.925-.9,6.123.092,4.229,13.345,9.307,11.2,13.206s-7.78,10.526-4.436,14.744,7.425.71,12.147,4.743S1977.578,411.168,1976.277,417.2Z" transform="translate(-18.841)"/><path class="e" d="M2276.779,523.664c-.04,4.9-3.415,7.474-4.011,10.3l-.008.036c-.579,2.862-1.115,6.056-1.142,6.216.255-1.592.4-7.517.84-8.46.97-2.062,2.138-3.41,2.4-7.569.385-6.064-11.128-7.118-10.337-13.534s7.32-8.085,5.154-11.776a43.918,43.918,0,0,1-3.394-7.377v0c.02.04,2.591,5.193,5.289,7.469s-.314,3.576-2.125,4.834c-2.964,2.059-3.076,6.064-2.373,8.173s1.23,3.955,3.515,5.1S2276.819,518.747,2276.779,523.664Z" transform="translate(-314.332 -122.248)"/><path class="c" d="M2308.8,523.664c-.04,4.9-3.415,7.474-4.011,10.3.076-.724.15-1.36.207-1.68.182-1.023,1.567-2.128,2.59-5.278s.4-5.427-.412-6.664-4.617-2.122-6.169-3.579a11.307,11.307,0,0,1-2.969-6.186,8.157,8.157,0,0,1,1.5-5.377c.842-1.336,3.761-3.4,3.942-3.942s.214-1.254-1.221-2.87a39.834,39.834,0,0,1-3.954-6.887v0c.02.04,2.59,5.193,5.288,7.469s-.314,3.576-2.125,4.834c-2.964,2.059-3.076,6.064-2.373,8.173s1.23,3.955,3.515,5.1S2308.842,518.747,2308.8,523.664Z" transform="translate(-346.354 -122.248)"/></g><g class="f" transform="translate(1477 512)"><circle class="g" cx="33.5" cy="33.5" r="33.5"/><circle class="h" cx="33.5" cy="33.5" r="31.5"/></g></g></svg>