<svg xmlns="http://www.w3.org/2000/svg" width="67" height="67" viewBox="0 0 67 67"><defs><style>.a{fill:#f2f2f2;}.b{fill:#904c2a;}.c{fill:#7a4124;}.d{fill:#69a43e;}.e{fill:#5b8f36;}.f{fill:#3a4c63;}.g{fill:#303f52;}.h,.j{fill:none;}.h{stroke:#eaeaea;stroke-width:4px;}.i{stroke:none;}</style></defs><g transform="translate(-1477 -512)"><circle class="a" cx="33.5" cy="33.5" r="33.5" transform="translate(1477 512)"/><g transform="translate(1483.127 523.982)"><path class="b" d="M47.077,28.538H43.656a3.56,3.56,0,0,1-2.434,3.377l-2.907.969-7.868-5.409a3.962,3.962,0,0,1-1.629-4.095L30.828,14l-3.421,2.566-4.095,8.366a3.912,3.912,0,0,0,.371,5.017,3.961,3.961,0,0,1,.067,5.667L18,41.366H41.09l.508-3.554a3.93,3.93,0,0,0,.019-.867l3.732-2.239a3.56,3.56,0,0,0,1.728-3.052Z" transform="translate(-2.172 -1.448)"/><path class="c" d="M20.566,43,18,45.566H41.09L41.457,43Z" transform="translate(-2.172 -5.647)"/><g transform="translate(3 4)"><path class="d" d="M6.421,33.118H20.1A4.276,4.276,0,1,0,16.681,26.3c0-.009,0-.017,0-.027a4.276,4.276,0,0,0-8.552,0,4.228,4.228,0,0,0,.05.5,3.416,3.416,0,1,0-1.761,6.34Z" transform="translate(-3 -6.606)"/><path class="d" d="M43.222,10.842a4.265,4.265,0,0,0-7.7-2.539c0-.009,0-.018,0-.027a4.267,4.267,0,0,0-8.278-1.465,4.267,4.267,0,0,0-7.029,4.031h-.752a2.562,2.562,0,1,0-1.9,4.276h21.38A4.276,4.276,0,0,0,43.222,10.842Z" transform="translate(-4.738 -4)"/><path class="d" d="M56.67,25.986A3.4,3.4,0,0,0,51.5,23.06a3.394,3.394,0,0,0-5.95-1.88,3.4,3.4,0,0,0-5.862,3.109c-.042,0-.082-.013-.125-.013a2.566,2.566,0,0,0,0,5.131H53.249A3.421,3.421,0,0,0,56.67,25.986Z" transform="translate(-7.923 -6.317)"/></g><path class="e" d="M41.405,7.92a4.255,4.255,0,0,1-4.17,5.2H15.855a2.533,2.533,0,0,1-.84-.152c0,.051-.015.1-.015.152a2.565,2.565,0,0,0,2.566,2.566h21.38a4.27,4.27,0,0,0,2.46-7.765Z" transform="translate(-1.738 -0.568)"/><path class="e" d="M21.1,25.124a4.278,4.278,0,0,1-3.489,6.736H3.932a3.472,3.472,0,0,1-.4-.04A3.406,3.406,0,0,0,6.5,33.57H20.181a4.273,4.273,0,0,0,.924-8.446Z" transform="translate(-0.077 -3.059)"/><path class="e" d="M54.012,23.108a3.4,3.4,0,0,1-3.328,4.184H37a2.565,2.565,0,0,0,2.566,2.566H53.249a3.417,3.417,0,0,0,.763-6.749Z" transform="translate(-4.923 -2.767)"/><path class="c" d="M51.345,32.71V31H47.925a3.544,3.544,0,0,1-.446,1.71Z" transform="translate(-6.44 -3.91)"/><path class="c" d="M31.363,18.71,31.729,17H28.858l-.837,1.71Z" transform="translate(-3.623 -1.882)"/><path class="f" d="M12.818,53.679A5.131,5.131,0,0,0,17.826,57.7H40.382a5.131,5.131,0,0,0,5.009-4.018L46.208,50H12Z" transform="translate(-1.303 -6.661)"/><path class="f" d="M8,47.71a1.71,1.71,0,0,0,1.71,1.71H47.339a1.71,1.71,0,1,0,0-3.421H9.71A1.71,1.71,0,0,0,8,47.71Z" transform="translate(-0.724 -6.081)"/><path class="g" d="M43.642,50H12l.818,3.679A5.131,5.131,0,0,0,17.826,57.7H40.382a5.119,5.119,0,0,0,3.127-1.072,5.1,5.1,0,0,1-1.416.216H19.537a5.131,5.131,0,0,1-5.009-4.018l-.438-1.969H43.642Z" transform="translate(-1.303 -6.661)"/><path class="c" d="M38.373,43.709,36.7,43.372a6.556,6.556,0,0,0-1.907-6.056l1.183-1.236a8.258,8.258,0,0,1,2.4,7.628Z" transform="translate(-4.603 -4.645)"/><path class="c" d="M0,0H1.71V2.253H0Z" transform="translate(27.243 30.149) rotate(-49.38)"/></g><g class="h" transform="translate(1477 512)"><circle class="i" cx="33.5" cy="33.5" r="33.5"/><circle class="j" cx="33.5" cy="33.5" r="31.5"/></g></g></svg>