<svg xmlns="http://www.w3.org/2000/svg" width="67" height="67" viewBox="0 0 67 67"><defs><style>.a{fill:#f2f2f2;}.b{fill:#693;stroke:rgba(0,0,0,0);stroke-miterlimit:10;}.c,.e{fill:none;}.c{stroke:#eaeaea;stroke-width:4px;}.d{stroke:none;}</style></defs><g transform="translate(-1477 -512)"><circle class="a" cx="33.5" cy="33.5" r="33.5" transform="translate(1477 512)"/><path class="b" d="M14.773-169.053c-.076-.129-.16-.253-.247-.374h0c-.109-.151-.221-.3-.334-.448h0c-.073-.1-.145-.194-.213-.293l.274-.7c.066-.164.128-.342.211-.526l.255-.59c.09-.208.184-.428.284-.657s.2-.473.319-.718l.758-1.6c.284-.562.6-1.156.92-1.785s.706-1.267,1.084-1.943l.611-1.016c.21-.344.414-.7.645-1.049.454-.7.911-1.433,1.422-2.157.554-.822,1.149-1.65,1.777-2.485l-.493-.056H22.01a4.265,4.265,0,0,1-.525-.043,12.7,12.7,0,0,1-1.377-.229,15.333,15.333,0,0,1-5.413-1.811h0l-.067-.041-.005,0-.064-.04-.009-.005-.061-.04-.008,0-.053-.035-.013-.008-.054-.036-.018-.012-.049-.033-.024-.016-.044-.031-.027-.019-.033-.023-.037-.026-.027-.02-.042-.031-.025-.018-.043-.032-.024-.018-.1-.077-.013-.01-.057-.044-.011-.009c-.02-.015-.04-.031-.059-.047a.035.035,0,0,1-.009-.007l-.063-.051,0,0c-.058-.048-.114-.1-.171-.145l0,0-.064-.057-.005,0-.061-.056-.005,0c-.055-.05-.109-.1-.163-.154l0,0-.058-.058-.011-.011-.05-.05-.014-.014c-.015-.016-.031-.032-.047-.048l-.014-.015-.043-.045-.017-.019-.027-.03-.027-.028-.031-.034-.024-.027-.033-.037-.024-.028-.029-.032-.03-.034-.018-.021-.039-.047-.016-.019-.04-.05a.186.186,0,0,1-.013-.015l-.043-.053-.009-.011-.047-.059c-.077-.1-.152-.2-.224-.3a8.871,8.871,0,0,1-1.5-5.164,12.321,12.321,0,0,1,.611-3.743c.039-.118.078-.236.12-.353a.051.051,0,0,0,0-.011c.008-.021.015-.042.023-.063s.022-.059.031-.087l0-.008a31.552,31.552,0,0,1,4.69-7.764,16.531,16.531,0,0,0,1.875,8.214,8.613,8.613,0,0,0,1.994,3.037,2.919,2.919,0,0,0,1.14.757.9.9,0,0,0,1.077-.346,1.454,1.454,0,0,0-.108-1.277,6.559,6.559,0,0,0-.817-1.123,12.536,12.536,0,0,1-2.459-5.12l0-.011-.016-.075c0-.006,0-.012,0-.017-.005-.024-.01-.048-.015-.072l0-.015c-.005-.025-.01-.05-.015-.076a.005.005,0,0,0,0,0c-.017-.086-.032-.172-.048-.258-.008-.176-.012-.351-.012-.527a10.59,10.59,0,0,1,.582-3.489c.014-.041.029-.083.044-.124q.116-.316.252-.624l0-.007.01-.022c0-.01.009-.019.013-.029l0-.01.017-.037,0-.008a11.2,11.2,0,0,1,9.083-6.4l-.027.089a.2.2,0,0,1-.006.022l-.022.074,0,.015c-.018.063-.036.126-.053.189v0c-.009.032-.018.064-.026.1h0a13.827,13.827,0,0,0-.235,5.925s0,.007,0,.011a13.559,13.559,0,0,0,.942,3.1c.189.428.466.9.98.886a.864.864,0,0,0,.733-.5,2.565,2.565,0,0,0-.028-1.781,11.889,11.889,0,0,1,2.194-9.856,6.633,6.633,0,0,1,2.952-.148c.015-.038.022-.058.022-.058l.148.059-.01.029c.081.017.162.035.244.055,1.172.284,2.4.235,2.243,1.431a19.018,19.018,0,0,1-.921,2.982,1.484,1.484,0,0,0,.332,1.824c.844.118,1.516-.728,1.764-1.544a7.7,7.7,0,0,1,.793-2.412,2.986,2.986,0,0,1,2.472-1.049,13.016,13.016,0,0,1,2.739.5,18.226,18.226,0,0,0,8.481-.093c.74-.2,1.436-.418,2.064-.647q.653-.25,1.286-.55l.35-.238a.078.078,0,0,1,.076-.008l.058-.039.1-.069a.079.079,0,0,1,.084.032.088.088,0,0,1,.012.032l-.137.094-.079.053a.081.081,0,0,1-.026.034l-.446.315-.019.021h0a11.654,11.654,0,0,0-3.212,7.308s0,.005,0,.008c0,.021,0,.04,0,.061,0,.005,0,.012,0,.017s0,.039,0,.058a.139.139,0,0,1,0,.019l0,.055c0,.009,0,.017,0,.026l0,.049,0,.074v.017c0,.021,0,.04,0,.061s0,.018,0,.027,0,.036,0,.054v.024c0,.019,0,.037,0,.056a.211.211,0,0,0,0,.023c0,.02,0,.04,0,.059v.1c0,.117,0,.235,0,.352v0q.007.282.027.569l.014.178c.048.6.117,1.223.116,1.827a3.286,3.286,0,0,1-.746,2.35c-.844.9-2.066.874-3.213.851-.205,0-.409-.009-.606-.007-.11,0-.259,0-.435-.009a5.189,5.189,0,0,0-2.419.311l-.006,0-.011.007-.015.01,0,0c-.306.21-.41.544-.122,1.072l0,0,.006.011c.009.016.018.033.028.049a1.673,1.673,0,0,0,1.475.72h.053l.028,0h.017l.014,0h0c.688-.065,3.046-.551,4.972-.941l.275-.056.07-.014.081-.016.075-.015.065-.013.072-.015.086-.017.059-.012.085-.017.082-.016.1-.021.037-.007.024,0,.063-.013.063-.012.074-.014.054-.011.072-.014.048-.009.1-.019.022,0,.109-.021.047-.009.063-.013.045-.008.06-.012.041-.007.062-.012.034-.006.064-.012.022,0,.022,0,.068-.013.016,0,.062-.011.024,0,.047-.007.026,0,.041-.006.022,0,.031,0,.012,0,.014,0,.049-.006h.005l.035,0h.012l.022,0h.048s.005,0,.005,0a13.456,13.456,0,0,1-1.926,9.905,11.079,11.079,0,0,1-7.983-.261,13.662,13.662,0,0,1-2.872-1.839c-.105-.079-.212-.158-.321-.237l-.041-.029,0,0c-.612-.425-2.735-1.567-2.577-.083.049.449,1.008,1.193,1.3,1.464a18.513,18.513,0,0,0,2.732,2.035q.18.107.362.209l-.259-.144c.37.231.743.456,1.117.68a11.487,11.487,0,0,0,7.321,1.615c-1.52,3.4-3.942,7.394-7.545,8.239l-.008,0-.063.014-.011,0-.051.011-.018,0-.057.012-.018,0-.061.012a6.839,6.839,0,0,1-2.9-.086l.417.175a11.452,11.452,0,0,1-5.739-3.392c-1.983-1.794-3.785-3.893-5.55-5.239a.641.641,0,0,0-.144-.083l-.013-.005h0a.672.672,0,0,0-.172-.04.61.61,0,0,0-.552.237c-1.453,1.948,5.781,7.988,7.092,8.735.578.329,3.821,2.07,4.5,1.506-2.244,1.88-4.807,3.793-7.615,4.208l.2.105c-.234-.005-.465-.022-.7-.048a7.24,7.24,0,0,1-1.382-.015l-.072-.008H32.9l-.063-.008h-.009l-.067-.01h0a8.748,8.748,0,0,1-5.222-3.044l0,0-.041-.047h0l-.085-.1-.012-.014a11.821,11.821,0,0,1-.991-1.354,26.38,26.38,0,0,1-2.965-7.062c-.612.848-1.193,1.688-1.729,2.52-.49.723-.924,1.452-1.356,2.148-.22.346-.414.7-.613,1.042s-.392.679-.58,1.008c-.358.671-.707,1.31-1.025,1.925s-.6,1.209-.867,1.765l-.709,1.574c-.114.241-.2.482-.3.706l-.265.647-.239.58c-.076.181-.133.356-.194.518-.119.322-.22.6-.3.818l-.251.682-.009.025a.755.755,0,0,1-.056.115C14.9-168.831,14.838-168.943,14.773-169.053Zm11.091-15.986c.055.8-.023,2,.039,2.276a3.849,3.849,0,0,0,.3.843c.224.441.547.8.939.612l0,0,.022-.012.025-.014h0a.678.678,0,0,0,.065-.043h0l.024-.019.029-.023.027-.024c.01-.009.018-.02.027-.03v0a.632.632,0,0,0,.142-.257h0a4.2,4.2,0,0,0-.551-2.4h0l-.014-.028,0,0a.264.264,0,0,1-.013-.028,6.513,6.513,0,0,0-.51-.9h0a.057.057,0,0,0-.009-.012v0l-.008-.011,0,0-.009-.012a2.021,2.021,0,0,0-.722-.62C25.781-185.7,25.837-185.414,25.863-185.039Zm6.457-4.668c.515,1.685,2.854,2.736,4.349,3.11a1.022,1.022,0,0,0,.286.034c.9-.03.816-1.156.277-1.624a14.887,14.887,0,0,0-1.634-.882,7.627,7.627,0,0,1-1.468-1.669q-.317-.29-.618-.6a1.01,1.01,0,0,0-.557-.2C32.324-191.535,32.043-190.615,32.32-189.707Zm-15.269-7.446a4.22,4.22,0,0,0,2.225,4.355.758.758,0,0,0,.758-.044c.485-.331.235-.976-.032-1.433q-.7-1.193-1.394-2.388a1.811,1.811,0,0,0-.682-.775.715.715,0,0,0-.313-.07A.553.553,0,0,0,17.051-197.153Zm14.558-1.288a.869.869,0,0,0,.224.032h0a.927.927,0,0,0,.149-.011,1.318,1.318,0,0,0,.894-.659,1.98,1.98,0,0,0,.167-.392l0,0c.015-.048.03-.1.041-.144h0c.005-.022.011-.042.015-.064a7.684,7.684,0,0,1,.136-1.469,2.245,2.245,0,0,0-.2-1.019,1.3,1.3,0,0,0-.3-.4s0,.008,0,.013a1.011,1.011,0,0,0-.481-.253h-.006l-.017,0h0c-.729-.122-1.326.652-1.475,1.382a3.285,3.285,0,0,0-.036,1.078l0,0A3.4,3.4,0,0,0,31.609-198.441Zm9.763-3.6a2.083,2.083,0,0,0-.185.129c-1.394,1.066-.2.912.826.758a6.312,6.312,0,0,1,.95-.107,1.74,1.74,0,0,0,1.5-.426.75.75,0,0,0,.153-.777c-.175-.421-.651-.475-1.056-.437a4.026,4.026,0,0,0-2.105.846.113.113,0,0,0-.025,0A.106.106,0,0,0,41.372-202.036Zm5.6-3.293a.805.805,0,0,0-.437.868,1.574,1.574,0,0,0,1.061,1.13,3.438,3.438,0,0,0,1.432.255,25.564,25.564,0,0,0,2.926-1.675.881.881,0,0,0,.076-.338l-2.672,1.346A22.018,22.018,0,0,0,52-205.315c-.006-.023-.014-.044-.022-.066a.7.7,0,0,0-.135-.223,15.671,15.671,0,0,1-1.694.672l1.379-.86a.916.916,0,0,0-.219-.031q-.329.127-.667.228l.42-.209a1.772,1.772,0,0,0-.657.262c-.466.307-.919.743-1.477.716-.582-.028-1.119-.569-1.655-.569A.74.74,0,0,0,46.976-205.33Zm-7.565-1.362a3.165,3.165,0,0,0-.562,1.825,1.2,1.2,0,0,0,.586.946,1.086,1.086,0,0,0,.914.049q.764-.625,1.549-1.249c.132-.146.264-.293.391-.444l0,0,.12-.143a5.61,5.61,0,0,0,.868-1.39h0l.032-.083,0,0,.024-.066c.034-.094.064-.19.089-.287l0,0c.009-.038.019-.076.027-.113l0,0a3.164,3.164,0,0,0,.061-.4l0,0q.009-.109.011-.219l0,0a2.934,2.934,0,0,0-.014-.334l0,0a2.733,2.733,0,0,0-.046-.3v0a2.469,2.469,0,0,0-.115-.38h0a2.054,2.054,0,0,0-.139-.283v0a1.953,1.953,0,0,0-.15-.221h0a1.88,1.88,0,0,0-.161-.178v0c-.022-.023-.046-.044-.069-.065a2.9,2.9,0,0,0-.411.107h0c-.076.025-.149.054-.221.085v0c-.065.028-.129.058-.191.09h0a3.566,3.566,0,0,0-.437.267v0A8.262,8.262,0,0,0,39.41-206.691Z" transform="translate(1477 741.875)"/><g class="c" transform="translate(1477 512)"><circle class="d" cx="33.5" cy="33.5" r="33.5"/><circle class="e" cx="33.5" cy="33.5" r="31.5"/></g></g></svg>