<svg xmlns="http://www.w3.org/2000/svg" width="67" height="67" viewBox="0 0 67 67"><defs><style>.a{fill:#f2f2f2;}.b{fill:#8da76b;}.c{fill:#596b55;}.d{fill:#98d2fd;}.e{fill:#c6d9f0;}.f{fill:#fff;}.g{fill:#003661;}.h,.j{fill:none;}.h{stroke:#eaeaea;stroke-width:4px;}.i{stroke:none;}</style></defs><g transform="translate(-1477 -512)"><circle class="a" cx="33.5" cy="33.5" r="33.5" transform="translate(1477 512)"/><g transform="translate(1295.689 -411.272)"><path class="b" d="M1074.956,1162.394a1.169,1.169,0,0,0-1.01-.569,2.651,2.651,0,0,0-1.168.3,9.059,9.059,0,0,0-.859.433,13.886,13.886,0,0,0-1.887.4,3.3,3.3,0,0,0,.562-1.161,1.554,1.554,0,0,0,.019-.846,1.11,1.11,0,0,0-1.307-.69,1.255,1.255,0,0,0-.883,1.228,2.369,2.369,0,0,0,.135.643,2.753,2.753,0,0,0,.724,1.061,13.824,13.824,0,0,0-2.277,1.022,2.41,2.41,0,0,0,.158-.916,1.691,1.691,0,0,0-.575-1.188,1.1,1.1,0,0,0-1.754.772.778.778,0,0,0,.053.392,1.06,1.06,0,0,0,.2.281,5.094,5.094,0,0,0,1.314,1.021,13.666,13.666,0,0,0-2.324,1.857,7.386,7.386,0,0,0-.219-1.439,1.458,1.458,0,0,0-.2-.436,1.052,1.052,0,0,0-.27-.239,1.144,1.144,0,0,0-1.073,0,.941.941,0,0,0-.6.95,1.422,1.422,0,0,0,.558.895,2.95,2.95,0,0,0,1.424.653,13.457,13.457,0,0,0-2.421,3.648c-.214.477.492.895.708.414a13.016,13.016,0,0,1,2.151-3.316c.067.839.831,2.925,1.808,1.919a1.933,1.933,0,0,0,.223-.273,1.011,1.011,0,0,0-.024-1.294,2.9,2.9,0,0,0-1.463-.927,12.932,12.932,0,0,1,2.1-1.7,3.829,3.829,0,0,0-.033.925,2.021,2.021,0,0,0,.541,1.2.915.915,0,0,0,.525.285.736.736,0,0,0,.37-.059,1.074,1.074,0,0,0,.577-1.12,1.761,1.761,0,0,0-.7-1.117,3.848,3.848,0,0,0-.749-.441,12.723,12.723,0,0,1,2.285-1.039l0,.013a5.043,5.043,0,0,0-.119,1.113,1.724,1.724,0,0,0,.36,1.041,1.051,1.051,0,0,0,1,.38,1.022,1.022,0,0,0,.741-.847,1.489,1.489,0,0,0-.33-1.115,2.814,2.814,0,0,0-.935-.73l-.09-.045a12.557,12.557,0,0,1,1.755-.368.443.443,0,0,0,.054-.013,4.229,4.229,0,0,0,.8.459,1.886,1.886,0,0,0,1.608,0A1.121,1.121,0,0,0,1074.956,1162.394Z" transform="translate(-831.134 -216.744)"/><path class="c" d="M401.5,1212.138c-.009-.074,0,0-.069-.026a4.525,4.525,0,0,0-1.476.533,2.306,2.306,0,0,0-.73,1.069,5.406,5.406,0,0,1,.155-4.012.443.443,0,0,0,.035-.125,3.454,3.454,0,0,0,1.216-1.257,1.729,1.729,0,0,0,.26-.99,2.3,2.3,0,0,0-.373-.914,2.659,2.659,0,0,0-1.9,1.852,3.754,3.754,0,0,0-.076,1.339,6.059,6.059,0,0,0-.35,1.266,4.036,4.036,0,0,0-2.578-2.181,3.519,3.519,0,0,0,2.509,3.533,7.768,7.768,0,0,0,1.8,4.378c.333.41.909-.173.58-.58a7.592,7.592,0,0,1-.854-1.31,2.6,2.6,0,0,0,1.253-.607A2.7,2.7,0,0,0,401.5,1212.138Z" transform="translate(-196.4 -260.795)"/><g transform="translate(189.649 946.521)"><path class="d" d="M197.167,1230.586a3.94,3.94,0,0,0,.6-2.29,2.7,2.7,0,0,0-1.778-2.392,1.392,1.392,0,0,0-.86-.012c-.8.284-.907,1.375-.709,2.2a3.569,3.569,0,0,0-1.647-.94,1.68,1.68,0,0,0-.913-.018,1.467,1.467,0,0,0-.851,1.65,3.577,3.577,0,0,0,.994,1.732,2.569,2.569,0,0,0-2.1,1.221,1.5,1.5,0,0,0-.246.889c.067.758.907,1.208,1.664,1.281a4.914,4.914,0,0,0,2.995-.666q.242-.159.482-.324l0,0C195.577,1232.138,197.134,1230.618,197.167,1230.586Z" transform="translate(-189.649 -1225.829)"/><path class="b" d="M314.424,1335.744a15.29,15.29,0,0,1-10.843-4.873,1.387,1.387,0,0,0,.268-.35c.367-.713-1.065-2.258-1.065-2.258l0,0c-.033.032-1.59,1.552-2.377,2.323l0,0c.436.427,1.027,1.208,1.634,1.175a1.746,1.746,0,0,0,.9-.377,16,16,0,0,0,2.884,2.462,3.089,3.089,0,0,0-1.037.124,2.508,2.508,0,0,0-1.294,1.118,6.375,6.375,0,0,0-.629,1.623,3.407,3.407,0,0,0,3.526-2.5,16.169,16.169,0,0,0,8.033,2.351A.41.41,0,0,0,314.424,1335.744Z" transform="translate(-295.263 -1323.508)"/></g><g transform="translate(190.13 961.089)"><path class="b" d="M205.6,1543.248a5.465,5.465,0,0,1,2.479.844,25.862,25.862,0,0,0-7.311,5.479l3.168.752A9.328,9.328,0,0,0,200,1553.9a32.313,32.313,0,0,0,6.807-.168l-.464,2.632a18.362,18.362,0,0,0,6.419-4.082,9.053,9.053,0,0,0,1.507,3.1s2.909-2.714,3.126-2.981c1.306-1.6,4.249-6.085,4-8.175-.645-5.407-8.312-4.993-12.877-2.937A11.213,11.213,0,0,0,205.6,1543.248Z" transform="translate(-200.004 -1539.866)"/><path class="c" d="M382.8,1539.776q-4.381,2.566-8.845,4.984l-4.337-1.793c-.487-.2-.7.592-.218.791l3.628,1.5q-1.331.715-2.669,1.418a42.865,42.865,0,0,0-4.583-.115.41.41,0,0,0,0,.82c1.058-.011,2.126-.022,3.189.021q-1.768.916-3.547,1.811c-.472.237-.057.944.414.708q1.823-.915,3.633-1.856c-.587.955-1.144,1.93-1.7,2.9a.41.41,0,0,0,.708.414c.783-1.373,1.568-2.752,2.439-4.071v0q1.365-.717,2.723-1.448-.449,1.71-1.023,3.382c-.173.5.619.715.791.218q.69-2,1.2-4.048a.463.463,0,0,0,.012-.076q4.339-2.357,8.6-4.853A.41.41,0,0,0,382.8,1539.776Z" transform="translate(-357.54 -1539.716)"/></g><g transform="translate(219.634 959.12)"><path class="c" d="M932.58,1497.814a6.956,6.956,0,0,0-2.164,1.76,12.994,12.994,0,0,1,7.17,1.33l-2.378,1.253a16.021,16.021,0,0,1,6.288,3.7,13.864,13.864,0,0,1-7.213.255,4.755,4.755,0,0,0,1.357,2.232,20.558,20.558,0,0,1-6.3-1.909,4.345,4.345,0,0,1,.568,1.9,17.246,17.246,0,0,1-2.757-1.024,7.853,7.853,0,0,1-2.7-2.548c-1.456-2.4.061-5.156,2.273-6.53A6.416,6.416,0,0,1,932.58,1497.814Z" transform="translate(-919.78 -1497.296)"/><path class="b" d="M852.247,1532.956q-2.87-.828-5.707-1.757a20.207,20.207,0,0,1,2.1-.631c.513-.124.3-.914-.218-.791a20.241,20.241,0,0,0-3.084,1.009l-.016.009q-1.286-.43-2.565-.881a5.671,5.671,0,0,1,1.681-1.378c.464-.252.051-.96-.414-.708a6.449,6.449,0,0,0-2.082,1.8q-2.9-1.039-5.772-2.182c-.49-.2-.7.6-.218.791q2.775,1.107,5.586,2.115a8.586,8.586,0,0,0,1.379,3.579c.292.436,1,.026.708-.414a8,8,0,0,1-1.2-2.85q1.244.439,2.5.859a.427.427,0,0,0,.025.045,12.7,12.7,0,0,0,2.846,2.963c.422.317.831-.394.414-.708a11.42,11.42,0,0,1-1.928-1.849q2.859.934,5.751,1.771A.41.41,0,0,0,852.247,1532.956Z" transform="translate(-835.68 -1526.016)"/></g><path class="e" d="M771.028,1878.838c-.519-1.068-2.662-1.234-2.382.473.19,1.163,1.9,1.7,2.384.532A1.192,1.192,0,0,0,771.028,1878.838Z" transform="translate(-552.099 -901.239)"/><path class="f" d="M569.486,1278.466c.992-.55,1.071-2.671-.536-2.334-1.1.229-1.54,1.938-.416,2.372A1.089,1.089,0,0,0,569.486,1278.466Z" transform="translate(-360.675 -327.242)"/><path class="d" d="M271.808,1522.757a1.535,1.535,0,0,0-1.366-.729.713.713,0,0,0-.639.241,1.521,1.521,0,0,0-.317.632,1.357,1.357,0,0,0,.118,1.206,1.078,1.078,0,0,0,.683.363,1.446,1.446,0,0,0,1.269-.42A1.253,1.253,0,0,0,271.808,1522.757Z" transform="translate(-76.051 -561.749)"/><path class="e" d="M1191.271,1406.439a1.356,1.356,0,0,0-1.233-.729.61.61,0,0,0-.576.241,1.593,1.593,0,0,0-.286.632,1.486,1.486,0,0,0,.106,1.206.948.948,0,0,0,.616.364,1.229,1.229,0,0,0,1.145-.42A1.357,1.357,0,0,0,1191.271,1406.439Z" transform="translate(-953.063 -450.831)"/><path class="f" d="M1093.8,1781.926a1.14,1.14,0,0,0-1.842-.534,1.219,1.219,0,0,0-.305,1.434,1.177,1.177,0,0,0,1.741.308A1.111,1.111,0,0,0,1093.8,1781.926Z" transform="translate(-860.025 -808.806)"/><path class="c" d="M815.4,942.064a4.205,4.205,0,0,0-1.941,1.708,4.92,4.92,0,0,0-.3.506,21.024,21.024,0,0,0,.243-4.231,4.434,4.434,0,0,0,2.237-1.786,1.7,1.7,0,0,0,.286-.717.775.775,0,0,0-.264-.7.808.808,0,0,0-.916.04,2.172,2.172,0,0,0-.61.756c-.253.443-.534,1.024-.784,1.583a21.157,21.157,0,0,0-.526-3.24,3.081,3.081,0,0,0,.158-1.719,1.705,1.705,0,0,0-1.336-1.332.745.745,0,0,0-.269.007.672.672,0,0,0-.321.2,1.572,1.572,0,0,0,.019,1.818,3.9,3.9,0,0,0,.921,1.086,20.281,20.281,0,0,1,.61,5.083c-.02-.04-.04-.079-.06-.118a3.728,3.728,0,0,0-1.031-1.34,1.486,1.486,0,0,0-1.6-.156.652.652,0,0,0-.346.645.818.818,0,0,0,.229.367,6.544,6.544,0,0,0,2.773,1.646,20.175,20.175,0,0,1-1.194,5.745,13.33,13.33,0,0,0-2.239-4.045c-.736-.983-1.51-1.936-2.31-2.866a3.784,3.784,0,0,0,1.27-2.329,1.006,1.006,0,0,0-.486-1.015.852.852,0,0,0-.945.317,2.291,2.291,0,0,0-.381.989,4.35,4.35,0,0,0,.056,1.486q-.711-.806-1.449-1.59a2.545,2.545,0,0,0-.938-1.89,1.359,1.359,0,0,0-.693-.314.722.722,0,0,0-.674.29,1,1,0,0,0,.125,1.025,3.388,3.388,0,0,0,1.432,1.285l.01.013a56.845,56.845,0,0,1,3.786,4.384,3.086,3.086,0,0,0-1.528-.4,1.328,1.328,0,0,0-.763.271.76.76,0,0,0,.22,1.246,1.869,1.869,0,0,0,1.334.037c.159-.037.84-.315,1.3-.427a10.991,10.991,0,0,1,2.334,4.855,20.155,20.155,0,0,1-8.592,9.374c-.461.257-.048.966.414.708a20.975,20.975,0,0,0,10.321-14.054,7.825,7.825,0,0,0,2.731-2.19C815.962,942.717,816.155,941.83,815.4,942.064Z" transform="translate(-583.968 0)"/><g transform="translate(201.571 946.022)"><path class="d" d="M449.026,1227.238c-1.7-.166-2.932,1.994-2.366,3.61a4.988,4.988,0,0,0,3.969,2.873,8.993,8.993,0,0,0,5.731-.866,43.845,43.845,0,0,0-3.884,3.575,5.3,5.3,0,0,0-1.3,4.888c.563,1.669,2.827,2.716,4.21,1.625.088,1.128.29,2.441,1.281,2.986a2.258,2.258,0,0,0,2.331-.262,5.176,5.176,0,0,0,1.5-1.935c1.165-2.278,2.7-5.248,2.638-7.806a17.166,17.166,0,0,0,2.985,7.252,4.279,4.279,0,0,0,1.888,1.749,2.367,2.367,0,0,0,2.949-3.267c1.507.908,3.658-.173,4.211-1.842a4.771,4.771,0,0,0-1.487-4.771,11.239,11.239,0,0,0-4.666-2.354c1.179-.568,5.339-1.308,6.6-1.732,1.728-.581,3.065-1.66,2.348-4.4a2.181,2.181,0,0,0-2.48-1.638c.95-.064,1.373-1.8,1.1-2.717a2.57,2.57,0,0,0-2.142-1.649,5.934,5.934,0,0,0-2.794.435,10.394,10.394,0,0,0-5.446,3.994,13.77,13.77,0,0,0,.533-8.787,1.556,1.556,0,0,0-.563-.959,1.308,1.308,0,0,0-.689-.159,3.288,3.288,0,0,0-3.177,3.1,2.189,2.189,0,0,0-2.327-1.931,3.322,3.322,0,0,0-2.613,1.89,7.229,7.229,0,0,0-.64,3.281c-.01,1.806.355,3.8,1.78,4.912a11.969,11.969,0,0,0-6.056-3.223,4.427,4.427,0,0,0-3.9.753C447.553,1224.813,447.7,1226.863,449.026,1227.238Z" transform="translate(-446.52 -1215.081)"/><g transform="translate(7.986 6.902)"><path class="g" d="M870.32,1460.209q-2.717,1.11-5.394,2.313a3.106,3.106,0,0,1,.432.7q2.572-1.152,5.18-2.222C871.02,1460.8,870.809,1460.009,870.32,1460.209Z" transform="translate(-853.493 -1455.703)"/><path class="g" d="M832.422,1603.557c.287.44,1,.03.708-.414q-1.9-2.912-3.868-5.783a4.646,4.646,0,0,1-.739.368Q830.5,1600.625,832.422,1603.557Z" transform="translate(-818.779 -1586.519)"/><path class="g" d="M677.116,1593.251q-1.9,2.368-3.66,4.838c-.307.43.4.84.708.414q1.722-2.413,3.574-4.724a2.134,2.134,0,0,1-.37-.265A2.947,2.947,0,0,1,677.116,1593.251Z" transform="translate(-670.838 -1582.601)"/><path class="g" d="M624.078,1520.463a40.5,40.5,0,0,1-4.971-.575c-.516-.093-.737.7-.218.791a42.291,42.291,0,0,0,5.162.6A3.42,3.42,0,0,1,624.078,1520.463Z" transform="translate(-618.592 -1512.636)"/><path class="g" d="M774.667,1364.191a.41.41,0,0,0-.82,0c.045,1.694.148,3.383.3,5.068a3.171,3.171,0,0,1,.81-.116C774.81,1367.5,774.71,1365.846,774.667,1364.191Z" transform="translate(-766.64 -1363.795)"/><path class="f" d="M742.343,1481.184a3.105,3.105,0,0,0-.432-.7,3.537,3.537,0,0,0-.258-.289,4.052,4.052,0,0,0-2.861-1.181,3.161,3.161,0,0,0-.81.116,2.755,2.755,0,0,0-1.861,1.742,3.01,3.01,0,0,0-.157.621,3.418,3.418,0,0,0-.027.818c.007.076.009.151.02.227a3.526,3.526,0,0,0,.8,1.778,2.975,2.975,0,0,0,.253.262,2.125,2.125,0,0,0,.37.265,3.381,3.381,0,0,0,2.843.032,4.627,4.627,0,0,0,.739-.368,2.973,2.973,0,0,0,1.591-2.392A2.292,2.292,0,0,0,742.343,1481.184Z" transform="translate(-730.478 -1473.666)"/></g></g></g><g class="h" transform="translate(1477 512)"><circle class="i" cx="33.5" cy="33.5" r="33.5"/><circle class="j" cx="33.5" cy="33.5" r="31.5"/></g></g></svg>