<svg xmlns="http://www.w3.org/2000/svg" width="67" height="67" viewBox="0 0 67 67"><defs><style>.a{fill:#f2f2f2;}.b{fill:#2f6301;}.c{fill:#9f652e;}.d{fill:#669f1a;}.e{fill:#7ab527;}.f{fill:#4f8304;}.g,.i{fill:none;}.g{stroke:#eaeaea;stroke-width:4px;}.h{stroke:none;}</style></defs><g transform="translate(-1477 -512)"><circle class="a" cx="33.5" cy="33.5" r="33.5" transform="translate(1477 512)"/><g transform="translate(1007.933 -172.482)"><path class="b" d="M512.537,740.91c.609.62,1.723-.138,1.563-.993a1.269,1.269,0,0,0,1.054-1.9c.831-.329.169-1.081,0-1.9.835.09,1.684.663,1.781-.171.765.347,1.544-.749,1.261-1.7,1,.023,1.856-1.061,1.379-1.748.8-.244.19-.966,0-1.781.834.069,1.6.564,1.8-.266.729.448,1.884-.451,1.654-1.215.8.015.757-.845.6-1.589.758.076,1.6-.1,1.444-.737a.751.751,0,0,0,.4-1.343,1.093,1.093,0,0,0-.86-1.694c.189-.871-.776-1.385-1.7-1.128.038-.957-1.1-1.471-1.863-1.747.5-.645.931-1.039.43-1.681.765-.281,1.333-1.327.589-1.863.739-.545-.107-1.528-.65-1.98.6-.378.93-.708.65-1.357.7-.068,2.426-1.4,1.438-2.013.883-.754-1.341-2.658-1.965-2.011-.426-.792-1.174.265-1.658.958-.512-.673-.826-1.19-1.594-.836-.1-.839-1.062-1.224-2.09-1.237a1.965,1.965,0,0,0-.43-2.148c.651-.3,1.288-.685.86-1.259.677-.232.841-1.618,0-1.873a1.338,1.338,0,0,0-1.466-1.842c.021-1.105-2.524-1.44-2.587-1.093-.311-.166-.206.372-.2.724a2.838,2.838,0,0,0-1.889,0c-.046-.886-.4-2.884-1.114-2.53-.117-.792-1.558-.473-1.675.319-.718-.354-.964.86-1.537,1.514-.447-.746-.305-1.936-1.065-1.514-.17-.852-1.39-.355-2.039.184-.314-.783-.877-1.338-1.5-.993a.841.841,0,0,0-1.451-.419c-.334-.626-1.823-.554-1.9,0-.5-.247-.594.428-.675.982-.5-.247-2.266-.712-2.272,0-.676-.224-.643.739-.49,1.435a1.351,1.351,0,0,0-1.515.735c-.5-.555-1.135-1.016-1.538-.389-.474-.575-1.351.22-1.7.651-.3-.463-.711-.963-1.055-.528-.309-.46-1.147-.112-1.3.528-.563-.341-1.888.363-1.891.816a.528.528,0,0,0-.645.719c-.448.07-.892,1.067-.307,1.383-.481.46.249,1.267.952,1.8-.727.505-1,.743-.952,1.626-.857-.222-2.044,0-2.17.753a.921.921,0,0,0-1.347.911c-.725-.238-1.826.573-1.519,1.161-.654.112-.663,1.431,0,1.412-.185.637,1.137.461,1.883.491-.257.7-.739,1.425-.219,1.575-.3.449.341.952.853.776.01.541.536.441,1.105.581-.307.5-.888,1.171-.491,1.55a.639.639,0,0,0,.046,1.168c-.307.455.508.7,1,1.292-.712.285-1.486-.093-1.719.759-.739-.482-2.452.052-2.361.755-.7-.129-.857.777-.538,1.41-.7.11-1.674,1.191-.969,1.465-.477.588.764.988,1.437.727.043.721.484.891,1.2.959a1.766,1.766,0,0,0,.3,1.719c-.582.142-1.16.15-1.04.737-.595-.066-1.553.993-.934,1.612-.779.4-.484,2.505.468,2.155.043,1.013,1.391.13,2.124-.39.27.857.74,1.8,1.289,1.412.2.643,1.014.279,1.412-.266.4.546.909.26,1.737.328-.317.767-1.127,1.714-.6,2.026-.459.406.073.846.6,1.158-.458.407-1.206,1.645-.6,2.035a.835.835,0,0,0,.6,1.412c-.133.671.648.91,1.29.676.027.683.961,1.61,1.7,1.433-.057.758.821,1.441,1.228,1.057.242.5.965.135,1.123-.4.463.315,1.783.188,1.824-.655.789.3,1.144-.734,1.229-1.31.523.257.927.315,1.228-.184.384.438,1.654.566,2.026-.061.484.547,1.544.484,1.535-.246.7.215.6-.79.675-1.412.571.258.965.633,1.328.123a1.571,1.571,0,0,0,2.1-.246c.464.5.925.265,1.433-.184.272.621.632,1.044,1.369.86-.05.757.535,1.492,1.233,1.351-.08.708.738,1.459,1.2.921.37.609,1.2-.109,1.634-.86C511.118,740.992,512.133,741.68,512.537,740.91Z" transform="translate(-0.157 -2.793)"/><g transform="translate(481.603 695.242)"><path class="c" d="M523.311,759.625h-4.585a35.2,35.2,0,0,0-.123-6.187c-.209-2-1.159-4.462-1.105-6.383.024-.848,1.941.553,1.965-.285.074-2.619.32-13.483.368-15.187.159-5.654.547-16.322.655-17.684s1.146-1.258,1.147,0,.384,9.751.573,16.457c.051,1.818.261,13.318.328,15.679.022.761,1.714.562,1.556,1.31a40.883,40.883,0,0,0-.86,5.848A43.472,43.472,0,0,0,523.311,759.625Z" transform="translate(-501.789 -705.828)"/><path class="c" d="M526.043,771.009c7.44-8.869,10.856-3.772,13.3-10.545.236-.653.636-.313.418.289-.083.231.027.585-.074.8-1.221,2.513-2.182,3.181-3.291,3.7-5.56,2.588-4.156,1.542-8.366,6.47l-.488.564A.984.984,0,0,1,526.043,771.009Z" transform="translate(-506.014 -729.839)"/><path class="c" d="M506.5,765.614A59.759,59.759,0,0,0,503.092,760c-1.025-1.5-.314-1.244-3.465-4.005-3.681-3.163-4.742-4.33-5.4-10.823-.068-.645.472-.676.54-.03.785,7.393,1.83,5.521,9.191,12.919,1.122.964,4.49,7.1,4.21,6.605A.957.957,0,0,1,506.5,765.614Z" transform="translate(-489.947 -721.984)"/><path class="c" d="M537.173,734.458c-1.074,5.884-1.758,7-3.109,8.686-2.947,3.789-2.838,3.193-3.769,5.88-1.593,4.931-1.287,5.338-2.508,9.292a.94.94,0,0,1-1.826-.42c.074-.478.3-1.624.543-2.619,4.063-16.249,6.938-8.149,9.3-19.208a31,31,0,0,0,.974-4.393c-.014-.34.448-1.03.5-.768A10.93,10.93,0,0,1,537.173,734.458Z" transform="translate(-506.09 -714.953)"/><path class="c" d="M509.283,738.735c.244.367.5.717.723,1.086a75.223,75.223,0,0,0,5.851,8.585.766.766,0,0,1-1.214.936c-1.562-2.026-5.741-7.6-6.51-10.034a12.6,12.6,0,0,1-1.417-5.434,81.478,81.478,0,0,1,.255-11.857c0-.648.489-.7.489-.045C507.459,725.146,507.018,735.368,509.283,738.735Z" transform="translate(-496.234 -710.199)"/><path class="c" d="M553.262,751.411c.813-2.242,1.852-6.187,2.582-9.1.078-.315.334-.31.254.006-.259,1.037-.652,3.417-.966,4.593-.572,2.141-.879,3.211-1.408,4.67A.246.246,0,0,1,553.262,751.411Z" transform="translate(-519.977 -720.663)"/><path class="c" d="M558.5,747.048c-1.989,2.048-3.424,5.4-6.377,8.36a2.6,2.6,0,0,1-.357,1.022c3.784-3.327,4.905-7.016,6.992-9.165C558.984,747.034,558.728,746.815,558.5,747.048Z" transform="translate(-519.224 -723.143)"/><path class="c" d="M539.3,719.755c-.174,4.939-3.771,9.447,1.424,15.5a.31.31,0,0,1-.033.437c-.474.407-1.663-1.733-1.921-2.234-3.069-5.88-.143-8.832.04-13.716A.245.245,0,0,1,539.3,719.755Z" transform="translate(-511.901 -709.179)"/><path class="c" d="M534.379,754.375a.4.4,0,0,1-.281-.491c.111-.407.549-.263.99-.238,2.588.171,5.486-.8,7.367-8.211.1-.394.483-.349.385.045C541.645,750.3,539.141,755.753,534.379,754.375Z" transform="translate(-510.229 -722.233)"/><path class="c" d="M513.117,749.977a.383.383,0,0,1-.6-.477c-.006.009.089-.119.246-.362,1.119-1.7.97-1.889.929-10.39,0-.325.31-.324.328,0C514.5,747.324,514.322,747.565,513.117,749.977Z" transform="translate(-499.211 -718.847)"/><path class="c" d="M502.879,738.983a.386.386,0,0,0-.043.021s-.828.346-2.128-1.369a15.7,15.7,0,0,1-2.375-6.177s-.333-.607-.333,0c.9,5.916,3.479,7.989,4.557,8.119a1.2,1.2,0,0,0,.416-.009A2.8,2.8,0,0,1,502.879,738.983Z" transform="translate(-491.87 -715.125)"/><path class="c" d="M519.989,732.935a.46.46,0,1,1-.685.615,18.673,18.673,0,0,1-4.045-7.528c-.154-.463.44-.613.594-.15C516.206,726.937,516.667,729.038,519.989,732.935Z" transform="translate(-500.638 -712.277)"/><path class="c" d="M528.516,726.387a25.225,25.225,0,0,0-.007,3.006c-.274,4.508.305,8.883-4.522,12.056-.461.3-1.114-.345-.362-.869,4.665-3.373,3.809-6.695,4.129-11.3a27.6,27.6,0,0,1,.317-3.083C528.17,725.7,528.609,725.908,528.516,726.387Z" transform="translate(-504.733 -712.439)"/><path class="c" d="M549.509,775.3c-2.631-.086-3.582-1.08-5.212-2.665-1.675-1.588-2.1,1.586-5.253.109l-.041-.022a2.14,2.14,0,0,1-.619.369,4.461,4.461,0,0,0,2.623.585c1.311-.135,1.848-1.343,2.747-.859,1.329,1.137,2.3,2.683,5.732,2.8C549.81,775.62,549.833,775.308,549.509,775.3Z" transform="translate(-512.416 -735.976)"/><path class="c" d="M556.846,764.838c-1.224-.129-1.8-1.322-3.618-.849a10.8,10.8,0,0,0-2.388.956,2.347,2.347,0,0,1-.539.86.24.24,0,0,0,.13-.042,10.345,10.345,0,0,1,2.921-1.3c1.625-.422,2.175.558,3.53.7C557.018,765.177,556.98,764.853,556.846,764.838Z" transform="translate(-518.479 -731.756)"/><path class="c" d="M502.411,771.246a7.112,7.112,0,0,1-2.6-.376,6.018,6.018,0,0,1-1-.42c-2.229-1.253-5.275,1.236-5.632,2.1a4.237,4.237,0,0,0,.262,3.2c.167.207.232-.073.167-.192a3.674,3.674,0,0,1,.094-2.815c.272-.638,2.841-2.939,4.811-1.714a10.074,10.074,0,0,0,4.3,1.16c.011,0,.021-.007.032-.008A2.494,2.494,0,0,1,502.411,771.246Z" transform="translate(-489.308 -734.923)"/><path class="c" d="M491.758,757.633c-.786-.327-2.5-.633-5.972-.633-.311,0-.174.362.155.344a11.811,11.811,0,0,1,5.712.911l.259.123a.316.316,0,0,0,.2.02A2.491,2.491,0,0,1,491.758,757.633Z" transform="translate(-485.567 -728.256)"/><path class="c" d="M492.258,742.036c-3.5-2.83-2.117-8.167-3.036-9.69-.167-.278.067-.386.236-.107,1.041,1.727-.237,6.707,3.109,9.414A.246.246,0,0,1,492.258,742.036Z" transform="translate(-487.375 -715.576)"/><path class="c" d="M547.131,724.958a.418.418,0,0,0,.007-.074,15.427,15.427,0,0,0-1.51-7.358c-.143-.293-.381-.139-.269.166a22.931,22.931,0,0,1,1.282,7.6A2.125,2.125,0,0,1,547.131,724.958Z" transform="translate(-515.951 -708.094)"/><path class="c" d="M553.656,733c-3.025.6-5.045.883-6.337,3.23a2.837,2.837,0,0,1-.024,1.052c.143-.05.218-.265.314-.466,1.4-2.809,4.9-2.91,6.21-3.572C553.94,733.183,553.8,733,553.656,733Z" transform="translate(-516.95 -716.046)"/><path class="c" d="M501.857,723.451a10.909,10.909,0,0,0-5.442-6.083c-.293-.141-.37.163-.084.314a11.428,11.428,0,0,1,5.259,6.749.245.245,0,0,0,.121.156A2.805,2.805,0,0,1,501.857,723.451Z" transform="translate(-490.93 -708.075)"/><path class="c" d="M507.288,714.362a40.006,40.006,0,0,1,.309-7.671c.046-.316.32-.305.274.019a50.334,50.334,0,0,0-.093,7.607.246.246,0,0,1-.489.045Z" transform="translate(-496.552 -702.544)"/><path class="c" d="M549.124,718.072c-.145-.015-.182-.248-1.252,3.4a2.807,2.807,0,0,1,.1.649c.072.148.157.224.2.082l.979-3.806C549.186,718.271,549.259,718.086,549.124,718.072Z" transform="translate(-517.243 -708.447)"/><path class="c" d="M528.318,700.967c-.133-.027-.337.262-.364.395-.528,2.611-2.058,8.2-3.721,10.278-.024.033-.049.065-.074.1a2.619,2.619,0,0,1,.238.673c1.03-.747,3.062-5.25,3.844-10.829C528.26,701.447,528.451,700.994,528.318,700.967Z" transform="translate(-505.179 -699.748)"/><path class="c" d="M497.95,771.515a4.824,4.824,0,0,0,.008,2.761c.093.311.289.159.2-.153a4.639,4.639,0,0,1,.372-2.654.231.231,0,0,0,.041-.154A2.3,2.3,0,0,1,497.95,771.515Z" transform="translate(-491.737 -735.539)"/><path class="c" d="M555.2,773.77a7.352,7.352,0,0,1-2.868.671.23.23,0,0,0-.187.046,2.2,2.2,0,0,1,.439.46,8.156,8.156,0,0,0,2.775-.978C555.659,773.835,555.493,773.638,555.2,773.77Z" transform="translate(-519.418 -736.766)"/><path class="c" d="M503.293,759.108c-.02-.284-.249-.76-.41-1.588a8.367,8.367,0,0,1-.154-3.239c.044-.323-.162-.428-.245-.114a9.991,9.991,0,0,0-.09,4.509A2.188,2.188,0,0,1,503.293,759.108Z" transform="translate(-493.99 -726.719)"/><path class="c" d="M502.659,719.871a.233.233,0,0,0,.062-.167l-.26-2.5c0-.295-.264-.247-.26.1l.025,2.034A2.243,2.243,0,0,1,502.659,719.871Z" transform="translate(-494.008 -707.912)"/><path class="c" d="M516.468,715.557c-.26-.138-1.319,2.212-1.2,4.82a2.416,2.416,0,0,1,.4.74.257.257,0,0,0,.09-.215,11.78,11.78,0,0,1,.815-5.018A.246.246,0,0,0,516.468,715.557Z" transform="translate(-500.653 -707.169)"/><path class="c" d="M507.379,718.309a10.223,10.223,0,0,1,2.076-3.911c.085-.105.261.052.175.157a7.943,7.943,0,0,0-1.771,3.857A.246.246,0,0,1,507.379,718.309Z" transform="translate(-496.639 -706.564)"/><path class="c" d="M522.168,708.051c-1.665-3.693-2.106-8.25-2.413-9.336,0-.27-.963-1.562.994,7.064a15.249,15.249,0,0,0,1.149,3.132.3.3,0,0,0,.107.124A2.773,2.773,0,0,1,522.168,708.051Z" transform="translate(-502.818 -698.488)"/><path class="c" d="M523.009,700.007a12.657,12.657,0,0,1-1.561,4.108,2.706,2.706,0,0,1,.115.5.24.24,0,0,0,.123-.051c.841-.67,1.62-4.258,1.707-4.665C523.46,699.583,523.075,699.7,523.009,700.007Z" transform="translate(-503.8 -699.11)"/><path class="c" d="M531.3,749.877c-.379.183-1.925.687-2.493.964a2.3,2.3,0,0,1-.681.956.272.272,0,0,0,.224-.009c.266-.131,2.741-1.464,3.077-1.635S531.681,749.694,531.3,749.877Z" transform="translate(-507.198 -724.603)"/><path class="c" d="M536.2,708.709c-2.01.8-4.836-.03-6.684,1.718a2.572,2.572,0,0,1-.294.753,2.768,2.768,0,0,1-.086.386.232.232,0,0,0,.152-.108c1.614-2.508,4.641-1.568,7.012-2.513C536.6,708.825,536.5,708.59,536.2,708.709Z" transform="translate(-507.711 -703.671)"/><path class="c" d="M529.179,706.017a2.6,2.6,0,0,1,.132-.384c-.271-2.628-.928-3.285-.962-3.321-.221-.236-.429.023-.206.26a8.221,8.221,0,0,1,.816,3.352C528.977,706.1,529.086,706.1,529.179,706.017Z" transform="translate(-507.157 -700.386)"/><path class="c" d="M501.343,733.511a6.141,6.141,0,0,0-.988,2.734c.182.278.332.937.332.813a9.556,9.556,0,0,1,.755-3.214C501.641,733.588,501.543,733.257,501.343,733.511Z" transform="translate(-493.069 -716.26)"/><path class="c" d="M488.362,741.45c-.709-1.066-2.652-2.271-2.829-2.04-.082.108.292.3.407.367a9.72,9.72,0,0,1,2.518,2.436C488.524,742.324,488.351,741.749,488.362,741.45Z" transform="translate(-485.522 -719.293)"/><path class="c" d="M531.318,740.069a8.792,8.792,0,0,0-1.144-2.383c-.178-.272-.432-.046-.254.226a5.4,5.4,0,0,1,.983,2.61.246.246,0,0,0,.2.281.281.281,0,0,0,.077,0A2.775,2.775,0,0,1,531.318,740.069Z" transform="translate(-508.079 -718.368)"/><path class="c" d="M538.728,727.385a.249.249,0,1,1-.481-.121l.064-.2c.3-1.13,1.841-2.444,2.8-3.192.255-.2.568-.054.313.146A7.954,7.954,0,0,0,538.728,727.385Z" transform="translate(-512.339 -711.352)"/><path class="c" d="M537.395,744.107a6.483,6.483,0,0,0-1.76-.935c-.294-.127-.3.175.005.314a4.962,4.962,0,0,1,2.164,1.567A3.734,3.734,0,0,1,537.395,744.107Z" transform="translate(-510.905 -721.206)"/><path class="c" d="M553.879,732.973c.219-.294.527-.729,1-1.348.2-.259,0-.468-.2-.208-1.212.958-1.666,1.465-1.649,1.77A2.417,2.417,0,0,1,553.879,732.973Z" transform="translate(-519.866 -715.18)"/><path class="c" d="M494.752,735.672c.073-.313.345-.207.272.111a24.53,24.53,0,0,0-.252,4.683.246.246,0,0,1-.225.264C493.822,740.785,494.551,736.544,494.752,735.672Z" transform="translate(-489.954 -717.31)"/><path class="c" d="M545.691,760.315a.264.264,0,0,0-.359-.084,6.141,6.141,0,0,1-2.238.59,2.128,2.128,0,0,1-.543.414c.043.086.135.12.27.153C543.877,761.648,545.821,760.512,545.691,760.315Z" transform="translate(-514.536 -729.88)"/><path class="c" d="M515.537,752.63c-.087.3-.021.608-.345.58-.491-.042-.209-.966.474-1.541a5.547,5.547,0,0,1,1.131-.72c.321-.146.461.08.14.226A3.086,3.086,0,0,0,515.537,752.63Z" transform="translate(-500.491 -725.154)"/><path class="c" d="M514.145,723.537c-.536-1.288-1.413-3.614-1.422-3.637-.114-.3.161-.455.275-.15,1.423,3.768,1.935,3.265,1.467,3.919C514.385,723.783,514.2,723.658,514.145,723.537Z" transform="translate(-499.347 -709.22)"/><path class="c" d="M496.286,770.451a2.364,2.364,0,0,1,.846-.234c-.189-.477-2.566-.353-3.825.177-.3.126-.121.382.178.255A6.647,6.647,0,0,1,496.286,770.451Z" transform="translate(-489.405 -734.829)"/></g><path class="d" d="M490.614,741.16c-.08.845-.635,1.474-1.228.931-.143,1.034-1.372,1.607-1.74.466-.361.99-1.6,1.407-1.668.315-.378,1.093-2.937.908-2-.907-1.714.853-2.615-.17-1.513-.9-1.983-.331-.3-1.825.943-1.434a1.131,1.131,0,0,1,1.269-1.434c-.021-.769.451-1.127,1.147-.8a1.232,1.232,0,0,1,2.006-.512c.539-.832,1.267-.757,1.8,0a.93.93,0,0,1,1.658.286c.657-.319,1.341.151,1.044.819,1.034.041,1.944,1.929,0,2.088C492.734,741.12,491.433,741.383,490.614,741.16Z" transform="translate(-1.899 -22.476)"/><path class="e" d="M482.474,731.431c-1.408.9-1.9-.737-.614-1.32-1.065.174-1.372-1.115-.328-1.28-1.433-.614-1.044-1.985,0-1.883-.231-.8.684-.923,1.392-.491-.327-1.341,1-2.149,1.781-.675.2-1.289,2.02-.917,2.5.2.716-1.433,2.067-.491,1.944.962.757-1.208,1.7-.819,1.822.655.389-1.187,1.412-.716,1.269.491.511-1.146,1.76-.839,1.535.553.675-.839,2.716-.336,2.415.573,1.781.123,1.044,2.088-.307,1.679.594.962-.43,1.617-1.31.716.041,1.167-1.474,1.035-1.986,0-.471.9-1.1,1.428-1.679.675-.606.728-1.109.15-1.535-.7-.729.6-1.1.732-1.7.021-.559.747-1.049.788-1.658.082a1.4,1.4,0,0,1-2.19.061C483.277,732.314,482.392,732.515,482.474,731.431Z" transform="translate(-1.414 -16.717)"/><path class="e" d="M513.718,736.038c-1.519-.534-1.935,1.187-.476,1.207-2.154,1.085.147,2.374,1.133.716.643,1.351,1.973.169,1.959-.921.362.86,1.017.9,1.552.261.337.9.72,1.28,1.554.678.1,1.026,1.329,1.251,1.657.308.531.763,1.047.645,1.514-.158.552.9,2.316.883,2.415-.333,1.52,1,2.456-1.175,1.085-1.678.767-.853-.425-1.376-1.535-1.085.022-1.147-.614-2.047-1.617-1.412-.362-1.172-1.5-1.087-1.944,0-.768-.8-1.637-.655-1.76.43-.8-1.433-2.129-.86-2.395.448-.737-1.225-2.026-.877-1.679.658C514.25,734.69,513.544,735.265,513.718,736.038Z" transform="translate(-17.563 -20.689)"/><path class="e" d="M526.552,726.533c-1.412,1.41-3.275.164-1.5-.8-1.463-.021-1.034-2.149.519-1.372-.135-.936.905-.768,1.457,0-.164-1.249,1.064-1.451,1.535-.512.464-.942,1.971-.368,1.637.533.92-.277,1.322,1.546.368,1.432.485.829-1.085,1.228-1.781.287C528.452,727.226,526.892,727.584,526.552,726.533Z" transform="translate(-23.571 -15.851)"/><path class="e" d="M541.622,730.494c-1.269.266-.982-1.576,0-.982-.179-.506,1.637-1.863,2.333.225.041-1.719,1.169-1.442,1.781-.615.164-1.016,1.351-1.181,1.965-.286a1.289,1.289,0,0,1,2.293-.614c.247-1.156,1.864-1.393,2.149-.246.983-1.8,3.029-.451,2.047.921.91-.42,1.711,1.031.9,1.6,1.76.328.938,2.7-.164,1.8.1,1.371-2.067,1.248-1.7-.348-.545.679-1.064.2-1.494-.553-.24.837-.93,1.9-1.74,1.167a1.025,1.025,0,0,1-1.924.553c-.393,1.021-2.149,1.105-2.579-.573-.337.619-1.177.716-1.289.02-.368.88-2.211.737-1.494-.8C541.458,732.948,539.985,731.395,541.622,730.494Z" transform="translate(-32.03 -17.807)"/><path class="e" d="M541.8,719.553c-.225,1.228-2.415,1.617-1.965,0A.868.868,0,0,1,538.25,719c-.75.465-1.663-.916-1.2-1.33-1.8.785-1.53-2.149.149-1.167-.265-.559.91-1.029,1.372-.43-.143-1.024.941-1.351,1.514-.225.143-1.187,1.126-1.248,1.514-.266.107-.8,1.2-1.683,1.863-.839.207-1.054,2.683-1.369,2.462-.123,1.8-1.228,2.41,1.822.731,2.293.789.428.113,1.848-.731,1.542.319.839-1.6,1.888-2.216,1.1C543.5,720.534,542.217,720.463,541.8,719.553Z" transform="translate(-29.505 -11.041)"/><path class="d" d="M524.208,711.028c1.474.307.644,1.6-.481,1.6.42.88-.911,1.781-2.073,1.186-.153.83-.484,1.108-1.121.554a1.428,1.428,0,0,1-2.409-.225c-.913.7-1.5.348-1.574-.655-.592.737-1.717-.1-1.043-1.064-1.432,1.064-1.718-1.4-.348-1.392-.434-.523-.053-.929.615-.8-.327-.839.491-1.6,1.474-.8-.389-1.105.717-1.842,1.515-.983a.921.921,0,1,1,1.778-.471,1.028,1.028,0,0,1,2.033.307c1.2-1.208,2.279.491,1.634,1.31C525.149,709.329,525.149,711.085,524.208,711.028Z" transform="translate(-18.545 -7.633)"/><path class="d" d="M534.773,705.091c-1.105,1.238.854,2.19,1.617.86.082,1.187,1.719.993,1.781-.246.409,1.239,1.821.624,1.832-.614a.953.953,0,0,0,1.837-.491c.732.614,2.41-.266,1.735-1.412,1.065.123,1.535-2.006,0-1.679.926-1.146-.88-3.05-1.965-1.228-.041-1.412-1.76-1.719-1.719,0-.474-.722-1.469-.219-1.617.614-.495-.687-1.5-.683-1.678.143-.467-.706-2.275-.4-2.053.593-.867-.531-2.106,1.284-1.161,1.658C532.454,703.708,533.483,705.828,534.773,705.091Z" transform="translate(-28.087 -3.559)"/><path class="e" d="M521.2,699.281a1.115,1.115,0,0,0,1.986-.645c.843.713,2.377-.14,1.658-.978,1.1-.032.737-2.113-.409-1.962.315-.656-.562-.939-1.157-.521.747-.869-.194-2.179-1.315-.905.706-1.457-1.4-1.908-1.9-.5-.351-1.068-1.465-1.249-1.977,0,.143-1.666-1.48-1.564-2.149-.491.123-1.535-1.637-1.6-2.272,0-.2-1.514-1.8-1.474-1.842.164a1.023,1.023,0,0,0-1.822.8c-1.085-1.085-2.722.45-1.454,1.3-2.129,1.054-.37,3.49.88,1.423-.132.951,1.349,1.2,1.76.266.469.907,1.495.589,1.986-.43.225,1.412,1.351,1.29,1.924.43-.1,1.105.475,1.124,1.117.716a.824.824,0,0,0,1.339.819c-.036.9,1.51,1.729,2.006.9C519.9,700.577,521.036,700.232,521.2,699.281Z" transform="translate(-15.13 0)"/><path class="d" d="M503.946,704.353c.1.88-.88.8-.982,0-.256.626-1.754,1.778-2.405.246-.764,1.48-3.326.328-2.753-.491-2.8.675-1.457-2.538,0-1.965-.524-.664.4-1.349.982-.737,0-1.535,2.091-1.276,2.211,0,.906-.906,1.484-.093,1.433,1.187,1.018-.778,2.9-.063,2.251.614C506.3,703.043,505.666,705.766,503.946,704.353Z" transform="translate(-9.337 -4.192)"/><path class="e" d="M498.069,712.428c.167-1.31-1.7-1.449-1.965,0-.491-1.036-1.494-.88-1.76.153-.43-1.189-2.518-.972-2.293.523a1.152,1.152,0,0,0-2.129.306c-.061-1.29-1.863-1.576-2.129.061-.45-.891-1.8-.276-1.105.88-1.023-.635-1.76.553-.737,1.224-2.354-.528-1.105,1.969.041,1.171-.026.876,1.786.845,2.272.02.505,1.7,2.211.778,2.333,0a1.208,1.208,0,0,0,2.129.573.961.961,0,0,0,1.658.88c-.061.8.651,1.174,1.207.532-.02.778.655,1.372,1.576.642-.287,1.466,1.067,1.876,1.658.811-.307.921.637,1.566,1.167,1.105.342.614,1.584.074,1.31-.573.69-.135,1.351-2.538-.43-2.354a1.312,1.312,0,0,0-1.133-2.026c.539-.37.15-1.29-.557-1.31a.845.845,0,0,0-.214-1.658C499.9,712.856,499.184,711.392,498.069,712.428Z" transform="translate(-3.459 -9.811)"/><path class="e" d="M492.3,749.2c-.269-1.525-2.009-1.115-2.089.6-.9-1.08-1.826-.089-1.812.955-.944-.446-1.525-.11-1.259.975-.512-1.044-1.113-.964-1.863,0-.573-1.535-1.522-1.561-2.354-.491-.143-1.33-1.764-1.392-2.067,0-.833-1.069-2.975-.481-2.333.491-1.155.15-.9,2.067.86,1.556-1.187,1.269.317,1.746,1.31,1.167.085,1.147,1.279,1.075,1.883.46.288.813.763.939,1.289.256.383.772.872.752,1.412,0,.439.815,1.114,1.225,1.883.246a1.175,1.175,0,0,0,2.17.184c.617.639,1.322.077,1.187-.655.717.2.85-.229.634-.942.735.118,1.133-.035.942-.839.807.18,1.707-.451,1.207-1.392,1.74.123,1.568-1.285.533-1.535C495.551,749.066,493.177,746.674,492.3,749.2Z" transform="translate(0 -28.478)"/><path class="e" d="M515.319,749.319c-1.719.491-.389,2.112.88,1.228-.593.512-.61,1.471.368,1.259-1.044,2.037,1.412,2.732,1.586.537.563,1.432,1.5,1.2,2.221.128.663,1.151,1.044,1.132,1.74,0,.7,1.132,1.251,1.32,1.965,0,.854,1.234,1.708.836,2.231-.246.729.956,1.566,1.059,1.567-.143,1.071.544,2.01-.584.991-1.576,1.346-.46,1.3-2.372-.246-2.057.42-1.526-1.216-1.587-2.108-.4-.655-1.332-1.355-.959-1.944,0-.589-.959-.966-1-1.474,0a1.448,1.448,0,0,0-2.439.409c.269-1.269-.645-1.684-1.512-.737,0-1.371-1.678-1.535-1.927.143-.427-1.372-2.126-.983-1.676.43C514.644,747.6,514.009,749.094,515.319,749.319Z" transform="translate(-18.663 -27.749)"/><path class="e" d="M546.073,743.962c-1.146.717.129,2.252.921.962-.292.777,1.017,1.336,1.412.491-.013.932,1.6.806,1.991-.1-.415,1.6,1.04,1.674,1.468.819-.038.955,1.222.9,1.372-.041-.061,1.611,1.965,1.085,1.412-.41.515.81,2.68.682,2.088-.46,1.329,1.013,3.3-2.262,1.329-2.119.831-1.783-1.759-1.578-2.188-.061-.075-1.111-1.61-1.6-1.842-.511-.237-1.089-2.357-1-2.518.45-.449-1.384-2-.763-2.333.061-.037-.888-.941-1.3-1.331-.511.033-.875-1.724-.994-1.392-.184C544.23,740.891,543.923,744.417,546.073,743.962Z" transform="translate(-33.983 -25.277)"/><path class="d" d="M543.163,754.308c-.082-1.45,1.31-1.617,1.474,0,.368-1.31,1.351-1.45,1.412.164.315-1.474,1.725-.573,1.392.368.774-.815,2.12-.535,1.842.962,1.25-.87,1.907.036,1.535,1.2,1.085-.569,1.615.142,1.167,1.048.956-.33,1.623.578.737,1.065a.827.827,0,1,1-.614,1.535c.5,1.19-1.046,2.178-2.026.818-.258,1.656-1.8,1.326-2.139.184-.56,1.051-1.338.755-1.463-.43a1.2,1.2,0,0,1-2.19-.634c-.775.92-1.45.691-1.454-.512-.843.858-2.413.509-1.719-.8-1.412.443-2.064-1.354-.541-2.108-1.613-.534-1.436-2.845.254-2.272C540.03,753.306,542.6,753.306,543.163,754.308Z" transform="translate(-31.36 -31.059)"/><path class="e" d="M561.7,756.227c-.942-.7.225-1.711.88-.921.387-1.061,1.351-1.132,1.6.266.1-1.167,1.245-1.436,1.8.061.831-1.617,2.744-.082,1.8,1.228,1.125-.8,2.047.788.614,1.392,1.494.323.7,2.17-.451,1.535.491,1-1.33,1.433-1.474.143-.493,1.064-1.782.491-1.617-.757-.327.757-1.535,1.556-1.74.225-.573,1.331-2.293.6-1.945-.823-1.463-.016-1.132-1.327-.246-1.633C560.423,756.15,561.025,755.92,561.7,756.227Z" transform="translate(-41.894 -31.75)"/><path class="e" d="M534.523,766.162c.051-2.211-2.221-1.944-1.766-.44-1.724-1.043-2,1.852.2,1.1-1.415.589-.739,2.369.674,1.6-.658.813-.115,1.588.879,1.267-.485.926.559,2.171,1.453,1.429-.119,1.156,1.026,1.07,1.678.346.041.974.551,1.333,1.269.675-.052.973.748,1.462,1.576.654-.026,1.157.894,1.475,1.576.716.045,1.019.792,1.165,1.453.389a1.189,1.189,0,0,0,2.231.532c.158,1.475,2.321,1.708,2.272.225a.939.939,0,1,0,1.141-1.453c1.459-.277,1.181-2.1-.3-2.17a1.1,1.1,0,0,0-1.125-1.883c.573-1.187-.483-1.934-1.556-1.167a1.1,1.1,0,0,0-1.924-1c-.175-1.18-1.056-.963-1.76,0-.172-1.181-.834-1.9-1.74-.921-.04-1.334-1.562-1.856-2.19-.512-.494-1.4-1.869-.966-2.17.287C535.732,764.73,535.03,765.038,534.523,766.162Z" transform="translate(-27.253 -36.854)"/><path class="e" d="M498.647,764.776c1.307.132,1.843,1.307.424,1.739a.911.911,0,0,1-.841,1.617c.406.982-.577,1.617-1.507.972.2,1.472-1.219,2.385-1.827,1.059a1.186,1.186,0,0,1-2.009.714c.135,1.035-.83.96-.922.859.435.305.8,2.312-.738,1.739,1.453,1.494-1.208,3.18-1.416.593-.644,1.1-1.825.3-1.327-.962-1.269.483-2.132-.34-1.116-1.576-1.6.081-1.745-1.477-.706-2.149-1.883,1.453-2.8-1.74,0-1.494-2.067-.839-.573-2.251.758-1.412-.686-.889-.417-1.521.655-1.187-1.474-1.494,1.216-2.477,1.737-1.289.528-1.185,1.4-.123,1.252.942a.853.853,0,0,1,1.658-.082,1.284,1.284,0,0,1,2.088-1.146c-.177-1.618,1.014-2.241,1.679-1.023.452-1.312,2.023-.606,1.556.621C499.265,762.828,499.624,763.9,498.647,764.776Z" transform="translate(-3.597 -35.55)"/><g transform="translate(510.298 705.124)"><path class="d" d="M544.316,721.48a.363.363,0,0,1-.294-.147.572.572,0,0,1-.011-.6,3.395,3.395,0,0,0,.669.014.246.246,0,0,1,.132.321.6.6,0,0,1-.448.409A.325.325,0,0,1,544.316,721.48Z" transform="translate(-543.936 -719.611)"/><path class="d" d="M547.948,722.45a.4.4,0,0,1-.357-.2.537.537,0,0,1,.061-.572,1.272,1.272,0,0,0,.7.1.246.246,0,0,1,.107.331.589.589,0,0,1-.495.338Z" transform="translate(-545.768 -720.108)"/><path class="d" d="M554.835,719.468a.355.355,0,0,1-.3-.16.547.547,0,0,1,.022-.57.246.246,0,0,1,.45.028.246.246,0,0,1,.3.34.571.571,0,0,1-.448.361Z" transform="translate(-549.294 -718.603)"/><path class="d" d="M551.8,721.46a.368.368,0,0,1-.315-.172.585.585,0,0,1,.038-.611,2.6,2.6,0,0,0,.675.073.246.246,0,0,1,.107.331.616.616,0,0,1-.488.38Z" transform="translate(-547.743 -719.592)"/></g><g transform="translate(508.791 697.209)"><path class="f" d="M547.278,707.478a.379.379,0,0,1-.309-.157.619.619,0,0,1,0-.647,1.335,1.335,0,0,0,.713.04.246.246,0,0,1,.129.323.652.652,0,0,1-.485.438Z" transform="translate(-543.929 -704.545)"/><path class="f" d="M551.835,705.468a.355.355,0,0,1-.3-.16.547.547,0,0,1,.022-.57.452.452,0,0,1,.75.368.571.571,0,0,1-.449.361Z" transform="translate(-546.262 -703.566)"/><path class="f" d="M541.265,709.455a.382.382,0,0,1-.332-.188.622.622,0,0,1,.06-.648.246.246,0,0,1,.46.117.246.246,0,0,1,.349.324.655.655,0,0,1-.527.393Z" transform="translate(-540.87 -705.545)"/><path class="f" d="M548.9,703.45a.431.431,0,0,1-.379-.207.592.592,0,0,1,.063-.631.245.245,0,0,1,.421.251l-.023.042a.257.257,0,0,0,.036-.056.246.246,0,0,1,.441.218.649.649,0,0,1-.54.383Z" transform="translate(-544.729 -702.491)"/></g><g transform="translate(496.347 695.279)"><path class="d" d="M536.265,700.455a.382.382,0,0,1-.332-.188.622.622,0,0,1,.059-.648.246.246,0,0,1,.46.117.246.246,0,0,1,.349.324.655.655,0,0,1-.527.393Z" transform="translate(-525.881 -699.036)"/><path class="d" d="M537.9,703.45a.431.431,0,0,1-.379-.207.593.593,0,0,1,.063-.631.245.245,0,0,1,.422.251l-.023.042a.259.259,0,0,0,.036-.056.246.246,0,1,1,.441.218.649.649,0,0,1-.54.383Z" transform="translate(-526.687 -700.561)"/><path class="d" d="M532.828,703.471a.357.357,0,0,1-.3-.157.555.555,0,0,1,.014-.58.246.246,0,0,1,.453.028.252.252,0,0,1,.194.006.246.246,0,0,1,.117.327.581.581,0,0,1-.45.375Z" transform="translate(-524.145 -700.614)"/><path class="d" d="M524.316,699.48a.363.363,0,0,1-.294-.147.572.572,0,0,1-.011-.6,3.415,3.415,0,0,0,.669.014.246.246,0,0,1,.132.321.6.6,0,0,1-.448.409A.318.318,0,0,1,524.316,699.48Z" transform="translate(-519.81 -698.573)"/><path class="d" d="M515.948,699.45a.4.4,0,0,1-.357-.2.537.537,0,0,1,.061-.572,1.276,1.276,0,0,0,.7.1.246.246,0,0,1,.107.331.589.589,0,0,1-.495.339Z" transform="translate(-515.536 -698.562)"/><path class="d" d="M529.828,699.471a.357.357,0,0,1-.3-.157.555.555,0,0,1,.014-.58.246.246,0,0,1,.453.027.249.249,0,0,1,.194.006.246.246,0,0,1,.117.327.581.581,0,0,1-.45.375Z" transform="translate(-522.619 -698.579)"/></g><g transform="translate(508.047 729.642)"><path class="d" d="M543.4,769.468a.429.429,0,0,1-.36-.184.6.6,0,0,1,.021-.636.246.246,0,0,1,.438.224c-.01.019-.017.036-.024.051a.278.278,0,0,0,.037-.065.246.246,0,1,1,.454.188.652.652,0,0,1-.515.419Z" transform="translate(-541.187 -768.514)"/><path class="d" d="M550.818,772.472a.363.363,0,0,1-.3-.16.566.566,0,0,1,.016-.592,4.539,4.539,0,0,0,.659.041.246.246,0,0,1,.117.327.594.594,0,0,1-.461.383Z" transform="translate(-544.995 -770.075)"/><path class="d" d="M554.335,771.477a.355.355,0,0,1-.291-.149.549.549,0,0,1,0-.574,34.563,34.563,0,0,0,.642.016.246.246,0,0,1,.126.324.574.574,0,0,1-.436.382Z" transform="translate(-546.788 -769.58)"/><path class="d" d="M539.754,770.453a.387.387,0,0,1-.337-.19.637.637,0,0,1,.062-.662,1.061,1.061,0,0,0,.723.117.245.245,0,0,1,.1.333.669.669,0,0,1-.538.4Z" transform="translate(-539.354 -769.004)"/><path class="d" d="M564.335,779.477a.355.355,0,0,1-.291-.149.549.549,0,0,1,0-.574,34.563,34.563,0,0,0,.642.016.246.246,0,0,1,.126.324.574.574,0,0,1-.436.382Z" transform="translate(-551.876 -773.65)"/><path class="d" d="M558.278,772.478a.379.379,0,0,1-.309-.157.62.62,0,0,1,0-.647,1.335,1.335,0,0,0,.713.04.246.246,0,0,1,.129.323.652.652,0,0,1-.485.438Z" transform="translate(-548.78 -770.048)"/><path class="d" d="M560.948,776.45a.4.4,0,0,1-.357-.2.537.537,0,0,1,.061-.572,1.274,1.274,0,0,0,.7.1.246.246,0,0,1,.107.331.589.589,0,0,1-.495.339Z" transform="translate(-550.13 -772.1)"/><path class="d" d="M555.835,776.468a.355.355,0,0,1-.3-.16.547.547,0,0,1,.022-.57.452.452,0,0,1,.75.368.571.571,0,0,1-.449.361Z" transform="translate(-547.552 -772.121)"/></g><g transform="translate(520.359 724.254)"><path class="d" d="M566.278,761.477a.379.379,0,0,1-.309-.157.619.619,0,0,1,0-.647,1.335,1.335,0,0,0,.713.04.246.246,0,0,1,.129.323.652.652,0,0,1-.485.438Z" transform="translate(-565.163 -759.063)"/><path class="d" d="M564.8,758.46a.368.368,0,0,1-.315-.172.585.585,0,0,1,.038-.611,2.609,2.609,0,0,0,.676.073.245.245,0,0,1,.107.331.615.615,0,0,1-.488.38Z" transform="translate(-564.418 -757.546)"/><path class="d" d="M570.9,760.45a.431.431,0,0,1-.379-.207.592.592,0,0,1,.063-.631.245.245,0,0,1,.422.251c-.009.015-.016.029-.023.042a.264.264,0,0,0,.036-.057.246.246,0,0,1,.441.218.649.649,0,0,1-.54.383Z" transform="translate(-567.489 -758.536)"/></g><g transform="translate(511.485 725.694)"><path class="f" d="M546.754,761.453a.387.387,0,0,1-.336-.19.637.637,0,0,1,.062-.662,1.061,1.061,0,0,0,.723.117.245.245,0,0,1,.1.333.669.669,0,0,1-.538.4Z" transform="translate(-546.354 -760.476)"/><path class="f" d="M554.828,761.471a.357.357,0,0,1-.3-.157.555.555,0,0,1,.014-.58.246.246,0,0,1,.453.028.25.25,0,0,1,.194.006.246.246,0,0,1,.117.327.581.581,0,0,1-.45.375Z" transform="translate(-550.477 -760.537)"/><path class="f" d="M557.828,764.471a.357.357,0,0,1-.3-.157.555.555,0,0,1,.014-.58,11.732,11.732,0,0,0,.647.034.246.246,0,0,1,.117.327.581.581,0,0,1-.451.375Z" transform="translate(-552.003 -762.064)"/></g><g transform="translate(500.219 713.938)"><path class="d" d="M529.4,739.467a.429.429,0,0,1-.36-.184.6.6,0,0,1,.021-.636.246.246,0,0,1,.438.224c-.01.019-.017.036-.024.051a.278.278,0,0,0,.037-.065.246.246,0,1,1,.454.188.651.651,0,0,1-.515.419Z" transform="translate(-526.236 -737.547)"/><path class="d" d="M526.818,740.472a.363.363,0,0,1-.3-.16.566.566,0,0,1,.016-.592.246.246,0,0,1,.456.039.25.25,0,0,1,.2,0,.246.246,0,0,1,.117.327.594.594,0,0,1-.461.383Z" transform="translate(-524.957 -738.091)"/><path class="d" d="M533.8,739.461a.368.368,0,0,1-.315-.172.585.585,0,0,1,.038-.611,2.6,2.6,0,0,0,.675.073.246.246,0,0,1,.107.331.616.616,0,0,1-.488.38Z" transform="translate(-528.506 -737.564)"/><path class="d" d="M523.8,737.46a.368.368,0,0,1-.315-.172.585.585,0,0,1,.038-.611,2.6,2.6,0,0,0,.675.073.246.246,0,0,1,.107.331.615.615,0,0,1-.488.38Z" transform="translate(-523.418 -736.546)"/></g><g transform="translate(485.709 729.676)"><path class="d" d="M509.316,769.479a.363.363,0,0,1-.294-.147.573.573,0,0,1-.011-.6,3.42,3.42,0,0,0,.669.014.246.246,0,0,1,.132.321.6.6,0,0,1-.448.409A.31.31,0,0,1,509.316,769.479Z" transform="translate(-501.541 -768.583)"/><path class="d" d="M494.948,781.45a.4.4,0,0,1-.357-.2.537.537,0,0,1,.061-.572,1.274,1.274,0,0,0,.7.1.246.246,0,0,1,.107.331.589.589,0,0,1-.495.338Z" transform="translate(-494.215 -774.677)"/><path class="d" d="M494.278,775.477a.379.379,0,0,1-.309-.157.619.619,0,0,1,0-.647,1.337,1.337,0,0,0,.713.04.246.246,0,0,1,.129.323.652.652,0,0,1-.485.438Z" transform="translate(-493.882 -771.607)"/><path class="d" d="M508.835,772.468a.355.355,0,0,1-.3-.16.547.547,0,0,1,.022-.57.452.452,0,0,1,.75.368.571.571,0,0,1-.449.361Z" transform="translate(-501.303 -770.119)"/><path class="d" d="M499.265,773.455a.382.382,0,0,1-.332-.188.623.623,0,0,1,.059-.648.246.246,0,0,1,.46.117.248.248,0,0,1,.25-.009.246.246,0,0,1,.1.333.656.656,0,0,1-.527.394Z" transform="translate(-496.42 -770.572)"/><path class="d" d="M502.9,774.45a.431.431,0,0,1-.379-.207.592.592,0,0,1,.063-.631.245.245,0,0,1,.421.251l-.023.042a.26.26,0,0,0,.036-.057.246.246,0,1,1,.441.218.649.649,0,0,1-.54.383Z" transform="translate(-498.243 -771.08)"/><path class="d" d="M505.828,769.471a.357.357,0,0,1-.3-.157.555.555,0,0,1,.014-.58.246.246,0,0,1,.453.028.252.252,0,0,1,.194.006.246.246,0,0,1,.117.327.581.581,0,0,1-.45.375Z" transform="translate(-499.771 -768.59)"/></g><g transform="translate(481.118 710.027)"><path class="d" d="M484.948,731.45a.4.4,0,0,1-.357-.2.537.537,0,0,1,.061-.572,1.275,1.275,0,0,0,.7.1.246.246,0,0,1,.107.331.589.589,0,0,1-.495.339Z" transform="translate(-484.536 -729.59)"/><path class="d" d="M496.835,735.468a.355.355,0,0,1-.3-.16.547.547,0,0,1,.022-.57.246.246,0,0,1,.45.028.25.25,0,0,1,.187.012.246.246,0,0,1,.113.329.571.571,0,0,1-.449.361Z" transform="translate(-490.607 -731.646)"/><path class="d" d="M506.265,735.455a.382.382,0,0,1-.332-.188.623.623,0,0,1,.059-.648.246.246,0,0,1,.46.117.246.246,0,0,1,.349.324.655.655,0,0,1-.527.393Z" transform="translate(-495.39 -731.59)"/><path class="d" d="M491.316,733.48a.363.363,0,0,1-.294-.147.572.572,0,0,1-.011-.6,3.405,3.405,0,0,0,.669.014.246.246,0,0,1,.132.321.6.6,0,0,1-.449.409A.317.317,0,0,1,491.316,733.48Z" transform="translate(-487.792 -730.618)"/><path class="d" d="M495.948,732.45a.4.4,0,0,1-.357-.2.537.537,0,0,1,.061-.572,1.273,1.273,0,0,0,.7.1.246.246,0,0,1,.107.331.589.589,0,0,1-.495.339Z" transform="translate(-490.132 -730.099)"/><path class="d" d="M489.316,729.48a.363.363,0,0,1-.294-.147.572.572,0,0,1-.011-.6,3.405,3.405,0,0,0,.669.014.246.246,0,0,1,.132.321.6.6,0,0,1-.449.409A.317.317,0,0,1,489.316,729.48Z" transform="translate(-486.775 -728.583)"/></g><g transform="translate(513.507 711.456)"><path class="d" d="M560.316,734.48a.363.363,0,0,1-.294-.147.572.572,0,0,1-.011-.6,3.415,3.415,0,0,0,.669.014.246.246,0,0,1,.132.321.6.6,0,0,1-.449.409A.317.317,0,0,1,560.316,734.48Z" transform="translate(-555.285 -732.556)"/><path class="d" d="M557.948,732.45a.4.4,0,0,1-.357-.2.537.537,0,0,1,.061-.572,1.273,1.273,0,0,0,.7.1.246.246,0,0,1,.107.331.589.589,0,0,1-.495.339Z" transform="translate(-554.064 -731.527)"/><path class="d" d="M565.278,734.478a.379.379,0,0,1-.309-.157.619.619,0,0,1,0-.647,1.335,1.335,0,0,0,.713.04.246.246,0,0,1,.129.323.652.652,0,0,1-.485.438Z" transform="translate(-557.802 -732.528)"/><path class="d" d="M550.835,734.468a.355.355,0,0,1-.3-.16.547.547,0,0,1,.022-.57.246.246,0,0,1,.45.028.25.25,0,0,1,.187.012.246.246,0,0,1,.113.329.571.571,0,0,1-.448.361Z" transform="translate(-550.469 -732.566)"/><path class="d" d="M562.9,732.45a.431.431,0,0,1-.379-.207.592.592,0,0,1,.063-.631.245.245,0,0,1,.421.251l-.023.042a.26.26,0,0,0,.036-.057.246.246,0,0,1,.441.218.649.649,0,0,1-.54.383Z" transform="translate(-556.567 -731.492)"/><path class="d" d="M553.828,734.471a.357.357,0,0,1-.3-.157.555.555,0,0,1,.014-.58,11.545,11.545,0,0,0,.647.034.246.246,0,0,1,.117.327.581.581,0,0,1-.451.375Z" transform="translate(-551.99 -732.563)"/></g><g transform="translate(482.762 717.368)"><path class="f" d="M488.278,744.478a.38.38,0,0,1-.309-.157.619.619,0,0,1,0-.647,1.335,1.335,0,0,0,.713.04.246.246,0,0,1,.129.323.652.652,0,0,1-.485.438Z" transform="translate(-487.882 -743.528)"/><path class="f" d="M492.948,745.45a.4.4,0,0,1-.357-.2.537.537,0,0,1,.061-.572,1.275,1.275,0,0,0,.7.1.246.246,0,0,1,.107.331.588.588,0,0,1-.495.338Z" transform="translate(-490.25 -744.054)"/></g><g transform="translate(498.222 721.273)"><path class="d" d="M519.754,752.453a.387.387,0,0,1-.337-.19.637.637,0,0,1,.063-.662,1.061,1.061,0,0,0,.723.117.245.245,0,0,1,.1.333.67.67,0,0,1-.538.4Z" transform="translate(-519.354 -751.476)"/><path class="d" d="M526.818,752.472a.362.362,0,0,1-.3-.16.566.566,0,0,1,.016-.592,4.539,4.539,0,0,0,.659.041.246.246,0,0,1,.117.327.594.594,0,0,1-.461.383Z" transform="translate(-522.96 -751.53)"/><path class="d" d="M533.828,756.471a.357.357,0,0,1-.3-.157.555.555,0,0,1,.014-.58.246.246,0,0,1,.453.028.252.252,0,0,1,.194.006.246.246,0,0,1,.117.327.581.581,0,0,1-.45.375Z" transform="translate(-526.529 -753.573)"/><path class="d" d="M522.265,754.455a.382.382,0,0,1-.332-.188.623.623,0,0,1,.06-.648.246.246,0,0,1,.46.117.246.246,0,0,1,.349.324.655.655,0,0,1-.527.393Z" transform="translate(-520.634 -752.503)"/><path class="d" d="M537.948,754.45a.4.4,0,0,1-.357-.2.537.537,0,0,1,.061-.572,1.275,1.275,0,0,0,.7.1.246.246,0,0,1,.107.331.589.589,0,0,1-.495.339Z" transform="translate(-528.604 -752.537)"/></g><g transform="translate(481.806 721.829)"><path class="d" d="M504.4,756.467a.429.429,0,0,1-.36-.184.6.6,0,0,1,.021-.636.246.246,0,1,1,.438.224c-.01.019-.017.036-.024.051a.278.278,0,0,0,.037-.065.246.246,0,1,1,.454.188.651.651,0,0,1-.515.419Z" transform="translate(-495.104 -754.087)"/><path class="d" d="M497.818,757.472a.363.363,0,0,1-.3-.16.566.566,0,0,1,.016-.592,4.539,4.539,0,0,0,.659.041.246.246,0,0,1,.117.327.594.594,0,0,1-.461.383Z" transform="translate(-491.79 -754.631)"/><path class="d" d="M507.335,753.477a.355.355,0,0,1-.291-.149.549.549,0,0,1,0-.574.245.245,0,0,1,.452.012.246.246,0,0,1,.316.327.574.574,0,0,1-.436.382Z" transform="translate(-496.635 -752.609)"/><path class="d" d="M486.316,758.48a.363.363,0,0,1-.294-.147.572.572,0,0,1-.011-.6,3.39,3.39,0,0,0,.669.014.246.246,0,0,1,.132.321.6.6,0,0,1-.449.409A.317.317,0,0,1,486.316,758.48Z" transform="translate(-485.936 -755.14)"/><path class="d" d="M490.278,758.477a.379.379,0,0,1-.309-.157.619.619,0,0,1,0-.647,1.336,1.336,0,0,0,.713.04.246.246,0,0,1,.129.323.652.652,0,0,1-.485.438Z" transform="translate(-487.944 -755.112)"/></g><g transform="translate(490.885 705.096)"><path class="d" d="M510.4,721.467a.429.429,0,0,1-.36-.184.6.6,0,0,1,.021-.636.246.246,0,0,1,.438.223c-.01.019-.017.036-.024.051a.277.277,0,0,0,.037-.065.246.246,0,1,1,.454.188.651.651,0,0,1-.515.419Z" transform="translate(-507.236 -719.547)"/><path class="d" d="M504.8,719.461a.368.368,0,0,1-.315-.172.585.585,0,0,1,.038-.611,2.6,2.6,0,0,0,.675.073.245.245,0,0,1,.107.331.616.616,0,0,1-.488.38Z" transform="translate(-504.418 -718.546)"/><path class="d" d="M513.835,726.468a.355.355,0,0,1-.3-.16.547.547,0,0,1,.022-.57.452.452,0,0,1,.75.368.571.571,0,0,1-.449.361Z" transform="translate(-509.023 -722.137)"/></g><g transform="translate(499.727 702.668)"><path class="f" d="M527.948,717.45a.4.4,0,0,1-.357-.2.537.537,0,0,1,.061-.572,1.274,1.274,0,0,0,.7.1.246.246,0,0,1,.107.331.589.589,0,0,1-.495.339Z" transform="translate(-525.022 -715.108)"/><path class="f" d="M530.835,714.468a.355.355,0,0,1-.3-.16.547.547,0,0,1,.022-.57.246.246,0,0,1,.45.028.248.248,0,0,1,.187.012.246.246,0,0,1,.113.329.571.571,0,0,1-.448.361Z" transform="translate(-526.514 -713.603)"/><path class="f" d="M522.8,717.461a.368.368,0,0,1-.315-.172.585.585,0,0,1,.038-.611,2.615,2.615,0,0,0,.676.073.245.245,0,0,1,.107.331.616.616,0,0,1-.488.38Z" transform="translate(-522.418 -715.101)"/></g><g transform="translate(513.482 718.36)"><path class="d" d="M561.9,748.45a.431.431,0,0,1-.379-.207.592.592,0,0,1,.063-.631.245.245,0,0,1,.421.252c-.009.015-.016.029-.023.042a.261.261,0,0,0,.036-.057.246.246,0,0,1,.441.218.649.649,0,0,1-.54.383Z" transform="translate(-556.033 -746.536)"/><path class="d" d="M566.948,747.45a.4.4,0,0,1-.357-.2.537.537,0,0,1,.061-.572,1.275,1.275,0,0,0,.7.1.246.246,0,0,1,.107.331.589.589,0,0,1-.495.339Z" transform="translate(-558.618 -746.063)"/><path class="d" d="M550.8,746.46a.368.368,0,0,1-.315-.172.585.585,0,0,1,.038-.611,2.6,2.6,0,0,0,.675.073.245.245,0,0,1,.107.331.615.615,0,0,1-.488.38Z" transform="translate(-550.418 -745.546)"/><path class="d" d="M555.8,747.46a.368.368,0,0,1-.315-.172.585.585,0,0,1,.038-.611,2.6,2.6,0,0,0,.675.073.246.246,0,0,1,.107.331.615.615,0,0,1-.488.38Z" transform="translate(-552.962 -746.055)"/></g></g><g class="g" transform="translate(1477 512)"><circle class="h" cx="33.5" cy="33.5" r="33.5"/><circle class="i" cx="33.5" cy="33.5" r="31.5"/></g></g></svg>