<svg xmlns="http://www.w3.org/2000/svg" width="67" height="67" viewBox="0 0 67 67"><defs><style>.a{fill:#f2f2f2;}.b{fill:#693;}.c{fill:#49850d;}.d{fill:#006632;}.e,.g{fill:none;}.e{stroke:#eaeaea;stroke-width:4px;}.f{stroke:none;}</style></defs><g transform="translate(-1477 -512)"><circle class="a" cx="33.5" cy="33.5" r="33.5" transform="translate(1477 512)"/><g transform="translate(1467.539 -137.961)"><g transform="translate(24.19 660.368)"><g transform="translate(0 0)"><path class="b" d="M40.785,660.368c4.787,1.908,10.611,5.069,14.2,10.8,1.6,2.554,4.921,10.067-2.307,12.774-7.8,1.982-14.378-2.666-15.555-7.7C35.6,669.712,37.21,663.2,40.785,660.368Z" transform="translate(-36.552 -660.368)"/><path class="c" d="M61.373,663.345c2.372,3.573,4.635,7.226,6.647,11.02,1,1.9,1.948,3.83,2.791,5.808a47.836,47.836,0,0,1,2.152,6.085.207.207,0,1,1-.4.11h0v-.005a47.865,47.865,0,0,0-2.083-6.049c-.821-1.974-1.744-3.906-2.729-5.806-1.973-3.8-4.2-7.465-6.539-11.056a.1.1,0,0,1,.162-.106Z" transform="translate(-56.705 -662.767)"/><path class="c" d="M83.38,675.222a3.182,3.182,0,0,1,.3,1.063,3.1,3.1,0,0,1-.093,1.109,3.884,3.884,0,0,1-.444,1.022,4.353,4.353,0,0,1-.7.875.123.123,0,1,1-.17-.178l0,0,.006-.005a4.143,4.143,0,0,0,.682-.8,3.671,3.671,0,0,0,.453-.957,2.941,2.941,0,0,0,.121-1.049,3.061,3.061,0,0,0-.261-1.031.054.054,0,0,1,.1-.046Z" transform="translate(-73.914 -672.488)"/><path class="c" d="M112.3,708.672a6.685,6.685,0,0,1,.139,2.1,5.72,5.72,0,0,1-.592,2.029,6.506,6.506,0,0,1-1.267,1.7,7.191,7.191,0,0,1-1.73,1.256.182.182,0,0,1-.165-.324l0,0,.012-.005a6.9,6.9,0,0,0,1.676-1.139,6.242,6.242,0,0,0,1.268-1.6,5.529,5.529,0,0,0,.635-1.941,6.555,6.555,0,0,0-.071-2.06.047.047,0,0,1,.037-.054A.047.047,0,0,1,112.3,708.672Z" transform="translate(-95.457 -699.839)"/><path class="c" d="M121.872,724.365a9.3,9.3,0,0,1,.319,2.483,7.078,7.078,0,0,1-.471,2.47,6.961,6.961,0,0,1-1.335,2.146,7.636,7.636,0,0,1-.929.868,6.479,6.479,0,0,1-1.077.7.179.179,0,1,1-.162-.32l0,0,.01,0a6.2,6.2,0,0,0,1.027-.631,7.321,7.321,0,0,0,.913-.808,6.7,6.7,0,0,0,1.34-2.032,6.885,6.885,0,0,0,.522-2.39,9.179,9.179,0,0,0-.249-2.457.046.046,0,0,1,.034-.055A.047.047,0,0,1,121.872,724.365Z" transform="translate(-103.255 -712.674)"/><path class="c" d="M39.287,717.493a11.051,11.051,0,0,0,2.369,2.836,11.735,11.735,0,0,0,3.157,1.908,14.871,14.871,0,0,0,3.568.953,15.982,15.982,0,0,0,3.682.108h.009a.164.164,0,1,1,.031.326h0a16.242,16.242,0,0,1-3.76-.168,15.1,15.1,0,0,1-3.609-1.026,11.913,11.913,0,0,1-3.174-1.987,11.179,11.179,0,0,1-2.349-2.9.045.045,0,0,1,.016-.062A.046.046,0,0,1,39.287,717.493Z" transform="translate(-38.72 -707.065)"/><path class="c" d="M45.6,687.973a5.9,5.9,0,0,0,1.223,2.431,6.829,6.829,0,0,0,2.156,1.66,10.561,10.561,0,0,0,2.589.883,13.14,13.14,0,0,0,2.72.284h.006a.128.128,0,1,1,0,.256h0a13.333,13.333,0,0,1-2.771-.334,10.739,10.739,0,0,1-2.621-.942,6.971,6.971,0,0,1-2.173-1.73,5.992,5.992,0,0,1-1.2-2.49h0a.039.039,0,0,1,.075-.018Z" transform="translate(-43.888 -682.919)"/><path class="c" d="M99.458,690.723a8.414,8.414,0,0,1-.3,3.363,4.98,4.98,0,0,1-.793,1.518,4.066,4.066,0,0,1-.6.624,2.994,2.994,0,0,1-.751.47.138.138,0,1,1-.107-.255h0l.011,0a2.779,2.779,0,0,0,.685-.4,3.815,3.815,0,0,0,.585-.57,4.783,4.783,0,0,0,.8-1.434,8.294,8.294,0,0,0,.39-3.3.034.034,0,0,1,.032-.036A.035.035,0,0,1,99.458,690.723Z" transform="translate(-85.842 -685.166)"/><path class="c" d="M52.741,669.4a5.381,5.381,0,0,0,.72,1.5,5.64,5.64,0,0,0,1.138,1.209,6.876,6.876,0,0,0,1.418.864,7.138,7.138,0,0,0,1.569.517h.007a.123.123,0,1,1-.047.241h0a7.324,7.324,0,0,1-1.612-.578,7.047,7.047,0,0,1-1.431-.924,5.776,5.776,0,0,1-1.131-1.268,5.469,5.469,0,0,1-.691-1.545.032.032,0,0,1,.022-.04A.033.033,0,0,1,52.741,669.4Z" transform="translate(-49.739 -667.739)"/><path class="c" d="M45.52,757.7a11.641,11.641,0,0,0,3.017,2.062A16.454,16.454,0,0,0,52,760.952a22.762,22.762,0,0,0,3.63.517,23.7,23.7,0,0,0,3.66-.036H59.3a.168.168,0,1,1,.031.334h0a24.012,24.012,0,0,1-3.715-.019,23.035,23.035,0,0,1-3.662-.578,16.637,16.637,0,0,1-3.485-1.258,11.785,11.785,0,0,1-3.02-2.132.055.055,0,0,1,0-.078A.056.056,0,0,1,45.52,757.7Z" transform="translate(-43.809 -739.951)"/></g><path class="c" d="M123.526,789.106a26.748,26.748,0,0,1,.737,4.12,34.747,34.747,0,0,1,.139,4.174c-.029,1.388-.109,2.769-.187,4.146s-.154,2.751-.2,4.125-.066,2.748-.05,4.121q.012,1.03.048,2.06c.021.7.026,1.385.04,2.076.025,1.378.06,2.754.116,4.128s.136,2.746.274,4.1l-.847.081c-.22-2.777-.266-5.539-.3-8.3-.008-.688-.006-1.386-.021-2.061q-.034-1.038-.043-2.077-.018-2.078.061-4.153c.092-2.767.336-5.521.406-8.261a34.063,34.063,0,0,0-.126-4.092,26.083,26.083,0,0,0-.709-4.02Z" transform="translate(-107.139 -765.647)"/></g><g transform="translate(41.188 670.722)"><path class="d" d="M180.855,721.414c-1.828,4.819-4.89,10.694-10.561,14.383-2.527,1.644-9.526,3.758-12.2-2.949-3.768-7.383,1.9-13.268,6.83-14.825C171.385,715.983,177.967,717.888,180.855,721.414Z" transform="translate(-151.939 -717.187)"/><path class="b" d="M135.969,800.818a26.288,26.288,0,0,0-1.97,3.338,29.3,29.3,0,0,0-1.475,3.591,40.4,40.4,0,0,0-1.7,7.591c-.084.644-.172,1.3-.218,1.931s-.068,1.289-.07,1.936c0,1.295.062,2.593.174,3.888a63.6,63.6,0,0,0,1.157,7.706l-.946.193c-.241-1.3-.424-2.6-.584-3.911s-.293-2.615-.38-3.929-.144-2.631-.123-3.953c.011-.661.04-1.323.1-1.984s.15-1.314.24-1.966a42.836,42.836,0,0,1,1.766-7.7,29.249,29.249,0,0,1,3.483-7.1Z" transform="translate(-129.832 -785.275)"/><path class="b" d="M183.089,740.2a31.324,31.324,0,0,0-6.347.773,27.149,27.149,0,0,0-6.011,2.133,24.76,24.76,0,0,0-9.5,8.289.223.223,0,0,1-.369-.25l0,0a25.071,25.071,0,0,1,9.745-8.285,27.4,27.4,0,0,1,6.091-2.071,31.471,31.471,0,0,1,6.387-.691.053.053,0,0,1,0,.106Z" transform="translate(-155.177 -735.921)"/><path class="b" d="M249.459,748.348a10.094,10.094,0,0,1-1.641-.478,15.463,15.463,0,0,1-1.563-.7,16.743,16.743,0,0,1-1.485-.856c-.24-.156-.476-.319-.706-.494a4.927,4.927,0,0,1-.658-.581.144.144,0,1,1,.213-.194l0,0,0,0a4.7,4.7,0,0,0,.6.565c.217.177.443.345.674.506a16.473,16.473,0,0,0,1.437.895,15.25,15.25,0,0,0,1.524.742,9.962,9.962,0,0,0,1.611.528.03.03,0,0,1-.012.058Z" transform="translate(-222.68 -739.932)"/><path class="b" d="M213.6,766.873a18.167,18.167,0,0,1-2.789-.864c-.908-.354-1.8-.757-2.665-1.2a29.155,29.155,0,0,1-2.543-1.447c-.411-.264-.815-.541-1.2-.839a7.879,7.879,0,0,1-1.1-.993.159.159,0,1,1,.238-.211l0,0,0,0a7.606,7.606,0,0,0,1.04.973c.376.3.769.581,1.169.851a28.976,28.976,0,0,0,2.492,1.487c.855.455,1.73.874,2.625,1.245a18.072,18.072,0,0,0,2.755.916.039.039,0,0,1-.017.076Z" transform="translate(-189.872 -753.235)"/><path class="b" d="M253.4,724.923a6.254,6.254,0,0,0-1.324,1.527,10.007,10.007,0,0,0-.879,1.825.129.129,0,1,1-.242-.091l0-.005a10.222,10.222,0,0,1,.972-1.825,6.386,6.386,0,0,1,1.413-1.5h0a.046.046,0,0,1,.056.072Z" transform="translate(-228.875 -723.447)"/><path class="b" d="M211.851,717.913a11.042,11.042,0,0,0-1.839,3.466,27.662,27.662,0,0,0-.961,3.832.162.162,0,1,1-.318-.061v0a27.913,27.913,0,0,1,1.073-3.84,13.992,13.992,0,0,1,.825-1.82,9.2,9.2,0,0,1,1.133-1.643h0a.055.055,0,0,1,.084.072Z" transform="translate(-194.353 -717.706)"/><path class="b" d="M174.312,732.86c.035.077,0,.113-.023.156l-.068.128c-.045.086-.086.174-.127.262-.081.177-.154.357-.223.539a11.21,11.21,0,0,0-.347,1.114,17.392,17.392,0,0,0-.416,2.3,19.987,19.987,0,0,0-.134,2.331,16.508,16.508,0,0,0,.146,2.324.161.161,0,1,1-.319.045v0a18.182,18.182,0,0,1,.062-4.729,16.316,16.316,0,0,1,.486-2.315,11.3,11.3,0,0,1,.386-1.12c.075-.183.155-.363.243-.541.044-.089.089-.177.137-.263l.073-.13C174.214,732.916,174.228,732.868,174.312,732.86Z" transform="translate(-164.868 -730.004)"/><path class="b" d="M188.876,787.878a14.536,14.536,0,0,1-5.149-2.557,10.958,10.958,0,0,1-2.021-2.083,7.376,7.376,0,0,1-1.271-2.632.175.175,0,1,1,.342-.08v.006a7.062,7.062,0,0,0,1.168,2.533,10.687,10.687,0,0,0,1.932,2.07,14.362,14.362,0,0,0,5.035,2.62.064.064,0,0,1-.036.122Z" transform="translate(-171.21 -768.874)"/></g><g transform="translate(21.436 681.092)"><g transform="translate(0 0)"><path class="d" d="M39.324,777.062c-1.565-2.474-5.98-3.653-10.021-2.558-4.494,1.217-9.928,8.013-7.075,14.771,1.719-1.662,6.719-.725,11.532-2.383C40.611,784.532,40.275,779.314,39.324,777.062Z" transform="translate(-21.436 -774.093)"/><path class="b" d="M114.032,784.646a2.373,2.373,0,0,1,1.054.521,2.842,2.842,0,0,1,.66.968,6.614,6.614,0,0,1,.351,1.061c.045.178.084.357.12.536s.071.353.094.549a15.273,15.273,0,0,1,.011,2.19c-.034.718-.082,1.432-.131,2.145-.2,2.85-.4,5.692-.477,8.539a93.1,93.1,0,0,0,.934,17.007l-.943.14a93.925,93.925,0,0,1-.745-17.173c.114-2.862.343-5.717.577-8.562.057-.711.113-1.421.155-2.129a14.826,14.826,0,0,0,.017-2.089,8.518,8.518,0,0,0-.464-2,2.326,2.326,0,0,0-.509-.808,1.893,1.893,0,0,0-.828-.455Z" transform="translate(-97.058 -782.723)"/><path class="b" d="M26.181,794.937a17.309,17.309,0,0,1,2.741-4.482,25.875,25.875,0,0,1,3.767-3.676,28.787,28.787,0,0,1,4.392-2.908,20.112,20.112,0,0,1,2.4-1.1,9.733,9.733,0,0,1,1.272-.393,2.911,2.911,0,0,1,1.364,0,.136.136,0,0,1-.071.262h0a2.648,2.648,0,0,0-1.239,0,9.588,9.588,0,0,0-1.239.373,19.907,19.907,0,0,0-2.382,1.067,28.547,28.547,0,0,0-4.382,2.852,25.69,25.69,0,0,0-3.772,3.622,17.18,17.18,0,0,0-2.757,4.429.052.052,0,0,1-.1-.039Z" transform="translate(-25.313 -780.801)"/></g><path class="b" d="M50.3,817.354a3.8,3.8,0,0,1,.581,1.354A5.51,5.51,0,0,1,51,820.169,8.772,8.772,0,0,1,50.336,823a.033.033,0,0,1-.062-.024,8.675,8.675,0,0,0,.595-2.808,5.357,5.357,0,0,0-.141-1.419,3.619,3.619,0,0,0-.584-1.282.1.1,0,0,1,.158-.115h0Z" transform="translate(-44.897 -809.434)"/><path class="b" d="M70.189,809.455a6.791,6.791,0,0,0,1.3-4.239A5.682,5.682,0,0,0,71,803.037a4.069,4.069,0,0,0-1.413-1.694.08.08,0,1,1,.089-.134h0a4.224,4.224,0,0,1,1.45,1.769,5.809,5.809,0,0,1,.485,2.234A6.888,6.888,0,0,1,70.25,809.5a.038.038,0,1,1-.061-.045Z" transform="translate(-60.782 -796.257)"/><path class="b" d="M100.22,793.545a5.559,5.559,0,0,0,1.317-2.162,8.758,8.758,0,0,0,.48-2.5,8.52,8.52,0,0,0-.251-2.53,6.423,6.423,0,0,0-1.078-2.279.11.11,0,0,1,.175-.133h0a6.624,6.624,0,0,1,1.083,2.365,8.686,8.686,0,0,1,.222,2.584,8.888,8.888,0,0,1-.52,2.536,5.657,5.657,0,0,1-1.37,2.183h0a.043.043,0,0,1-.059-.062Z" transform="translate(-85.853 -782.108)"/><path class="b" d="M24.86,811.328a4.19,4.19,0,0,1,1.233-.894,6.116,6.116,0,0,1,1.446-.495,5.735,5.735,0,0,1,1.528-.119,3.326,3.326,0,0,1,1.487.416.088.088,0,1,1-.09.151h0a3.173,3.173,0,0,0-1.405-.421,5.6,5.6,0,0,0-1.495.086,6,6,0,0,0-1.432.458,4.123,4.123,0,0,0-1.231.855.026.026,0,0,1-.037,0A.027.027,0,0,1,24.86,811.328Z" transform="translate(-24.23 -803.302)"/><path class="b" d="M21.655,828.718a3.023,3.023,0,0,1,.63-.877,4,4,0,0,1,.872-.644,4.343,4.343,0,0,1,1.011-.4,2.8,2.8,0,0,1,1.1-.081.088.088,0,1,1-.026.174h0a2.639,2.639,0,0,0-1.033.049,4.215,4.215,0,0,0-.991.362,3.4,3.4,0,0,0-1.509,1.445.026.026,0,0,1-.047-.022Z" transform="translate(-21.613 -817.104)"/><path class="b" d="M46.882,786.17a5.312,5.312,0,0,1,1.642-.425,7.268,7.268,0,0,1,1.7.032,7.4,7.4,0,0,1,1.654.416,5.269,5.269,0,0,1,1.492.846.1.1,0,1,1-.126.152l0,0a5.1,5.1,0,0,0-1.423-.847,7.271,7.271,0,0,0-1.613-.443,7.161,7.161,0,0,0-1.676-.068,5.255,5.255,0,0,0-1.631.384.024.024,0,0,1-.032-.013A.024.024,0,0,1,46.882,786.17Z" transform="translate(-42.233 -783.593)"/></g><g transform="translate(28.106 682.365)"><path class="b" d="M125.179,798.521a8.254,8.254,0,0,1,.223,2.03,10.453,10.453,0,0,1-.247,2.03,36.724,36.724,0,0,1-1.175,3.886c-.433,1.275-.842,2.552-1.166,3.849a31.137,31.137,0,0,0-.729,3.934l-.664-.089a31.715,31.715,0,0,1,.861-3.987c.369-1.308.821-2.587,1.292-3.85a36.456,36.456,0,0,0,1.278-3.812,10.154,10.154,0,0,0,.3-1.969,8.032,8.032,0,0,0-.153-1.985Z" transform="translate(-109.872 -795.343)"/><path class="c" d="M73.1,784.1c2.1,3.308-1.421,5.464-4.848,5.646a13.275,13.275,0,0,1-10.212-4.723,40.9,40.9,0,0,1,5.609-2.9C68.008,779.952,72.2,781.445,73.1,784.1Z" transform="translate(-58.041 -781.083)"/><path class="b" d="M59.71,795.42a9.139,9.139,0,0,0,3.821.356,24.113,24.113,0,0,0,3.8-.707c1.253-.314,2.491-.688,3.752-1a11.248,11.248,0,0,1,1.932-.336,2.7,2.7,0,0,1,1,.106,1.088,1.088,0,0,1,.448.288.936.936,0,0,1,.233.476.1.1,0,0,1-.078.12,1.038,1.038,0,0,1-.082-.128,1.576,1.576,0,0,0-.227-.323.9.9,0,0,0-.368-.218,2.47,2.47,0,0,0-.916-.076,12,12,0,0,0-1.889.328c-1.254.3-2.5.662-3.761.964a24.273,24.273,0,0,1-3.839.642,11.383,11.383,0,0,1-1.949-.022,7.034,7.034,0,0,1-1.891-.445.012.012,0,0,1-.007-.016A.013.013,0,0,1,59.71,795.42Z" transform="translate(-59.392 -791.421)"/><path class="b" d="M113.278,794.393a2.748,2.748,0,0,1,.208.989,5.458,5.458,0,0,1-.038.994,5.275,5.275,0,0,1-.6,1.882,4.362,4.362,0,0,1-1.315,1.468,5.115,5.115,0,0,1-1.8.78.036.036,0,0,1-.017-.07,5.035,5.035,0,0,0,1.761-.794,4.244,4.244,0,0,0,1.257-1.447,5.126,5.126,0,0,0,.559-1.838,5.282,5.282,0,0,0,.022-.963,2.583,2.583,0,0,0-.2-.916v0a.1.1,0,0,1,.174-.085Z" transform="translate(-100.271 -791.922)"/><path class="b" d="M95.373,799.93a5.385,5.385,0,0,1-.208,1.344,6.377,6.377,0,0,1-.506,1.258,5.505,5.505,0,0,1-.77,1.112,3.327,3.327,0,0,1-1.074.817.035.035,0,0,1-.046-.018.036.036,0,0,1,.017-.046,3.249,3.249,0,0,0,1.028-.821,5.41,5.41,0,0,0,.729-1.106,5.781,5.781,0,0,0,.637-2.544.1.1,0,1,1,.194,0h0Z" transform="translate(-86.438 -796.414)"/><path class="b" d="M74.526,804.915a2.5,2.5,0,0,1-.424.646,3.395,3.395,0,0,1-1.992,1.069.028.028,0,0,1-.031-.024.028.028,0,0,1,.024-.031,3.192,3.192,0,0,0,1.366-.584,2.741,2.741,0,0,0,.939-1.13.065.065,0,0,1,.12.05h0Z" transform="translate(-69.521 -800.496)"/><path class="b" d="M74.081,795.459a3.265,3.265,0,0,1,1.4.521,3.311,3.311,0,0,1,1.012,1.112.065.065,0,0,1-.112.065h0a3.087,3.087,0,0,0-2.309-1.643.027.027,0,0,1-.022-.031A.027.027,0,0,1,74.081,795.459Z" transform="translate(-71.133 -792.839)"/><path class="b" d="M96.3,786.608a4.726,4.726,0,0,1,.9.284,6.891,6.891,0,0,1,.844.42,4.881,4.881,0,0,1,.772.552,2.281,2.281,0,0,1,.591.766.1.1,0,1,1-.178.078v0h0a2.115,2.115,0,0,0-.521-.721,4.737,4.737,0,0,0-.729-.561,6.776,6.776,0,0,0-.816-.442,4.668,4.668,0,0,0-.873-.31.031.031,0,0,1,.013-.061Z" transform="translate(-89.296 -785.601)"/><path class="b" d="M114.177,781.485a4.186,4.186,0,0,1,2.118.676,5.324,5.324,0,0,1,.883.7,4.456,4.456,0,0,1,.71.885.1.1,0,1,1-.167.1v0h0a4.283,4.283,0,0,0-.654-.87,5.17,5.17,0,0,0-.837-.709,4.1,4.1,0,0,0-2.055-.729.024.024,0,0,1-.023-.026A.025.025,0,0,1,114.177,781.485Z" transform="translate(-103.927 -781.412)"/></g><g transform="translate(40.953 676.747)"><path class="b" d="M146.231,758.965c-1.77-.932-2.407-2.645-.589-5.076s6.027-3.68,10.1-3.638c-1,2.2-.908,3.919-1.49,5.811C152.805,760.769,149.033,760.8,146.231,758.965Z" transform="translate(-141.634 -750.25)"/><path class="c" d="M133.366,797.591a36.123,36.123,0,0,0-2.731,5.516,24.65,24.65,0,0,0-1.559,5.923l-.537-.065a25.192,25.192,0,0,1,1.594-6.054,36.643,36.643,0,0,1,2.773-5.6Z" transform="translate(-128.54 -788.737)"/><path class="c" d="M161.629,753.659A14.248,14.248,0,0,0,156.764,757a20.208,20.208,0,0,0-1.907,2.274,26.816,26.816,0,0,0-1.6,2.505.137.137,0,1,1-.238-.135v0a27.1,27.1,0,0,1,1.656-2.5,20.417,20.417,0,0,1,1.968-2.258,14.344,14.344,0,0,1,4.961-3.277.024.024,0,1,1,.018.045Z" transform="translate(-148.548 -752.999)"/><path class="c" d="M185,752.2a2.4,2.4,0,0,0-.276.848,2.306,2.306,0,0,0,.038.882v0a.051.051,0,0,1-.1.026v0a2.381,2.381,0,0,1-.01-.92,2.461,2.461,0,0,1,.311-.857.021.021,0,0,1,.029-.008A.022.022,0,0,1,185,752.2Z" transform="translate(-174.399 -751.822)"/><path class="c" d="M183.152,766.251a4.369,4.369,0,0,1-1.917.224,6.3,6.3,0,0,1-.959-.163,6.121,6.121,0,0,1-.928-.307.078.078,0,1,1,.061-.143h0a5.982,5.982,0,0,0,.894.324,6.184,6.184,0,0,0,.937.188,4.3,4.3,0,0,0,1.892-.166.022.022,0,0,1,.028.014A.022.022,0,0,1,183.152,766.251Z" transform="translate(-170.05 -763.012)"/><path class="c" d="M165.3,758.253a2.847,2.847,0,0,0-.173.845,4.8,4.8,0,0,0,.028.865,5.449,5.449,0,0,0,.17.848,3.321,3.321,0,0,0,.323.787v0a.1.1,0,1,1-.167.1l0,0a3.489,3.489,0,0,1-.311-.844,5.586,5.586,0,0,1-.141-.876,4.926,4.926,0,0,1,.005-.886,2.928,2.928,0,0,1,.21-.859h0a.031.031,0,0,1,.041-.016A.031.031,0,0,1,165.3,758.253Z" transform="translate(-158.364 -756.76)"/><path class="c" d="M171.045,781.033a2.619,2.619,0,0,1-.68.33,5.543,5.543,0,0,1-.727.191,7.2,7.2,0,0,1-1.494.128,6.667,6.667,0,0,1-2.906-.7.1.1,0,1,1,.089-.176h0a6.494,6.494,0,0,0,2.819.729,7.068,7.068,0,0,0,1.468-.1,5.429,5.429,0,0,0,.715-.175,2.524,2.524,0,0,0,.659-.3.048.048,0,0,1,.066.011A.048.048,0,0,1,171.045,781.033Z" transform="translate(-158.507 -775.229)"/><path class="c" d="M162.072,794.708a2.765,2.765,0,0,1-.737.384,6,6,0,0,1-.794.229,7.645,7.645,0,0,1-1.64.174,6.41,6.41,0,0,1-3.186-.8.1.1,0,1,1,.1-.171h0a6.239,6.239,0,0,0,3.087.824,7.514,7.514,0,0,0,1.614-.146,5.908,5.908,0,0,0,.782-.213,2.667,2.667,0,0,0,.716-.358.048.048,0,0,1,.058.075Z" transform="translate(-150.722 -786.445)"/><path class="c" d="M147.62,774.728a3.2,3.2,0,0,0,.486,1.78,5.639,5.639,0,0,0,.534.768,5.325,5.325,0,0,0,.649.669.09.09,0,0,1-.115.138l0,0a5.543,5.543,0,0,1-.648-.711,5.752,5.752,0,0,1-.522-.8,4.126,4.126,0,0,1-.356-.89,2.7,2.7,0,0,1-.085-.952.03.03,0,0,1,.032-.027A.03.03,0,0,1,147.62,774.728Z" transform="translate(-144.085 -770.242)"/></g><g transform="translate(37.455 689.38)"><path class="b" d="M121.436,841.06a28.136,28.136,0,0,0,5.037-13.921c.377-3.663-2.55-9.435-9.822-6.963-8.263.525-8.148,6.985-6.247,11.317C111.966,835.05,116.728,839.316,121.436,841.06Z" transform="translate(-109.344 -819.579)"/><path class="c" d="M152.624,842.227a17.628,17.628,0,0,0,.723-5.322,25.246,25.246,0,0,0-.613-5.347,21.8,21.8,0,0,0-1.775-5.068,14.068,14.068,0,0,0-1.422-2.27,8.968,8.968,0,0,0-1.928-1.864.183.183,0,0,1,.284-.113,9.17,9.17,0,0,1,1.832,1.832,14.3,14.3,0,0,1,1.427,2.318,21.986,21.986,0,0,1,1.752,5.128,25.393,25.393,0,0,1,.574,5.384,17.729,17.729,0,0,1-.77,5.349.044.044,0,0,1-.084-.026Z" transform="translate(-140.636 -821.733)"/><path class="c" d="M159.634,823.631a6.021,6.021,0,0,0-3.381-1.149,8.167,8.167,0,0,0-3.51.735.138.138,0,1,1-.11-.253l0,0a8.4,8.4,0,0,1,3.625-.661,6.158,6.158,0,0,1,3.424,1.26.043.043,0,0,1,.009.061A.044.044,0,0,1,159.634,823.631Z" transform="translate(-144.677 -821.795)"/><path class="c" d="M171.122,841.755a4.5,4.5,0,0,0-1.259-1.466,5.862,5.862,0,0,0-1.707-.915,5.341,5.341,0,0,0-1.9-.287,4.764,4.764,0,0,0-1.858.447.127.127,0,0,1-.108-.23h0a5,5,0,0,1,1.958-.429,5.54,5.54,0,0,1,1.966.338,6.017,6.017,0,0,1,1.732.975,4.614,4.614,0,0,1,1.257,1.528h0a.045.045,0,0,1-.08.04Z" transform="translate(-154.215 -835.357)"/><path class="c" d="M178.737,875.46a5.249,5.249,0,0,0-1.285-2.2,6.277,6.277,0,0,0-.974-.83,4.677,4.677,0,0,0-1.119-.585h0a.125.125,0,1,1,.079-.236l0,0a4.891,4.891,0,0,1,1.156.655,6.475,6.475,0,0,1,.971.888,5.362,5.362,0,0,1,1.233,2.29.033.033,0,0,1-.023.04A.033.033,0,0,1,178.737,875.46Z" transform="translate(-163.257 -862.122)"/><path class="c" d="M117.268,823.348a12.6,12.6,0,0,0-2.507,1.108,10.908,10.908,0,0,0-2.187,1.65,8.676,8.676,0,0,0-1.631,2.194,8.36,8.36,0,0,0-.839,2.6.066.066,0,0,1-.13-.019,8.505,8.505,0,0,1,.825-2.659,8.854,8.854,0,0,1,1.639-2.256,11.109,11.109,0,0,1,2.21-1.705,12.84,12.84,0,0,1,2.542-1.156.126.126,0,1,1,.078.239Z" transform="translate(-109.859 -822.461)"/><path class="c" d="M130.656,846.311a4.713,4.713,0,0,0-1.472.46,10.215,10.215,0,0,0-1.364.779,12.677,12.677,0,0,0-2.367,2.074,12.348,12.348,0,0,0-1.784,2.6,11.874,11.874,0,0,0-1.047,2.979.029.029,0,0,1-.034.023.029.029,0,0,1-.022-.034,11.936,11.936,0,0,1,1.01-3.014,12.484,12.484,0,0,1,1.764-2.652,12.847,12.847,0,0,1,2.369-2.137,10.43,10.43,0,0,1,1.38-.815,4.934,4.934,0,0,1,1.54-.5.121.121,0,0,1,.028.24Z" transform="translate(-120.156 -841.243)"/><path class="c" d="M149.612,867.36a6.231,6.231,0,0,0-2.28,1.419,9.9,9.9,0,0,0-1.709,2.121,11.355,11.355,0,0,0-1.594,5.195.034.034,0,0,1-.067,0,11.468,11.468,0,0,1,1.525-5.272,10.085,10.085,0,0,1,1.7-2.188,6.45,6.45,0,0,1,2.342-1.508h0a.125.125,0,0,1,.08.237Z" transform="translate(-137.654 -858.453)"/><path class="c" d="M162.351,903.853a1.529,1.529,0,0,0-.651.2,3.729,3.729,0,0,0-.589.4,7.54,7.54,0,0,0-1.017,1.017,10.319,10.319,0,0,0-.849,1.17,7.108,7.108,0,0,0-.649,1.291.02.02,0,0,1-.038-.013,7.189,7.189,0,0,1,.619-1.319,10.428,10.428,0,0,1,.825-1.2,7.664,7.664,0,0,1,1.008-1.063,3.884,3.884,0,0,1,.6-.43,1.712,1.712,0,0,1,.723-.237h0a.1.1,0,1,1,.011.2Z" transform="translate(-149.589 -888.336)"/></g><path class="c" d="M179.213,902.076a1.76,1.76,0,0,1,.518.51,3.143,3.143,0,0,1,.333.629,3.54,3.54,0,0,1,.194.678,2.221,2.221,0,0,1,.023.7,2.188,2.188,0,0,0-.07-.689,3.458,3.458,0,0,0-.234-.65,3.036,3.036,0,0,0-.36-.582,1.591,1.591,0,0,0-.5-.431.1.1,0,0,1,.087-.17l.006,0Z" transform="translate(-128.905 -197.65)"/></g><g class="e" transform="translate(1477 512)"><circle class="f" cx="33.5" cy="33.5" r="33.5"/><circle class="g" cx="33.5" cy="33.5" r="31.5"/></g></g></svg>