<svg xmlns="http://www.w3.org/2000/svg" width="42.678" height="42.678" viewBox="0 0 42.678 42.678"><defs><style>.a{fill:#eaeaea;}</style></defs><g transform="translate(0 0)"><path class="a" d="M73.091,78.751a15.011,15.011,0,0,1,5.66-5.66l-6.461-2.4a1.242,1.242,0,0,0-1.6,1.6Z" transform="translate(-64.73 -64.73)"/><path class="a" d="M6.437,212.014a14.864,14.864,0,0,1,.546-4L.724,210.885a1.242,1.242,0,0,0,0,2.258l6.259,2.871a14.864,14.864,0,0,1-.546-4Z" transform="translate(0 -190.675)"/><path class="a" d="M212.014,6.437a14.864,14.864,0,0,1,4,.546L213.143.724a1.242,1.242,0,0,0-2.258,0l-2.871,6.259a14.861,14.861,0,0,1,4-.546Z" transform="translate(-190.675 0)"/><path class="a" d="M349.447,78.752l2.4-6.461a1.242,1.242,0,0,0-1.6-1.6l-6.461,2.4A15.012,15.012,0,0,1,349.447,78.752Z" transform="translate(-315.131 -64.731)"/><path class="a" d="M212.014,428.776a14.864,14.864,0,0,1-4-.546l2.871,6.259a1.242,1.242,0,0,0,2.258,0l2.871-6.259A14.866,14.866,0,0,1,212.014,428.776Z" transform="translate(-190.675 -392.535)"/><path class="a" d="M73.091,343.787l-2.4,6.461a1.242,1.242,0,0,0,1.6,1.6l6.461-2.4A15.013,15.013,0,0,1,73.091,343.787Z" transform="translate(-64.73 -315.13)"/><path class="a" d="M434.489,210.884l-6.259-2.871a14.928,14.928,0,0,1,0,8l6.259-2.871a1.242,1.242,0,0,0,0-2.258Z" transform="translate(-392.535 -190.674)"/><path class="a" d="M349.448,343.787a15.011,15.011,0,0,1-5.66,5.66l6.461,2.4a1.242,1.242,0,0,0,1.6-1.6Z" transform="translate(-315.131 -315.13)"/></g><path class="a" d="M119.438,131.857a12.418,12.418,0,1,1,12.418-12.418A12.432,12.432,0,0,1,119.438,131.857Z" transform="translate(-98.099 -98.099)"/></svg>