<svg xmlns="http://www.w3.org/2000/svg" width="42.678" height="33.116" viewBox="0 0 42.678 33.116"><defs><style>.a{fill:#98d2fd;}</style></defs><g transform="translate(-2.757 -10)"><path class="a" d="M49.928,23.208H47.3l-.089-1.517a.735.735,0,0,0-.734-.69H30.2a.736.736,0,0,0-.734.69l-.39,7.194c.577.533,1.155,1.066,1.739,1.59,2.837,2.543,2.275,9.2.884,12.335-.089.2-2.369-2.672-3.27-3.842l-.293,5.491A1.472,1.472,0,0,0,29.6,46.021H47.073a1.472,1.472,0,0,0,1.469-1.564l-.21-3.588h1.6a2.21,2.21,0,0,0,2.208-2.208V25.416A2.21,2.21,0,0,0,49.928,23.208Zm.736,15.454a.737.737,0,0,1-.736.736H48.246l-.86-14.718h2.542a.737.737,0,0,1,.736.736Z" transform="translate(-6.7 -2.905)"/><path class="a" d="M11.248,21.524l3.019-3.1-1.436-7.18L4,20.074Z" transform="translate(-0.328 -0.328)"/><path class="a" d="M12.5,10.915a3.122,3.122,0,0,0-4.416,0L3.672,15.33a3.122,3.122,0,0,0,0,4.416Z" transform="translate(0 0)"/><path class="a" d="M27.04,30.474c-.584-.524-1.162-1.057-1.739-1.59q-1.091-1.008-2.181-2.016c-2.194-2.018-4.059-3.85-6.252-5.867l-3.019,3.1c2.374,3.167,4.433,6.092,6.807,9.258C21.918,35.041,23.1,36.782,24.3,38.5c.042.06.171.231.35.463.9,1.169,3.181,4.042,3.27,3.842C29.316,39.674,29.877,33.016,27.04,30.474Z" transform="translate(-2.929 -2.905)"/><path class="a" d="M9.762,21,4.54,19.959a2.1,2.1,0,0,1-1.569-1.265l0-.012a3.117,3.117,0,0,0,.707,3.312l7.248,1.45,3.019-3.1-.366-1.832-1.827,1.877A2.173,2.173,0,0,1,9.762,21Z" transform="translate(-0.002 -2.248)"/><g transform="translate(10.92 18.095)"><path class="a" d="M26.222,38.6c-.2-.263-.35-.457-.4-.525-1.369-1.955-2.708-3.931-4.14-5.84-2.278-3.038-4.312-5.89-6.511-8.867l-1.325,1.361c2.374,3.167,4.433,6.092,6.807,9.258,1.261,1.682,2.441,3.423,3.647,5.146.042.06.171.231.35.463.9,1.169,3.181,4.042,3.27,3.842a11.854,11.854,0,0,0,.634-1.914c-.817-.982-1.794-2.222-2.336-2.923Z" transform="translate(-13.849 -21.624)"/><path class="a" d="M48.485,43.471a1.467,1.467,0,0,1-1.411,1.079H37.689a2.336,2.336,0,0,1-2.245-2.943,23,23,0,0,0,.685-8.832,6.778,6.778,0,0,0-2.245-3.752,5.572,5.572,0,0,1-1.9-4.636L32.266,21H30.2a.736.736,0,0,0-.734.69l-.39,7.194c.577.533,1.155,1.066,1.739,1.59,2.837,2.543,2.275,9.2.884,12.335-.089.2-2.369-2.672-3.27-3.842l-.293,5.491A1.472,1.472,0,0,0,29.6,46.021H47.073a1.472,1.472,0,0,0,1.47-1.558Z" transform="translate(-17.62 -21)"/></g></g></svg>