<svg xmlns="http://www.w3.org/2000/svg" width="39.471" height="39.259" viewBox="0 0 39.471 39.259"><defs><style>.a{fill:#003661;}</style></defs><path class="a" d="M552.255,1639.026a3.055,3.055,0,1,0,3.055-3.054,3.058,3.058,0,0,0-3.055,3.054Zm0,0" transform="translate(-534.087 -1633.553)"/><path class="a" d="M546.036,1858.968a1.706,1.706,0,1,0,1.706,1.706,1.708,1.708,0,0,0-1.706-1.706Zm0,0" transform="translate(-526.872 -1836.589)"/><path class="a" d="M356.984,1612.8a3.857,3.857,0,1,0-3.857,3.857,3.862,3.862,0,0,0,3.857-3.857Zm0,0" transform="translate(-349.27 -1608.943)"/><path class="a" d="M374,1968.854a3.242,3.242,0,1,0,3.242-3.242,3.245,3.245,0,0,0-3.242,3.242Zm0,0" transform="translate(-371.783 -1933.688)"/><path class="a" d="M398.989,1793.9a2.508,2.508,0,1,0-2.508,2.508,2.51,2.51,0,0,0,2.508-2.508Zm0,0" transform="translate(-389.973 -1775.063)"/><path class="a" d="M673.9,1994.895a2.468,2.468,0,1,0,2.468-2.468,2.471,2.471,0,0,0-2.468,2.468Zm0,0" transform="translate(-644.846 -1958.103)"/><path class="a" d="M693.821,1780.505a4.316,4.316,0,1,0,4.315-4.316,4.32,4.32,0,0,0-4.315,4.316Zm0,0" transform="translate(-662.982 -1761.22)"/></svg>